  0
SECTION
  2
HEADER
  9
$ACADVER
  1
AC1015
  9
$ACADMAINTVER
 70
    20
  9
$DWGCODEPAGE
  3
ANSI_1252
  9
$INSBASE
 10
0.2550000000000001
 20
0.0
 30
0.0
  9
$EXTMIN
 10
0.2550000000000001
 20
0.0
 30
0.0
  9
$EXTMAX
 10
75.53598166568737
 20
90.19132025209506
 30
0.0
  9
$LIMMIN
 10
-1.0
 20
-1.0
  9
$LIMMAX
 10
76.0
 20
91.0
  9
$ORTHOMODE
 70
     0
  9
$REGENMODE
 70
     1
  9
$FILLMODE
 70
     1
  9
$QTEXTMODE
 70
     0
  9
$MIRRTEXT
 70
     0
  9
$LTSCALE
 40
1.0
  9
$ATTMODE
 70
     1
  9
$TEXTSIZE
 40
1.0
  9
$TRACEWID
 40
0.05
  9
$TEXTSTYLE
  7
M5
  9
$CLAYER
  8
0
  9
$CELTYPE
  6
ByLayer
  9
$CECOLOR
 62
   256
  9
$CELTSCALE
 40
1.0
  9
$DISPSILH
 70
     0
  9
$DIMSCALE
 40
1.0
  9
$DIMASZ
 40
1.0
  9
$DIMEXO
 40
0.5
  9
$DIMDLI
 40
3.0
  9
$DIMRND
 40
0.0
  9
$DIMDLE
 40
0.0
  9
$DIMEXE
 40
0.5
  9
$DIMTP
 40
0.0
  9
$DIMTM
 40
0.0
  9
$DIMTXT
 40
1.0
  9
$DIMCEN
 40
0.09
  9
$DIMTSZ
 40
0.375
  9
$DIMTOL
 70
     0
  9
$DIMLIM
 70
     0
  9
$DIMTIH
 70
     0
  9
$DIMTOH
 70
     0
  9
$DIMSE1
 70
     0
  9
$DIMSE2
 70
     0
  9
$DIMTAD
 70
     1
  9
$DIMZIN
 70
     0
  9
$DIMBLK
  1

  9
$DIMASO
 70
     1
  9
$DIMSHO
 70
     1
  9
$DIMPOST
  1

  9
$DIMAPOST
  1

  9
$DIMALT
 70
     0
  9
$DIMALTD
 70
     2
  9
$DIMALTF
 40
25.4
  9
$DIMLFAC
 40
1.0
  9
$DIMTOFL
 70
     1
  9
$DIMTVP
 40
0.0
  9
$DIMTIX
 70
     0
  9
$DIMSOXD
 70
     0
  9
$DIMSAH
 70
     0
  9
$DIMBLK1
  1

  9
$DIMBLK2
  1

  9
$DIMSTYLE
  2
Standard
  9
$DIMCLRD
 70
     0
  9
$DIMCLRE
 70
     0
  9
$DIMCLRT
 70
     0
  9
$DIMTFAC
 40
1.0
  9
$DIMGAP
 40
0.09
  9
$DIMJUST
 70
     0
  9
$DIMSD1
 70
     0
  9
$DIMSD2
 70
     0
  9
$DIMTOLJ
 70
     1
  9
$DIMTZIN
 70
     0
  9
$DIMALTZ
 70
     0
  9
$DIMALTTZ
 70
     0
  9
$DIMUPT
 70
     0
  9
$DIMDEC
 70
     8
  9
$DIMTDEC
 70
     8
  9
$DIMALTU
 70
     4
  9
$DIMALTTD
 70
     2
  9
$DIMTXSTY
  7
STANDARD
  9
$DIMAUNIT
 70
     0
  9
$DIMADEC
 70
     0
  9
$DIMALTRND
 40
0.0
  9
$DIMAZIN
 70
     0
  9
$DIMDSEP
 70
    46
  9
$DIMATFIT
 70
     3
  9
$DIMFRAC
 70
     0
  9
$DIMLDRBLK
  1

  9
$DIMLUNIT
 70
     4
  9
$DIMLWD
 70
    -2
  9
$DIMLWE
 70
    -2
  9
$DIMTMOVE
 70
     2
  9
$LUNITS
 70
     4
  9
$LUPREC
 70
     8
  9
$SKETCHINC
 40
0.1
  9
$FILLETRAD
 40
0.25
  9
$AUNITS
 70
     0
  9
$AUPREC
 70
     0
  9
$MENU
  1
ACAD
  9
$ELEVATION
 40
0.0
  9
$PELEVATION
 40
0.0
  9
$THICKNESS
 40
0.0
  9
$LIMCHECK
 70
     0
  9
$CHAMFERA
 40
0.0
  9
$CHAMFERB
 40
0.0
  9
$CHAMFERC
 40
0.0
  9
$CHAMFERD
 40
0.0
  9
$SKPOLY
 70
     0
  9
$TDCREATE
 40
2448895.879556018
  9
$TDUCREATE
 40
2448896.171222686
  9
$TDUPDATE
 40
2458765.832335752
  9
$TDUUPDATE
 40
2458766.124002419
  9
$TDINDWG
 40
0.0014348611
  9
$TDUSRTIMER
 40
0.0014348611
  9
$USRTIMER
 70
     1
  9
$ANGBASE
 50
0.0
  9
$ANGDIR
 70
     0
  9
$PDMODE
 70
     0
  9
$PDSIZE
 40
0.0
  9
$PLINEWID
 40
0.0
  9
$SPLFRAME
 70
     0
  9
$SPLINETYPE
 70
     6
  9
$SPLINESEGS
 70
     8
  9
$HANDSEED
  5
18A
  9
$SURFTAB1
 70
     6
  9
$SURFTAB2
 70
     6
  9
$SURFTYPE
 70
     6
  9
$SURFU
 70
     6
  9
$SURFV
 70
     6
  9
$UCSBASE
  2

  9
$UCSNAME
  2

  9
$UCSORG
 10
0.0
 20
0.0
 30
0.0
  9
$UCSXDIR
 10
1.0
 20
0.0
 30
0.0
  9
$UCSYDIR
 10
0.0
 20
1.0
 30
0.0
  9
$UCSORTHOREF
  2

  9
$UCSORTHOVIEW
 70
     0
  9
$UCSORGTOP
 10
0.0
 20
0.0
 30
0.0
  9
$UCSORGBOTTOM
 10
0.0
 20
0.0
 30
0.0
  9
$UCSORGLEFT
 10
0.0
 20
0.0
 30
0.0
  9
$UCSORGRIGHT
 10
0.0
 20
0.0
 30
0.0
  9
$UCSORGFRONT
 10
0.0
 20
0.0
 30
0.0
  9
$UCSORGBACK
 10
0.0
 20
0.0
 30
0.0
  9
$PUCSBASE
  2

  9
$PUCSNAME
  2

  9
$PUCSORG
 10
0.0
 20
0.0
 30
0.0
  9
$PUCSXDIR
 10
1.0
 20
0.0
 30
0.0
  9
$PUCSYDIR
 10
0.0
 20
1.0
 30
0.0
  9
$PUCSORTHOREF
  2

  9
$PUCSORTHOVIEW
 70
     0
  9
$PUCSORGTOP
 10
0.0
 20
0.0
 30
0.0
  9
$PUCSORGBOTTOM
 10
0.0
 20
0.0
 30
0.0
  9
$PUCSORGLEFT
 10
0.0
 20
0.0
 30
0.0
  9
$PUCSORGRIGHT
 10
0.0
 20
0.0
 30
0.0
  9
$PUCSORGFRONT
 10
0.0
 20
0.0
 30
0.0
  9
$PUCSORGBACK
 10
0.0
 20
0.0
 30
0.0
  9
$USERI1
 70
     0
  9
$USERI2
 70
     0
  9
$USERI3
 70
     0
  9
$USERI4
 70
     0
  9
$USERI5
 70
     0
  9
$USERR1
 40
0.0
  9
$USERR2
 40
0.0
  9
$USERR3
 40
0.0
  9
$USERR4
 40
0.0
  9
$USERR5
 40
0.0
  9
$WORLDVIEW
 70
     1
  9
$SHADEDGE
 70
     3
  9
$SHADEDIF
 70
    70
  9
$TILEMODE
 70
     1
  9
$MAXACTVP
 70
    64
  9
$PINSBASE
 10
0.0
 20
0.0
 30
0.0
  9
$PLIMCHECK
 70
     0
  9
$PEXTMIN
 10
1.000000000000000E+20
 20
1.000000000000000E+20
 30
1.000000000000000E+20
  9
$PEXTMAX
 10
-1.000000000000000E+20
 20
-1.000000000000000E+20
 30
-1.000000000000000E+20
  9
$PLIMMIN
 10
0.0
 20
0.0
  9
$PLIMMAX
 10
12.0
 20
9.0
  9
$UNITMODE
 70
     0
  9
$VISRETAIN
 70
     1
  9
$PLINEGEN
 70
     0
  9
$PSLTSCALE
 70
     0
  9
$TREEDEPTH
 70
  3020
  9
$CMLSTYLE
  2
Standard
  9
$CMLJUST
 70
     0
  9
$CMLSCALE
 40
1.0
  9
$PROXYGRAPHICS
 70
     1
  9
$MEASUREMENT
 70
     0
  9
$CELWEIGHT
370
    -1
  9
$ENDCAPS
280
     0
  9
$JOINSTYLE
280
     0
  9
$LWDISPLAY
290
     0
  9
$INSUNITS
 70
     0
  9
$HYPERLINKBASE
  1

  9
$STYLESHEET
  1

  9
$XEDIT
290
     1
  9
$CEPSNTYPE
380
     0
  9
$PSTYLEMODE
290
     1
  9
$FINGERPRINTGUID
  2
{F4629178-1CAA-4A36-9BBC-D0082B404CBB}
  9
$VERSIONGUID
  2
{22907978-C61F-4E27-98B8-E35D19A0E3A5}
  9
$EXTNAMES
290
     1
  9
$PSVPSCALE
 40
0.0
  9
$OLESTARTUP
290
     0
  0
ENDSEC
  0
SECTION
  2
CLASSES
  0
CLASS
  1
ACDBDICTIONARYWDFLT
  2
AcDbDictionaryWithDefault
  3
ObjectDBX Classes
 90
        0
280
     0
281
     0
  0
CLASS
  1
MATERIAL
  2
AcDbMaterial
  3
ObjectDBX Classes
 90
     1024
280
     0
281
     0
  0
CLASS
  1
VISUALSTYLE
  2
AcDbVisualStyle
  3
ObjectDBX Classes
 90
     4095
280
     0
281
     0
  0
CLASS
  1
TABLESTYLE
  2
AcDbTableStyle
  3
ObjectDBX Classes
 90
     4095
280
     0
281
     0
  0
CLASS
  1
DICTIONARYVAR
  2
AcDbDictionaryVar
  3
ObjectDBX Classes
 90
        0
280
     0
281
     0
  0
CLASS
  1
ACDBPLACEHOLDER
  2
AcDbPlaceHolder
  3
ObjectDBX Classes
 90
        0
280
     0
281
     0
  0
CLASS
  1
LAYOUT
  2
AcDbLayout
  3
ObjectDBX Classes
 90
        0
280
     0
281
     0
  0
ENDSEC
  0
SECTION
  2
TABLES
  0
TABLE
  2
VPORT
  5
8
330
0
100
AcDbSymbolTable
 70
     1
  0
VPORT
  5
41
330
8
100
AcDbSymbolTableRecord
100
AcDbViewportTableRecord
  2
*Active
 70
     0
 10
0.0
 20
0.0
 11
1.0
 21
1.0
 12
62.59806295399515
 22
45.0
 13
0.0
 23
0.0
 14
0.125
 24
0.125
 15
1.0
 25
1.0
 16
0.0
 26
0.0
 36
1.0
 17
0.0
 27
0.0
 37
0.0
 40
92.00589326927607
 41
1.97538100820633
 42
50.0
 43
0.0
 44
0.0
 50
0.0
 51
0.0
 71
     0
 72
   100
 73
     1
 74
     0
 75
     1
 76
     0
 77
     0
 78
     0
281
     0
 65
     1
110
0.0
120
0.0
130
0.0
111
1.0
121
0.0
131
0.0
112
0.0
122
1.0
132
0.0
 79
     0
146
0.0
  0
ENDTAB
  0
TABLE
  2
LTYPE
  5
5
330
0
100
AcDbSymbolTable
 70
     1
  0
LTYPE
  5
28
330
5
100
AcDbSymbolTableRecord
100
AcDbLinetypeTableRecord
  2
ByBlock
 70
     0
  3

 72
    65
 73
     0
 40
0.0
  0
LTYPE
  5
29
330
5
100
AcDbSymbolTableRecord
100
AcDbLinetypeTableRecord
  2
ByLayer
 70
     0
  3

 72
    65
 73
     0
 40
0.0
  0
LTYPE
  5
2A
330
5
100
AcDbSymbolTableRecord
100
AcDbLinetypeTableRecord
  2
CONTINUOUS
 70
     0
  3
Solid line
 72
    65
 73
     0
 40
0.0
  0
ENDTAB
  0
TABLE
  2
LAYER
  5
2
330
0
100
AcDbSymbolTable
 70
     1
  0
LAYER
  5
25
330
2
100
AcDbSymbolTableRecord
100
AcDbLayerTableRecord
  2
0
 70
     0
 62
     7
  6
CONTINUOUS
370
    -3
390
F
  0
ENDTAB
  0
TABLE
  2
STYLE
  5
3
330
0
100
AcDbSymbolTable
 70
     2
  0
STYLE
  5
26
330
3
100
AcDbSymbolTableRecord
100
AcDbTextStyleTableRecord
  2
STANDARD
 70
     0
 40
0.0
 41
1.0
 50
0.0
 71
     0
 42
0.2
  3
txt
  4

  0
STYLE
  5
3C
330
3
100
AcDbSymbolTableRecord
100
AcDbTextStyleTableRecord
  2
M5
 70
     0
 40
1.0
 41
1.0
 50
15.0
 71
     0
 42
1.0
  3
M5
  4

  0
ENDTAB
  0
TABLE
  2
VIEW
  5
6
330
0
100
AcDbSymbolTable
 70
     0
  0
ENDTAB
  0
TABLE
  2
UCS
  5
7
330
0
100
AcDbSymbolTable
 70
     0
  0
ENDTAB
  0
TABLE
  2
APPID
  5
9
330
0
100
AcDbSymbolTable
 70
     1
  0
APPID
  5
27
330
9
100
AcDbSymbolTableRecord
100
AcDbRegAppTableRecord
  2
ACAD
 70
     0
  0
ENDTAB
  0
TABLE
  2
DIMSTYLE
  5
A
330
0
100
AcDbSymbolTable
 70
     1
100
AcDbDimStyleTable
 71
     0
  0
DIMSTYLE
105
174
330
A
100
AcDbSymbolTableRecord
100
AcDbDimStyleTableRecord
  2
Standard
 70
     0
340
26
  0
ENDTAB
  0
TABLE
  2
BLOCK_RECORD
  5
1
330
0
100
AcDbSymbolTable
 70
     2
  0
BLOCK_RECORD
  5
36
330
1
100
AcDbSymbolTableRecord
100
AcDbBlockTableRecord
  2
*Model_Space
340
39
  0
BLOCK_RECORD
  5
32
330
1
100
AcDbSymbolTableRecord
100
AcDbBlockTableRecord
  2
*Paper_Space
340
35
  0
BLOCK_RECORD
  5
3A
330
1
100
AcDbSymbolTableRecord
100
AcDbBlockTableRecord
  2
T
340
0
102
{BLKREFS
331
16D
331
16E
331
16F
331
170
331
171
331
172
331
173
102
}
  0
BLOCK_RECORD
  5
3B
330
1
100
AcDbSymbolTableRecord
100
AcDbBlockTableRecord
  2
RB
340
0
102
{BLKREFS
331
122
331
123
331
131
331
132
331
147
331
148
331
149
331
14A
102
}
  0
ENDTAB
  0
ENDSEC
  0
SECTION
  2
BLOCKS
  0
BLOCK
  5
3F
330
36
100
AcDbEntity
  8
0
100
AcDbBlockBegin
  2
*Model_Space
 70
     0
 10
0.0
 20
0.0
 30
0.0
  3
*Model_Space
  1

  0
ENDBLK
  5
40
330
36
100
AcDbEntity
  8
0
100
AcDbBlockEnd
  0
BLOCK
  5
3D
330
32
100
AcDbEntity
 67
     1
  8
0
100
AcDbBlockBegin
  2
*Paper_Space
 70
     0
 10
0.0
 20
0.0
 30
0.0
  3
*Paper_Space
  1

  0
ENDBLK
  5
3E
330
32
100
AcDbEntity
 67
     1
  8
0
100
AcDbBlockEnd
  0
BLOCK
  5
42
330
3A
100
AcDbEntity
  8
0
100
AcDbBlockBegin
  2
T
 70
     0
 10
0.0
 20
0.0
 30
0.0
  3
T
  1

  0
LINE
  5
43
330
3A
100
AcDbEntity
  8
0
  6
ByBlock
 62
     0
100
AcDbLine
 10
0.375
 20
-0.375
 30
0.0
 11
-0.375
 21
0.375
 31
0.0
  0
ENDBLK
  5
44
330
3A
100
AcDbEntity
  8
0
100
AcDbBlockEnd
  0
BLOCK
  5
45
330
3B
100
AcDbEntity
  8
0
100
AcDbBlockBegin
  2
RB
 70
     0
 10
0.0
 20
0.0
 30
0.0
  3
RB
  1

  0
LWPOLYLINE
  5
46
330
3B
100
AcDbEntity
  8
0
100
AcDbPolyline
 90
        2
 70
     1
 43
0.325
 10
-0.2082693425243676
 20
0.0069136322190131
 42
1.0
 10
0.2167306574756296
 20
0.0069136322190131
 42
1.0
  0
ENDBLK
  5
4A
330
3B
100
AcDbEntity
  8
0
100
AcDbBlockEnd
  0
ENDSEC
  0
SECTION
  2
ENTITIES
  0
TEXT
  5
4B
330
36
100
AcDbEntity
  8
0
  6
Continuous
100
AcDbText
 10
60.88803247325622
 20
46.31988514830893
 30
0.0
 40
1.0
  1
SLAB ON GRADE
 51
15.0
  7
M5
100
AcDbText
  0
TEXT
  5
4D
330
36
100
AcDbEntity
  8
0
  6
Continuous
100
AcDbText
 10
6.603232303724235
 20
40.40968723800691
 30
0.0
 40
1.0
  1
FIN. GRADE
 51
15.0
  7
M5
100
AcDbText
  0
TEXT
  5
4E
330
36
100
AcDbEntity
  8
0
  6
Continuous
100
AcDbText
 10
62.94580084604469
 20
43.94730301715517
 30
0.0
 40
1.0
  1
X
 51
15.0
  7
M5
100
AcDbText
  0
TEXT
  5
4F
330
36
100
AcDbEntity
  8
0
  6
Continuous
100
AcDbText
 10
54.78834286371139
 20
43.94730301715517
 30
0.0
 40
1.0
  1
X
 51
15.0
  7
M5
100
AcDbText
  0
TEXT
  5
50
330
36
100
AcDbEntity
  8
0
  6
Continuous
100
AcDbText
 10
46.23537176708307
 20
43.94730301715517
 30
0.0
 40
1.0
  1
X
 51
15.0
  7
M5
100
AcDbText
  0
LINE
  5
51
330
36
100
AcDbEntity
  8
0
  6
Continuous
100
AcDbLine
 10
43.04894068246201
 20
44.44168637868702
 30
0.0
 11
75.51247276005804
 21
44.44168637868702
 31
0.0
  0
LINE
  5
52
330
36
100
AcDbEntity
  8
0
  6
Continuous
100
AcDbLine
 10
75.51247276005804
 20
45.85964298125886
 30
0.0
 11
75.51247276005804
 21
43.23464298125892
 31
0.0
  0
LINE
  5
53
330
36
100
AcDbEntity
  8
0
  6
Continuous
100
AcDbLine
 10
18.8803060462965
 20
45.78715993039443
 30
0.0
 11
0.7205049745686494
 21
45.7871599303945
 31
0.0
  0
LINE
  5
54
330
36
100
AcDbEntity
  8
0
  6
Continuous
 62
     0
100
AcDbLine
 10
19.76128748456474
 20
39.74903403934091
 30
0.0
 11
19.7401747983886
 21
39.77014672551705
 31
0.0
  0
LINE
  5
55
330
36
100
AcDbEntity
  8
0
  6
Continuous
 62
     0
100
AcDbLine
 10
18.1239358886917
 20
38.73473520576435
 30
0.0
 11
17.08852436893905
 21
39.77014672551705
 31
0.0
  0
LINE
  5
56
330
36
100
AcDbEntity
  8
0
  6
Continuous
 62
     0
100
AcDbLine
 10
19.7496067160371
 20
37.10906437841912
 30
0.0
 11
19.44976110341658
 21
37.40890999103957
 31
0.0
  0
LINE
  5
57
330
36
100
AcDbEntity
  8
0
  6
Continuous
 62
     0
100
AcDbLine
 10
15.47228545924215
 20
38.7347352057644
 30
0.0
 11
14.43687393948951
 21
39.7701467255171
 31
0.0
  0
LINE
  5
58
330
36
100
AcDbEntity
  8
0
  6
Continuous
 62
     0
100
AcDbLine
 10
18.1239358886917
 20
36.08308477631485
 30
0.0
 11
16.79811067396692
 21
37.40890999103963
 31
0.0
  0
LINE
  5
59
330
36
100
AcDbEntity
  8
0
  6
Continuous
 62
     0
100
AcDbLine
 10
19.73792594750934
 20
34.46909471749727
 30
0.0
 11
19.44976110341658
 21
34.75725956159003
 31
0.0
  0
LINE
  5
5A
330
36
100
AcDbEntity
  8
0
  6
Continuous
 62
     0
100
AcDbLine
 10
10.16898460034317
 20
36.08308477631474
 30
0.0
 11
8.843159385618401
 21
37.40890999103952
 31
0.0
  0
LINE
  5
5B
330
36
100
AcDbEntity
  8
0
  6
Continuous
 62
     0
100
AcDbLine
 10
10.16898460034306
 20
38.7347352057644
 30
0.0
 11
9.133573080590304
 21
39.77014672551716
 31
0.0
  0
LINE
  5
5C
330
36
100
AcDbEntity
  8
0
  6
Continuous
 62
     0
100
AcDbLine
 10
12.82063502979272
 20
36.08308477631485
 30
0.0
 11
11.49480981506783
 21
37.40890999103963
 31
0.0
  0
LINE
  5
5D
330
36
100
AcDbEntity
  8
0
  6
Continuous
 62
     0
100
AcDbLine
 10
15.47228545924215
 20
33.43143434686525
 30
0.0
 11
14.14646024451738
 21
34.75725956159003
 31
0.0
  0
LINE
  5
5E
330
36
100
AcDbEntity
  8
0
  6
Continuous
 62
     0
100
AcDbLine
 10
18.1239358886917
 20
30.77978391741565
 30
0.0
 11
16.79811067396692
 21
32.10560913214048
 31
0.0
  0
LINE
  5
5F
330
36
100
AcDbEntity
  8
0
  6
Continuous
 62
     0
100
AcDbLine
 10
12.82063502979272
 20
38.73473520576435
 30
0.0
 11
11.78522351003985
 21
39.77014672551705
 31
0.0
  0
LINE
  5
60
330
36
100
AcDbEntity
  8
0
  6
Continuous
 62
     0
100
AcDbLine
 10
15.47228545924215
 20
36.0830847763148
 30
0.0
 11
14.14646024451738
 21
37.40890999103957
 31
0.0
  0
LINE
  5
61
330
36
100
AcDbEntity
  8
0
  6
Continuous
 62
     0
100
AcDbLine
 10
18.1239358886917
 20
33.4314343468652
 30
0.0
 11
16.79811067396692
 21
34.75725956158997
 31
0.0
  0
LINE
  5
62
330
36
100
AcDbEntity
  8
0
  6
Continuous
 62
     0
100
AcDbLine
 10
19.72624517898159
 20
31.82912505657542
 30
0.0
 11
19.44976110341658
 21
32.10560913214042
 31
0.0
  0
LINE
  5
63
330
36
100
AcDbEntity
  8
0
  6
Continuous
 62
     0
100
AcDbLine
 10
19.75690719636693
 20
38.75904541649525
 30
0.0
 11
18.95257664789474
 21
39.56337596496733
 31
0.0
  0
LINE
  5
64
330
36
100
AcDbEntity
  8
0
  6
Continuous
 62
     0
100
AcDbLine
 10
17.62675143316996
 20
38.23755075024255
 30
0.0
 11
16.30092621844507
 21
39.56337596496733
 31
0.0
  0
LINE
  5
65
330
36
100
AcDbEntity
  8
0
  6
Continuous
 62
     0
100
AcDbLine
 10
19.74522642783906
 20
36.1190757555734
 30
0.0
 11
18.95257664789474
 21
36.91172553551778
 31
0.0
  0
LINE
  5
66
330
36
100
AcDbEntity
  8
0
  6
Continuous
 62
     0
100
AcDbLine
 10
14.97510100372042
 20
38.23755075024255
 30
0.0
 11
13.64927578899564
 21
39.56337596496733
 31
0.0
  0
LINE
  5
67
330
36
100
AcDbEntity
  8
0
  6
Continuous
 62
     0
100
AcDbLine
 10
17.62675143317007
 20
35.58590032079301
 30
0.0
 11
16.30092621844519
 21
36.91172553551778
 31
0.0
  0
LINE
  5
68
330
36
100
AcDbEntity
  8
0
  6
Continuous
 62
     0
100
AcDbLine
 10
19.73354565931142
 20
33.47910609465155
 30
0.0
 11
18.95257664789485
 21
34.26007510606824
 31
0.0
  0
LINE
  5
69
330
36
100
AcDbEntity
  8
0
  6
Continuous
 62
     0
100
AcDbLine
 10
9.671800144821327
 20
38.23755075024255
 30
0.0
 11
8.345974930096497
 21
39.56337596496733
 31
0.0
  0
LINE
  5
6A
330
36
100
AcDbEntity
  8
0
  6
Continuous
 62
     0
100
AcDbLine
 10
12.32345057427087
 20
35.58590032079301
 30
0.0
 11
10.9976253595461
 21
36.91172553551778
 31
0.0
  0
LINE
  5
6B
330
36
100
AcDbEntity
  8
0
  6
Continuous
 62
     0
100
AcDbLine
 10
14.97510100372053
 20
32.93424989134341
 30
0.0
 11
13.64927578899576
 21
34.26007510606824
 31
0.0
  0
LINE
  5
6C
330
36
100
AcDbEntity
  8
0
  6
Continuous
 62
     0
100
AcDbLine
 10
16.35836961587963
 20
18.70059765797676
 30
0.0
 11
16.3009262184453
 21
18.7580410554112
 31
0.0
  0
LINE
  5
6D
330
36
100
AcDbEntity
  8
0
  6
Continuous
 62
     0
100
AcDbLine
 10
12.32345057427087
 20
38.23755075024255
 30
0.0
 11
10.9976253595461
 21
39.56337596496733
 31
0.0
  0
LINE
  5
6E
330
36
100
AcDbEntity
  8
0
  6
Continuous
 62
     0
100
AcDbLine
 10
14.97510100372053
 20
35.58590032079301
 30
0.0
 11
13.64927578899576
 21
36.91172553551778
 31
0.0
  0
LINE
  5
6F
330
36
100
AcDbEntity
  8
0
  6
Continuous
 62
     0
100
AcDbLine
 10
17.62675143317007
 20
32.93424989134341
 30
0.0
 11
16.3009262184453
 21
34.26007510606824
 31
0.0
  0
LINE
  5
70
330
36
100
AcDbEntity
  8
0
  6
Continuous
 62
     0
100
AcDbLine
 10
19.75252690816889
 20
37.76905679364953
 30
0.0
 11
18.455392192373
 21
39.06619150944548
 31
0.0
  0
LINE
  5
71
330
36
100
AcDbEntity
  8
0
  6
Continuous
 62
     0
100
AcDbLine
 10
17.12956697764823
 20
37.74036629472077
 30
0.0
 11
15.80374176292346
 21
39.0661915094456
 31
0.0
  0
LINE
  5
72
330
36
100
AcDbEntity
  8
0
  6
Continuous
 62
     0
100
AcDbLine
 10
19.74084613964125
 20
35.12908713272768
 30
0.0
 11
18.455392192373
 21
36.41454107999599
 31
0.0
  0
LINE
  5
73
330
36
100
AcDbEntity
  8
0
  6
Continuous
 62
     0
100
AcDbLine
 10
9.174615689299537
 20
37.74036629472071
 30
0.0
 11
7.848790474574764
 21
39.06619150944554
 31
0.0
  0
LINE
  5
74
330
36
100
AcDbEntity
  8
0
  6
Continuous
 62
     0
100
AcDbLine
 10
11.82626611874914
 20
35.08871586527116
 30
0.0
 11
10.50044090402437
 21
36.41454107999594
 31
0.0
  0
LINE
  5
75
330
36
100
AcDbEntity
  8
0
  6
Continuous
 62
     0
100
AcDbLine
 10
11.82626611874902
 20
37.74036629472077
 30
0.0
 11
10.50044090402431
 21
39.0661915094456
 31
0.0
  0
LINE
  5
76
330
36
100
AcDbEntity
  8
0
  6
Continuous
 62
     0
100
AcDbLine
 10
14.47791654819869
 20
35.08871586527122
 30
0.0
 11
13.15209133347391
 21
36.41454107999599
 31
0.0
  0
LINE
  5
77
330
36
100
AcDbEntity
  8
0
  6
Continuous
 62
     0
100
AcDbLine
 10
17.12956697764823
 20
32.43706543582162
 30
0.0
 11
15.80374176292346
 21
33.76289065054639
 31
0.0
  0
LINE
  5
78
330
36
100
AcDbEntity
  8
0
  6
Continuous
 62
     0
100
AcDbLine
 10
14.47791654819869
 20
37.74036629472077
 30
0.0
 11
13.15209133347391
 21
39.0661915094456
 31
0.0
  0
LINE
  5
79
330
36
100
AcDbEntity
  8
0
  6
Continuous
 62
     0
100
AcDbLine
 10
17.12956697764823
 20
35.08871586527122
 30
0.0
 11
15.80374176292346
 21
36.41454107999599
 31
0.0
  0
LINE
  5
7A
330
36
100
AcDbEntity
  8
0
  6
Continuous
 62
     0
100
AcDbLine
 10
19.72916537111361
 20
32.48911747180589
 30
0.0
 11
18.455392192373
 21
33.76289065054639
 31
0.0
  0
LINE
  5
7B
330
36
100
AcDbEntity
  8
0
  6
Continuous
 62
     0
100
AcDbLine
 10
17.12956697764823
 20
32.10560913214042
 30
0.0
 11
18.455392192373
 21
33.4314343468652
 31
0.0
  0
LINE
  5
7C
330
36
100
AcDbEntity
  8
0
  6
Continuous
 62
     0
100
AcDbLine
 10
17.12956697764823
 20
34.75725956158997
 30
0.0
 11
18.455392192373
 21
36.0830847763148
 31
0.0
  0
LINE
  5
7D
330
36
100
AcDbEntity
  8
0
  6
Continuous
 62
     0
100
AcDbLine
 10
14.92931331332968
 20
32.55700589727153
 30
0.0
 11
15.80374176292346
 21
33.4314343468652
 31
0.0
  0
LINE
  5
7E
330
36
100
AcDbEntity
  8
0
  6
Continuous
 62
     0
100
AcDbLine
 10
17.12956697764823
 20
37.40890999103957
 30
0.0
 11
18.455392192373
 21
38.73473520576435
 31
0.0
  0
LINE
  5
7F
330
36
100
AcDbEntity
  8
0
  6
Continuous
 62
     0
100
AcDbLine
 10
14.47791654819869
 20
34.75725956158997
 30
0.0
 11
15.80374176292346
 21
36.0830847763148
 31
0.0
  0
LINE
  5
80
330
36
100
AcDbEntity
  8
0
  6
Continuous
 62
     0
100
AcDbLine
 10
14.47791654819869
 20
37.40890999103957
 30
0.0
 11
15.80374176292346
 21
38.73473520576435
 31
0.0
  0
LINE
  5
81
330
36
100
AcDbEntity
  8
0
  6
Continuous
 62
     0
100
AcDbLine
 10
11.82626611874902
 20
34.75725956158997
 30
0.0
 11
13.15209133347391
 21
36.0830847763148
 31
0.0
  0
LINE
  5
82
330
36
100
AcDbEntity
  8
0
  6
Continuous
 62
     0
100
AcDbLine
 10
11.82626611874902
 20
37.40890999103952
 30
0.0
 11
13.15209133347391
 21
38.73473520576429
 31
0.0
  0
LINE
  5
83
330
36
100
AcDbEntity
  8
0
  6
Continuous
 62
     0
100
AcDbLine
 10
10.26085520224691
 20
35.8434990745374
 30
0.0
 11
10.50044090402425
 21
36.08308477631474
 31
0.0
  0
LINE
  5
84
330
36
100
AcDbEntity
  8
0
  6
Continuous
 62
     0
100
AcDbLine
 10
9.174615689299537
 20
37.40890999103957
 30
0.0
 11
10.50044090402437
 21
38.73473520576435
 31
0.0
  0
LINE
  5
85
330
36
100
AcDbEntity
  8
0
  6
Continuous
 62
     0
100
AcDbLine
 10
7.148549794858377
 20
38.03449452604796
 30
0.0
 11
7.848790474574764
 21
38.73473520576435
 31
0.0
  0
LINE
  5
86
330
36
100
AcDbEntity
  8
0
  6
Continuous
 62
     0
100
AcDbLine
 10
17.62675143316996
 20
31.60842467661858
 30
0.0
 11
18.95257664789474
 21
32.93424989134335
 31
0.0
  0
LINE
  5
87
330
36
100
AcDbEntity
  8
0
  6
Continuous
 62
     0
100
AcDbLine
 10
17.62675143316996
 20
34.26007510606818
 30
0.0
 11
18.95257664789474
 21
35.58590032079295
 31
0.0
  0
LINE
  5
88
330
36
100
AcDbEntity
  8
0
  6
Continuous
 62
     0
100
AcDbLine
 10
15.51287057721517
 20
32.14619425011334
 30
0.0
 11
16.30092621844507
 21
32.93424989134335
 31
0.0
  0
LINE
  5
89
330
36
100
AcDbEntity
  8
0
  6
Continuous
 62
     0
100
AcDbLine
 10
17.62675143317007
 20
36.91172553551778
 30
0.0
 11
18.95257664789485
 21
38.23755075024255
 31
0.0
  0
LINE
  5
8A
330
36
100
AcDbEntity
  8
0
  6
Continuous
 62
     0
100
AcDbLine
 10
14.97510100372053
 20
34.26007510606824
 30
0.0
 11
16.3009262184453
 21
35.58590032079301
 31
0.0
  0
LINE
  5
8B
330
36
100
AcDbEntity
  8
0
  6
Continuous
 62
     0
100
AcDbLine
 10
17.62675143317007
 20
39.56337596496733
 30
0.0
 11
17.83352219371979
 21
39.77014672551705
 31
0.0
  0
LINE
  5
8C
330
36
100
AcDbEntity
  8
0
  6
Continuous
 62
     0
100
AcDbLine
 10
14.97510100372053
 20
36.91172553551778
 30
0.0
 11
16.3009262184453
 21
38.23755075024255
 31
0.0
  0
LINE
  5
8D
330
36
100
AcDbEntity
  8
0
  6
Continuous
 62
     0
100
AcDbLine
 10
12.40056516982658
 20
34.33718970162389
 30
0.0
 11
13.64927578899576
 21
35.58590032079301
 31
0.0
  0
LINE
  5
8E
330
36
100
AcDbEntity
  8
0
  6
Continuous
 62
     0
100
AcDbLine
 10
14.97510100372053
 20
39.56337596496733
 30
0.0
 11
15.18187176427025
 21
39.77014672551705
 31
0.0
  0
LINE
  5
8F
330
36
100
AcDbEntity
  8
0
  6
Continuous
 62
     0
100
AcDbLine
 10
12.32345057427087
 20
36.91172553551773
 30
0.0
 11
13.64927578899576
 21
38.23755075024255
 31
0.0
  0
LINE
  5
90
330
36
100
AcDbEntity
  8
0
  6
Continuous
 62
     0
100
AcDbLine
 10
10.84441246613229
 20
35.43268742737915
 30
0.0
 11
10.9976253595461
 21
35.58590032079295
 31
0.0
  0
LINE
  5
91
330
36
100
AcDbEntity
  8
0
  6
Continuous
 62
     0
100
AcDbLine
 10
12.32345057427087
 20
39.56337596496733
 30
0.0
 11
12.53022133482059
 21
39.77014672551705
 31
0.0
  0
LINE
  5
92
330
36
100
AcDbEntity
  8
0
  6
Continuous
 62
     0
100
AcDbLine
 10
9.671800144821327
 20
36.91172553551773
 30
0.0
 11
10.9976253595461
 21
38.23755075024255
 31
0.0
  0
LINE
  5
93
330
36
100
AcDbEntity
  8
0
  6
Continuous
 62
     0
100
AcDbLine
 10
2.37586073393819
 20
41.19648641891344
 30
0.0
 11
2.420392338821409
 21
41.24101802379666
 31
0.0
  0
LINE
  5
94
330
36
100
AcDbEntity
  8
0
  6
Continuous
 62
     0
100
AcDbLine
 10
4.820740402838021
 20
40.98971565836373
 30
0.0
 11
5.027511163387737
 21
41.19648641891344
 31
0.0
  0
LINE
  5
95
330
36
100
AcDbEntity
  8
0
  6
Continuous
 62
     0
100
AcDbLine
 10
9.671800144821384
 20
39.56337596496733
 30
0.0
 11
9.8785709053711
 21
39.77014672551705
 31
0.0
  0
LINE
  5
96
330
36
100
AcDbEntity
  8
0
  6
Continuous
 62
     0
100
AcDbLine
 10
7.732107058743759
 20
37.6236828788897
 30
0.0
 11
8.345974930096554
 21
38.23755075024255
 31
0.0
  0
LINE
  5
97
330
36
100
AcDbEntity
  8
0
  6
Continuous
 62
     0
100
AcDbLine
 10
18.1239358886917
 20
31.11124022109684
 30
0.0
 11
19.44976110341658
 21
32.43706543582162
 31
0.0
  0
LINE
  5
98
330
36
100
AcDbEntity
  8
0
  6
Continuous
 62
     0
100
AcDbLine
 10
18.1239358886917
 20
33.76289065054639
 30
0.0
 11
19.44976110341658
 21
35.08871586527122
 31
0.0
  0
LINE
  5
99
330
36
100
AcDbEntity
  8
0
  6
Continuous
 62
     0
100
AcDbLine
 10
16.09642784110044
 20
31.73538260295514
 30
0.0
 11
16.79811067396692
 21
32.43706543582162
 31
0.0
  0
LINE
  5
9A
330
36
100
AcDbEntity
  8
0
  6
Continuous
 62
     0
100
AcDbLine
 10
18.1239358886917
 20
36.41454107999594
 30
0.0
 11
19.44976110341658
 21
37.74036629472071
 31
0.0
  0
LINE
  5
9B
330
36
100
AcDbEntity
  8
0
  6
Continuous
 62
     0
100
AcDbLine
 10
15.47228545924215
 20
33.76289065054639
 30
0.0
 11
16.79811067396692
 21
35.08871586527116
 31
0.0
  0
LINE
  5
9C
330
36
100
AcDbEntity
  8
0
  6
Continuous
 62
     0
100
AcDbLine
 10
18.1239358886917
 20
39.06619150944554
 30
0.0
 11
18.82789110476326
 21
39.77014672551705
 31
0.0
  0
LINE
  5
9D
330
36
100
AcDbEntity
  8
0
  6
Continuous
 62
     0
100
AcDbLine
 10
15.47228545924215
 20
36.41454107999594
 30
0.0
 11
16.79811067396692
 21
37.74036629472071
 31
0.0
  0
LINE
  5
9E
330
36
100
AcDbEntity
  8
0
  6
Continuous
 62
     0
100
AcDbLine
 10
12.98412243371185
 20
33.92637805446564
 30
0.0
 11
14.14646024451738
 21
35.08871586527116
 31
0.0
  0
LINE
  5
9F
330
36
100
AcDbEntity
  8
0
  6
Continuous
 62
     0
100
AcDbLine
 10
15.47228545924238
 20
39.0661915094456
 30
0.0
 11
16.17624067531371
 21
39.77014672551705
 31
0.0
  0
LINE
  5
A0
330
36
100
AcDbEntity
  8
0
  6
Continuous
 62
     0
100
AcDbLine
 10
12.82063502979272
 20
36.41454107999599
 30
0.0
 11
14.14646024451749
 21
37.74036629472077
 31
0.0
  0
LINE
  5
A1
330
36
100
AcDbEntity
  8
0
  6
Continuous
 62
     0
100
AcDbLine
 10
11.42796973001773
 20
35.02187578022095
 30
0.0
 11
11.49480981506795
 21
35.08871586527122
 31
0.0
  0
LINE
  5
A2
330
36
100
AcDbEntity
  8
0
  6
Continuous
 62
     0
100
AcDbLine
 10
12.82063502979272
 20
39.0661915094456
 30
0.0
 11
13.52459024586417
 21
39.77014672551705
 31
0.0
  0
LINE
  5
A3
330
36
100
AcDbEntity
  8
0
  6
Continuous
 62
     0
100
AcDbLine
 10
10.16898460034312
 20
36.41454107999599
 30
0.0
 11
11.49480981506795
 21
37.74036629472077
 31
0.0
  0
LINE
  5
A4
330
36
100
AcDbEntity
  8
0
  6
Continuous
 62
     0
100
AcDbLine
 10
10.16898460034312
 20
39.06619150944554
 30
0.0
 11
10.87293981641468
 21
39.77014672551705
 31
0.0
  0
LINE
  5
A5
330
36
100
AcDbEntity
  8
0
  6
Continuous
 62
     0
100
AcDbLine
 10
8.315664322629084
 20
37.21287123173145
 30
0.0
 11
8.843159385618344
 21
37.74036629472071
 31
0.0
  0
LINE
  5
A6
330
36
100
AcDbEntity
  8
0
  6
Continuous
 62
     0
100
AcDbLine
 10
7.517334170893514
 20
39.06619150944548
 30
0.0
 11
8.221289386965077
 21
39.77014672551705
 31
0.0
  0
LINE
  5
A7
330
36
100
AcDbEntity
  8
0
  6
Continuous
 62
     0
100
AcDbLine
 10
59.74826480898289
 20
42.81272532861034
 30
0.0
 11
59.32969375976941
 21
43.23129637782377
 31
0.0
  0
LINE
  5
A8
330
36
100
AcDbEntity
  8
0
  6
Continuous
 62
     0
100
AcDbLine
 10
57.09661437953334
 20
42.81272532861029
 30
0.0
 11
56.67804333031974
 21
43.23129637782383
 31
0.0
  0
LINE
  5
A9
330
36
100
AcDbEntity
  8
0
  6
Continuous
 62
     0
100
AcDbLine
 10
59.41798158882013
 20
40.49135811932355
 30
0.0
 11
58.42243959425811
 21
41.48690011388551
 31
0.0
  0
LINE
  5
AA
330
36
100
AcDbEntity
  8
0
  6
Continuous
 62
     0
100
AcDbLine
 10
54.44496395008379
 20
42.81272532861029
 30
0.0
 11
54.02639290087043
 21
43.23129637782377
 31
0.0
  0
LINE
  5
AB
330
36
100
AcDbEntity
  8
0
  6
Continuous
 62
     0
100
AcDbLine
 10
57.09661437953334
 20
40.16107489916069
 30
0.0
 11
55.77078916480857
 21
41.48690011388551
 31
0.0
  0
LINE
  5
AC
330
36
100
AcDbEntity
  8
0
  6
Continuous
 62
     0
100
AcDbLine
 10
51.79331352063424
 20
42.81272532861034
 30
0.0
 11
51.37474247142066
 21
43.23129637782383
 31
0.0
  0
LINE
  5
AD
330
36
100
AcDbEntity
  8
0
  6
Continuous
 62
     0
100
AcDbLine
 10
54.44496395008379
 20
40.16107489916074
 30
0.0
 11
53.11913873535902
 21
41.48690011388557
 31
0.0
  0
LINE
  5
AE
330
36
100
AcDbEntity
  8
0
  6
Continuous
 62
     0
100
AcDbLine
 10
45.53980501778258
 20
35.80798168421406
 30
0.0
 11
45.16418744701026
 21
36.18359925498637
 31
0.0
  0
LINE
  5
AF
330
36
100
AcDbEntity
  8
0
  6
Continuous
 62
     0
100
AcDbLine
 10
46.49001266173493
 20
37.5094244697112
 30
0.0
 11
45.16418744701016
 21
38.83524968443597
 31
0.0
  0
LINE
  5
B0
330
36
100
AcDbEntity
  8
0
  6
Continuous
 62
     0
100
AcDbLine
 10
46.49001266173504
 20
40.16107489916069
 30
0.0
 11
45.16418744701026
 21
41.48690011388546
 31
0.0
  0
LINE
  5
B1
330
36
100
AcDbEntity
  8
0
  6
Continuous
 62
     0
100
AcDbLine
 10
49.14166309118471
 20
37.50942446971109
 30
0.0
 11
47.81583787645993
 21
38.83524968443591
 31
0.0
  0
LINE
  5
B2
330
36
100
AcDbEntity
  8
0
  6
Continuous
 62
     0
100
AcDbLine
 10
46.49001266173493
 20
42.81272532861029
 30
0.0
 11
46.07144161252156
 21
43.23129637782383
 31
0.0
  0
LINE
  5
B3
330
36
100
AcDbEntity
  8
0
  6
Continuous
 62
     0
100
AcDbLine
 10
49.14166309118459
 20
40.16107489916069
 30
0.0
 11
47.81583787645981
 21
41.48690011388551
 31
0.0
  0
LINE
  5
B4
330
36
100
AcDbEntity
  8
0
  6
Continuous
 62
     0
100
AcDbLine
 10
51.48759497679864
 20
37.81514301354664
 30
0.0
 11
50.46748830590936
 21
38.83524968443591
 31
0.0
  0
LINE
  5
B5
330
36
100
AcDbEntity
  8
0
  6
Continuous
 62
     0
100
AcDbLine
 10
49.14166309118447
 20
42.81272532861034
 30
0.0
 11
48.72309204197111
 21
43.23129637782383
 31
0.0
  0
LINE
  5
B6
330
36
100
AcDbEntity
  8
0
  6
Continuous
 62
     0
100
AcDbLine
 10
51.79331352063414
 20
40.16107489916074
 30
0.0
 11
50.46748830590924
 21
41.48690011388557
 31
0.0
  0
LINE
  5
B7
330
36
100
AcDbEntity
  8
0
  6
Continuous
 62
     0
100
AcDbLine
 10
53.47019162980395
 20
38.48419678999093
 30
0.0
 11
53.11913873535891
 21
38.83524968443597
 31
0.0
  0
LINE
  5
B8
330
36
100
AcDbEntity
  8
0
  6
Continuous
 62
     0
100
AcDbLine
 10
59.25108035346104
 20
42.31554087308856
 30
0.0
 11
58.33532484872582
 21
43.23129637782383
 31
0.0
  0
LINE
  5
B9
330
36
100
AcDbEntity
  8
0
  6
Continuous
 62
     0
100
AcDbLine
 10
60.6571044969485
 20
40.90951672960115
 30
0.0
 11
60.57690556818581
 21
40.98971565836373
 31
0.0
  0
LINE
  5
BA
330
36
100
AcDbEntity
  8
0
  6
Continuous
 62
     0
100
AcDbLine
 10
56.59942992401149
 20
42.31554087308856
 30
0.0
 11
55.68367441927628
 21
43.23129637782383
 31
0.0
  0
LINE
  5
BB
330
36
100
AcDbEntity
  8
0
  6
Continuous
 62
     0
100
AcDbLine
 10
58.67450784394307
 20
40.24046295315698
 30
0.0
 11
57.92525513873627
 21
40.98971565836373
 31
0.0
  0
LINE
  5
BC
330
36
100
AcDbEntity
  8
0
  6
Continuous
 62
     0
100
AcDbLine
 10
53.94777949456194
 20
42.31554087308849
 30
0.0
 11
53.03202398982673
 21
43.23129637782383
 31
0.0
  0
LINE
  5
BD
330
36
100
AcDbEntity
  8
0
  6
Continuous
 62
     0
100
AcDbLine
 10
56.59942992401149
 20
39.66389044363896
 30
0.0
 11
55.27360470928672
 21
40.98971565836373
 31
0.0
  0
LINE
  5
BE
330
36
100
AcDbEntity
  8
0
  6
Continuous
 62
     0
100
AcDbLine
 10
51.29612906511241
 20
42.31554087308849
 30
0.0
 11
50.38037356037719
 21
43.23129637782383
 31
0.0
  0
LINE
  5
BF
330
36
100
AcDbEntity
  8
0
  6
Continuous
 62
     0
100
AcDbLine
 10
53.94777949456194
 20
39.66389044363896
 30
0.0
 11
52.62195427983717
 21
40.98971565836373
 31
0.0
  0
LINE
  5
C0
330
36
100
AcDbEntity
  8
0
  6
Continuous
 62
     0
100
AcDbLine
 10
44.79633127290551
 20
35.55708651804749
 30
0.0
 11
44.66700299148853
 21
35.68641479946458
 31
0.0
  0
LINE
  5
C1
330
36
100
AcDbEntity
  8
0
  6
Continuous
 62
     0
100
AcDbLine
 10
45.99282820621331
 20
37.01224001418941
 30
0.0
 11
44.66700299148842
 21
38.33806522891418
 31
0.0
  0
LINE
  5
C2
330
36
100
AcDbEntity
  8
0
  6
Continuous
 62
     0
100
AcDbLine
 10
45.99282820621331
 20
39.6638904436389
 30
0.0
 11
44.66700299148853
 21
40.98971565836367
 31
0.0
  0
LINE
  5
C3
330
36
100
AcDbEntity
  8
0
  6
Continuous
 62
     0
100
AcDbLine
 10
48.64447863566286
 20
37.0122400141893
 30
0.0
 11
47.31865342093808
 21
38.33806522891407
 31
0.0
  0
LINE
  5
C4
330
36
100
AcDbEntity
  8
0
  6
Continuous
 62
     0
100
AcDbLine
 10
45.99282820621331
 20
42.31554087308849
 30
0.0
 11
45.07707270147786
 21
43.23129637782383
 31
0.0
  0
LINE
  5
C5
330
36
100
AcDbEntity
  8
0
  6
Continuous
 62
     0
100
AcDbLine
 10
48.64447863566286
 20
39.66389044363896
 30
0.0
 11
47.31865342093808
 21
40.98971565836373
 31
0.0
  0
LINE
  5
C6
330
36
100
AcDbEntity
  8
0
  6
Continuous
 62
     0
100
AcDbLine
 10
50.74412123192157
 20
37.56424784738012
 30
0.0
 11
49.97030385038763
 21
38.33806522891413
 31
0.0
  0
LINE
  5
C7
330
36
100
AcDbEntity
  8
0
  6
Continuous
 62
     0
100
AcDbLine
 10
48.64447863566274
 20
42.31554087308856
 30
0.0
 11
47.72872313092741
 21
43.23129637782383
 31
0.0
  0
LINE
  5
C8
330
36
100
AcDbEntity
  8
0
  6
Continuous
 62
     0
100
AcDbLine
 10
51.29612906511241
 20
39.66389044363896
 30
0.0
 11
49.97030385038763
 21
40.98971565836373
 31
0.0
  0
LINE
  5
C9
330
36
100
AcDbEntity
  8
0
  6
Continuous
 62
     0
100
AcDbLine
 10
52.72671788492701
 20
38.23330162382435
 30
0.0
 11
52.62195427983717
 21
38.33806522891418
 31
0.0
  0
LINE
  5
CA
330
36
100
AcDbEntity
  8
0
  6
Continuous
 62
     0
100
AcDbLine
 10
61.40554632738897
 20
41.81835641756665
 30
0.0
 11
60.07972111266408
 21
43.14418163229142
 31
0.0
  0
LINE
  5
CB
330
36
100
AcDbEntity
  8
0
  6
Continuous
 62
     0
100
AcDbLine
 10
58.75389589793919
 20
41.81835641756676
 30
0.0
 11
57.42807068321442
 21
43.14418163229154
 31
0.0
  0
LINE
  5
CC
330
36
100
AcDbEntity
  8
0
  6
Continuous
 62
     0
100
AcDbLine
 10
56.10224546848964
 20
41.81835641756676
 30
0.0
 11
54.77642025376487
 21
43.14418163229154
 31
0.0
  0
LINE
  5
CD
330
36
100
AcDbEntity
  8
0
  6
Continuous
 62
     0
100
AcDbLine
 10
57.93103409906612
 20
39.98956778699041
 30
0.0
 11
57.42807068321454
 21
40.49253120284199
 31
0.0
  0
LINE
  5
CE
330
36
100
AcDbEntity
  8
0
  6
Continuous
 62
     0
100
AcDbLine
 10
53.45059503904021
 20
41.81835641756671
 30
0.0
 11
52.12476982431533
 21
43.14418163229148
 31
0.0
  0
LINE
  5
CF
330
36
100
AcDbEntity
  8
0
  6
Continuous
 62
     0
100
AcDbLine
 10
55.9484374460608
 20
39.32051401054618
 30
0.0
 11
54.77642025376499
 21
40.49253120284194
 31
0.0
  0
LINE
  5
D0
330
36
100
AcDbEntity
  8
0
  6
Continuous
 62
     0
100
AcDbLine
 10
45.49564375069146
 20
36.51505555866751
 30
0.0
 11
44.16981853596669
 21
37.84088077339234
 31
0.0
  0
LINE
  5
D1
330
36
100
AcDbEntity
  8
0
  6
Continuous
 62
     0
100
AcDbLine
 10
45.49564375069146
 20
39.16670598811711
 30
0.0
 11
44.16981853596669
 21
40.49253120284188
 31
0.0
  0
LINE
  5
D2
330
36
100
AcDbEntity
  8
0
  6
Continuous
 62
     0
100
AcDbLine
 10
48.14729418014101
 20
39.16670598811711
 30
0.0
 11
46.82146896541623
 21
40.49253120284194
 31
0.0
  0
LINE
  5
D3
330
36
100
AcDbEntity
  8
0
  6
Continuous
 62
     0
100
AcDbLine
 10
50.00064748704462
 20
37.31335268121355
 30
0.0
 11
49.47311939486578
 21
37.84088077339234
 31
0.0
  0
LINE
  5
D4
330
36
100
AcDbEntity
  8
0
  6
Continuous
 62
     0
100
AcDbLine
 10
48.14729418014101
 20
41.81835641756671
 30
0.0
 11
46.82146896541623
 21
43.14418163229148
 31
0.0
  0
LINE
  5
D5
330
36
100
AcDbEntity
  8
0
  6
Continuous
 62
     0
100
AcDbLine
 10
50.79894460959056
 20
39.16670598811711
 30
0.0
 11
49.47311939486578
 21
40.49253120284194
 31
0.0
  0
LINE
  5
D6
330
36
100
AcDbEntity
  8
0
  6
Continuous
 62
     0
100
AcDbLine
 10
50.79894460959067
 20
41.81835641756671
 30
0.0
 11
49.47311939486589
 21
43.14418163229148
 31
0.0
  0
LINE
  5
D7
330
36
100
AcDbEntity
  8
0
  6
Continuous
 62
     0
100
AcDbLine
 10
53.45059503904033
 20
39.16670598811711
 30
0.0
 11
52.12476982431544
 21
40.49253120284194
 31
0.0
  0
LINE
  5
D8
330
36
100
AcDbEntity
  8
0
  6
Continuous
 62
     0
100
AcDbLine
 10
58.75389589793919
 20
41.48690011388551
 30
0.0
 11
60.07972111266397
 21
42.81272532861029
 31
0.0
  0
LINE
  5
D9
330
36
100
AcDbEntity
  8
0
  6
Continuous
 62
     0
100
AcDbLine
 10
56.91302164186495
 20
39.64602585781116
 30
0.0
 11
57.42807068321442
 21
40.16107489916069
 31
0.0
  0
LINE
  5
DA
330
36
100
AcDbEntity
  8
0
  6
Continuous
 62
     0
100
AcDbLine
 10
45.49564375069146
 20
41.48690011388551
 30
0.0
 11
46.82146896541623
 21
42.81272532861029
 31
0.0
  0
LINE
  5
DB
330
36
100
AcDbEntity
  8
0
  6
Continuous
 62
     0
100
AcDbLine
 10
44.09411301304819
 20
40.08536937624213
 30
0.0
 11
44.16981853596669
 21
40.16107489916069
 31
0.0
  0
LINE
  5
DC
330
36
100
AcDbEntity
  8
0
  6
Continuous
 62
     0
100
AcDbLine
 10
48.14729418014101
 20
41.48690011388551
 30
0.0
 11
49.47311939486578
 21
42.81272532861029
 31
0.0
  0
LINE
  5
DD
330
36
100
AcDbEntity
  8
0
  6
Continuous
 62
     0
100
AcDbLine
 10
45.49564375069146
 20
38.83524968443591
 30
0.0
 11
46.82146896541623
 21
40.16107489916069
 31
0.0
  0
LINE
  5
DE
330
36
100
AcDbEntity
  8
0
  6
Continuous
 62
     0
100
AcDbLine
 10
44.1201084550544
 20
37.45971438879879
 30
0.0
 11
44.16981853596669
 21
37.50942446971115
 31
0.0
  0
LINE
  5
DF
330
36
100
AcDbEntity
  8
0
  6
Continuous
 62
     0
100
AcDbLine
 10
50.79894460959056
 20
41.48690011388557
 30
0.0
 11
52.12476982431533
 21
42.81272532861034
 31
0.0
  0
LINE
  5
E0
330
36
100
AcDbEntity
  8
0
  6
Continuous
 62
     0
100
AcDbLine
 10
48.14729418014101
 20
38.83524968443597
 30
0.0
 11
49.47311939486578
 21
40.16107489916074
 31
0.0
  0
LINE
  5
E1
330
36
100
AcDbEntity
  8
0
  6
Continuous
 62
     0
100
AcDbLine
 10
45.49564375069146
 20
36.18359925498637
 30
0.0
 11
46.82146896541623
 21
37.5094244697112
 31
0.0
  0
LINE
  5
E2
330
36
100
AcDbEntity
  8
0
  6
Continuous
 62
     0
100
AcDbLine
 10
44.1461038970606
 20
34.83405940135551
 30
0.0
 11
44.16981853596669
 21
34.8577740402616
 31
0.0
  0
LINE
  5
E3
330
36
100
AcDbEntity
  8
0
  6
Continuous
 62
     0
100
AcDbLine
 10
53.4505950390401
 20
41.48690011388551
 30
0.0
 11
54.77642025376487
 21
42.81272532861029
 31
0.0
  0
LINE
  5
E4
330
36
100
AcDbEntity
  8
0
  6
Continuous
 62
     0
100
AcDbLine
 10
50.79894460959056
 20
38.83524968443591
 30
0.0
 11
52.12476982431533
 21
40.16107489916069
 31
0.0
  0
LINE
  5
E5
330
36
100
AcDbEntity
  8
0
  6
Continuous
 62
     0
100
AcDbLine
 10
48.90848161477403
 20
36.9447866896194
 30
0.0
 11
49.47311939486578
 21
37.50942446971115
 31
0.0
  0
LINE
  5
E6
330
36
100
AcDbEntity
  8
0
  6
Continuous
 62
     0
100
AcDbLine
 10
56.10224546848964
 20
41.48690011388557
 30
0.0
 11
57.42807068321442
 21
42.81272532861034
 31
0.0
  0
LINE
  5
E7
330
36
100
AcDbEntity
  8
0
  6
Continuous
 62
     0
100
AcDbLine
 10
53.4505950390401
 20
38.83524968443597
 30
0.0
 11
54.77642025376487
 21
40.16107489916074
 31
0.0
  0
LINE
  5
E8
330
36
100
AcDbEntity
  8
0
  6
Continuous
 62
     0
100
AcDbLine
 10
59.25108035346104
 20
40.98971565836373
 30
0.0
 11
60.57690556818581
 21
42.31554087308849
 31
0.0
  0
LINE
  5
E9
330
36
100
AcDbEntity
  8
0
  6
Continuous
 62
     0
100
AcDbLine
 10
44.0778658617942
 20
41.72640374339428
 30
0.0
 11
44.66700299148853
 21
42.31554087308849
 31
0.0
  0
LINE
  5
EA
330
36
100
AcDbEntity
  8
0
  6
Continuous
 62
     0
100
AcDbLine
 10
45.99282820621331
 20
40.98971565836373
 30
0.0
 11
47.31865342093808
 21
42.31554087308856
 31
0.0
  0
LINE
  5
EB
330
36
100
AcDbEntity
  8
0
  6
Continuous
 62
     0
100
AcDbLine
 10
44.1038613038004
 20
39.10074875595088
 30
0.0
 11
44.66700299148853
 21
39.66389044363896
 31
0.0
  0
LINE
  5
EC
330
36
100
AcDbEntity
  8
0
  6
Continuous
 62
     0
100
AcDbLine
 10
48.64447863566286
 20
40.98971565836373
 30
0.0
 11
49.97030385038763
 21
42.31554087308849
 31
0.0
  0
LINE
  5
ED
330
36
100
AcDbEntity
  8
0
  6
Continuous
 62
     0
100
AcDbLine
 10
45.99282820621331
 20
38.33806522891413
 30
0.0
 11
47.31865342093808
 21
39.66389044363896
 31
0.0
  0
LINE
  5
EE
330
36
100
AcDbEntity
  8
0
  6
Continuous
 62
     0
100
AcDbLine
 10
44.12985674580661
 20
36.47509376850754
 30
0.0
 11
44.66700299148853
 21
37.01224001418935
 31
0.0
  0
LINE
  5
EF
330
36
100
AcDbEntity
  8
0
  6
Continuous
 62
     0
100
AcDbLine
 10
51.29612906511241
 20
40.98971565836373
 30
0.0
 11
52.62195427983717
 21
42.31554087308856
 31
0.0
  0
LINE
  5
F0
330
36
100
AcDbEntity
  8
0
  6
Continuous
 62
     0
100
AcDbLine
 10
48.64447863566286
 20
38.33806522891418
 30
0.0
 11
49.97030385038763
 21
39.66389044363896
 31
0.0
  0
LINE
  5
F1
330
36
100
AcDbEntity
  8
0
  6
Continuous
 62
     0
100
AcDbLine
 10
45.99282820621331
 20
35.68641479946464
 30
0.0
 11
47.31865342093808
 21
37.01224001418941
 31
0.0
  0
LINE
  5
F2
330
36
100
AcDbEntity
  8
0
  6
Continuous
 62
     0
100
AcDbLine
 10
53.94777949456194
 20
40.98971565836367
 30
0.0
 11
55.27360470928672
 21
42.31554087308844
 31
0.0
  0
LINE
  5
F3
330
36
100
AcDbEntity
  8
0
  6
Continuous
 62
     0
100
AcDbLine
 10
51.29612906511241
 20
38.33806522891407
 30
0.0
 11
52.62195427983717
 21
39.6638904436389
 31
0.0
  0
LINE
  5
F4
330
36
100
AcDbEntity
  8
0
  6
Continuous
 62
     0
100
AcDbLine
 10
56.59942992401149
 20
40.98971565836373
 30
0.0
 11
57.92525513873627
 21
42.31554087308849
 31
0.0
  0
LINE
  5
F5
330
36
100
AcDbEntity
  8
0
  6
Continuous
 62
     0
100
AcDbLine
 10
54.41160288339895
 20
38.80188861775124
 30
0.0
 11
55.27360470928672
 21
39.66389044363896
 31
0.0
  0
LINE
  5
F6
330
36
100
AcDbEntity
  8
0
  6
Continuous
 62
     0
100
AcDbLine
 10
59.91472415202397
 20
40.65899054588308
 30
0.0
 11
61.07409002370766
 21
41.81835641756671
 31
0.0
  0
LINE
  5
F7
330
36
100
AcDbEntity
  8
0
  6
Continuous
 62
     0
100
AcDbLine
 10
46.49001266173504
 20
43.14418163229148
 30
0.0
 11
46.57712740726744
 21
43.23129637782383
 31
0.0
  0
LINE
  5
F8
330
36
100
AcDbEntity
  8
0
  6
Continuous
 62
     0
100
AcDbLine
 10
44.08761415254664
 20
40.74178312310302
 30
0.0
 11
45.16418744701026
 21
41.81835641756671
 31
0.0
  0
LINE
  5
F9
330
36
100
AcDbEntity
  8
0
  6
Continuous
 62
     0
100
AcDbLine
 10
49.14166309118471
 20
43.14418163229148
 30
0.0
 11
49.22877783671699
 21
43.23129637782383
 31
0.0
  0
LINE
  5
FA
330
36
100
AcDbEntity
  8
0
  6
Continuous
 62
     0
100
AcDbLine
 10
46.49001266173504
 20
40.49253120284194
 30
0.0
 11
47.81583787645993
 21
41.81835641756671
 31
0.0
  0
LINE
  5
FB
330
36
100
AcDbEntity
  8
0
  6
Continuous
 62
     0
100
AcDbLine
 10
44.11360959455285
 20
38.11612813565963
 30
0.0
 11
45.16418744701026
 21
39.16670598811711
 31
0.0
  0
LINE
  5
FC
330
36
100
AcDbEntity
  8
0
  6
Continuous
 62
     0
100
AcDbLine
 10
51.79331352063424
 20
43.14418163229154
 30
0.0
 11
51.88042826616654
 21
43.23129637782383
 31
0.0
  0
LINE
  5
FD
330
36
100
AcDbEntity
  8
0
  6
Continuous
 62
     0
100
AcDbLine
 10
49.14166309118471
 20
40.49253120284199
 30
0.0
 11
50.46748830590948
 21
41.81835641756676
 31
0.0
  0
LINE
  5
FE
330
36
100
AcDbEntity
  8
0
  6
Continuous
 62
     0
100
AcDbLine
 10
46.49001266173516
 20
37.8408807733924
 30
0.0
 11
47.81583787645993
 21
39.16670598811716
 31
0.0
  0
LINE
  5
FF
330
36
100
AcDbEntity
  8
0
  6
Continuous
 62
     0
100
AcDbLine
 10
43.90564409784226
 20
35.2565122094995
 30
0.0
 11
45.16418744701038
 21
36.51505555866762
 31
0.0
  0
LINE
  5
100
330
36
100
AcDbEntity
  8
0
  6
Continuous
 62
     0
100
AcDbLine
 10
54.44496395008379
 20
43.14418163229154
 30
0.0
 11
54.53207869561609
 21
43.23129637782383
 31
0.0
  0
LINE
  5
101
330
36
100
AcDbEntity
  8
0
  6
Continuous
 62
     0
100
AcDbLine
 10
51.79331352063424
 20
40.49253120284199
 30
0.0
 11
53.11913873535902
 21
41.81835641756676
 31
0.0
  0
LINE
  5
102
330
36
100
AcDbEntity
  8
0
  6
Continuous
 62
     0
100
AcDbLine
 10
49.14166309118471
 20
37.8408807733924
 30
0.0
 11
50.46748830590948
 21
39.16670598811716
 31
0.0
  0
LINE
  5
103
330
36
100
AcDbEntity
  8
0
  6
Continuous
 62
     0
100
AcDbLine
 10
57.09661437953334
 20
43.14418163229148
 30
0.0
 11
57.18372912506563
 21
43.23129637782383
 31
0.0
  0
LINE
  5
104
330
36
100
AcDbEntity
  8
0
  6
Continuous
 62
     0
100
AcDbLine
 10
54.44496395008368
 20
40.49253120284194
 30
0.0
 11
55.77078916480857
 21
41.81835641756671
 31
0.0
  0
LINE
  5
105
330
36
100
AcDbEntity
  8
0
  6
Continuous
 62
     0
100
AcDbLine
 10
51.91018412493306
 20
37.95775137769132
 30
0.0
 11
53.11913873535891
 21
39.16670598811711
 31
0.0
  0
LINE
  5
106
330
36
100
AcDbEntity
  8
0
  6
Continuous
 62
     0
100
AcDbLine
 10
59.74826480898289
 20
43.14418163229142
 30
0.0
 11
59.83537955451518
 21
43.23129637782377
 31
0.0
  0
LINE
  5
107
330
36
100
AcDbEntity
  8
0
  6
Continuous
 62
     0
100
AcDbLine
 10
57.09661437953323
 20
40.49253120284188
 30
0.0
 11
58.422439594258
 21
41.81835641756665
 31
0.0
  0
LINE
  5
108
330
36
100
AcDbEntity
  8
0
  6
Continuous
100
AcDbLine
 10
43.04894068246201
 20
45.85964298125886
 30
0.0
 11
43.04894068246201
 21
43.23464298125887
 31
0.0
  0
LINE
  5
109
330
36
100
AcDbEntity
  8
0
  6
Continuous
100
AcDbLine
 10
75.51247276005804
 20
43.23464298125897
 30
0.0
 11
43.04894068246201
 21
43.23464298125887
 31
0.0
  0
LINE
  5
10A
330
36
100
AcDbEntity
  8
0
  6
Continuous
100
AcDbLine
 10
75.52185384389098
 20
45.85964298125892
 30
0.0
 11
19.89106622493219
 21
45.85964298125886
 31
0.0
  0
TEXT
  5
10B
330
36
100
AcDbEntity
  8
0
  6
Continuous
100
AcDbText
 10
29.30596977522352
 20
1.437428939369512
 30
0.0
 40
1.0
  1
24"
 51
15.0
  7
M5
100
AcDbText
  0
TEXT
  5
10C
330
36
100
AcDbEntity
  8
0
  6
Continuous
100
AcDbText
 10
1.275
 20
29.74261739185729
 30
0.0
 40
1.0
  1
24"
 50
90.0
 51
15.0
  7
M5
100
AcDbText
  0
LINE
  5
10D
330
36
100
AcDbEntity
  8
0
100
AcDbLine
 10
0.7205049745686778
 20
39.73799937313454
 30
0.0
 11
19.89499063714114
 21
39.73799937313452
 31
0.0
  0
LINE
  5
10E
330
36
100
AcDbEntity
  8
0
100
AcDbLine
 10
19.89499063714114
 20
45.85964298125886
 30
0.0
 11
19.89499063714114
 21
15.70255475800287
 31
0.0
  0
LINE
  5
10F
330
36
100
AcDbEntity
  8
0
100
AcDbLine
 10
20.08461507102819
 20
15.70255475800287
 30
0.0
 11
44.08461507102819
 21
15.70255475800287
 31
0.0
  0
LINE
  5
110
330
36
100
AcDbEntity
  8
0
100
AcDbLine
 10
44.08461507102819
 20
15.70255475800287
 30
0.0
 11
44.08461507102819
 21
43.23464298125887
 31
0.0
  0
LINE
  5
111
330
36
100
AcDbEntity
  8
0
100
AcDbLine
 10
2.529561283958224
 20
45.7871599303945
 30
0.0
 11
2.529561283958224
 21
15.67809268388124
 31
0.0
  0
LINE
  5
112
330
36
100
AcDbEntity
  8
0
100
AcDbLine
 10
19.01207432506276
 20
15.67809268388124
 30
0.0
 11
0.7205049745686778
 21
15.67809268388124
 31
0.0
  0
LINE
  5
113
330
36
100
AcDbEntity
  8
0
100
AcDbLine
 10
19.81609935145811
 20
14.47208555435192
 30
0.0
 11
19.81609935145811
 21
0.0
 31
0.0
  0
LINE
  5
114
330
36
100
AcDbEntity
  8
0
100
AcDbLine
 10
19.81609935145811
 20
1.005005941274433
 30
0.0
 11
43.93685014331844
 21
1.005005941274433
 31
0.0
  0
LINE
  5
115
330
36
100
AcDbEntity
  8
0
100
AcDbLine
 10
43.93685014331844
 20
0.0
 30
0.0
 11
43.93685014331844
 21
15.07508911911657
 31
0.0
  0
TEXT
  5
116
330
36
100
AcDbEntity
  8
0
100
AcDbText
 10
1.761669460286577
 20
41.48065495880585
 30
0.0
 40
1.0
  1
6"
 50
90.0
 51
15.0
  7
M5
100
AcDbText
  0
LINE
  5
117
330
36
100
AcDbEntity
  8
0
100
AcDbLine
 10
54.85114164535815
 20
52.36315545823828
 30
0.0
 11
58.22756411513015
 21
52.36315545823828
 31
0.0
  0
LINE
  5
118
330
36
100
AcDbEntity
  8
0
100
AcDbLine
 10
56.69450424068164
 20
45.38789322454512
 30
0.0
 11
54.79052611111781
 21
52.36315545823828
 31
0.0
  0
SOLID
  5
119
330
36
100
AcDbEntity
  8
0
100
AcDbTrace
 10
56.8070533248846
 20
45.41861479280242
 30
0.0
 11
56.58195515647868
 21
45.35717165628784
 31
0.0
 12
56.87883365022535
 22
44.71259871932739
 32
0.0
 13
56.87883365022535
 23
44.71259871932739
 33
0.0
  0
LINE
  5
11A
330
36
100
AcDbEntity
  8
0
100
AcDbLine
 10
27.0612861132298
 20
88.37909452941978
 30
0.0
 11
31.86763315103651
 21
88.3790945294198
 31
0.0
  0
LINE
  5
11B
330
36
100
AcDbEntity
  8
0
100
AcDbLine
 10
26.56912924337063
 20
86.34149048082806
 30
0.0
 11
27.00609095025493
 21
88.37909452941978
 31
0.0
  0
LINE
  5
11C
330
36
100
AcDbEntity
  8
0
100
AcDbLine
 10
25.46522598387343
 20
90.19132025209506
 30
0.0
 11
26.56912924337063
 21
86.34149048082806
 31
0.0
  0
LINE
  5
11D
330
36
100
AcDbEntity
  8
0
100
AcDbLine
 10
25.02826427698912
 20
88.26870514529742
 30
0.0
 11
25.46522598387343
 21
90.19132025209506
 31
0.0
  0
LINE
  5
11E
330
36
100
AcDbEntity
  8
0
100
AcDbLine
 10
19.89106622493219
 20
88.37909452941978
 30
0.0
 11
19.89106622493219
 21
45.85964298125886
 31
0.0
  0
LINE
  5
11F
330
36
100
AcDbEntity
  8
0
100
AcDbLine
 10
31.86763315103651
 20
45.85964298125887
 30
0.0
 11
31.86763315103651
 21
88.37909452941978
 31
0.0
  0
LINE
  5
120
330
36
100
AcDbEntity
  8
0
100
AcDbLine
 10
19.89106622493219
 20
88.37909452941978
 30
0.0
 11
25.05335298743224
 21
88.3790945294198
 31
0.0
  0
TEXT
  5
121
330
36
100
AcDbEntity
  8
0
100
AcDbText
 10
2.733212897088289
 20
55.15220776731104
 30
0.0
 40
1.0
  1
2 - #5's
 51
15.0
  7
M5
100
AcDbText
  0
INSERT
  5
122
330
36
100
AcDbEntity
  8
0
100
AcDbBlockReference
  2
RB
 10
22.14408896309262
 20
49.98966564077161
 30
0.0
  0
INSERT
  5
123
330
36
100
AcDbEntity
  8
0
100
AcDbBlockReference
  2
RB
 10
29.61660663691103
 20
49.98966564077161
 30
0.0
  0
LINE
  5
124
330
36
100
AcDbEntity
  8
0
100
AcDbLine
 10
11.92643984349376
 20
50.00307140877593
 30
0.0
 11
29.87229231351419
 21
50.00307140877593
 31
0.0
  0
LWPOLYLINE
  5
125
330
36
100
AcDbEntity
  8
0
100
AcDbPolyline
 90
        2
 70
     0
 43
0.25
 10
21.60729871270227
 20
46.15915989086708
 10
21.60729871270227
 20
88.37909452941978
  0
LWPOLYLINE
  5
129
330
36
100
AcDbEntity
  8
0
100
AcDbPolyline
 90
        2
 70
     0
 43
0.15
 10
22.64774134921895
 20
69.23931522290036
 10
22.64774134921895
 20
18.99367833753064
  0
LWPOLYLINE
  5
12D
330
36
100
AcDbEntity
  8
0
100
AcDbPolyline
 90
        2
 70
     0
 43
0.15
 10
22.64315326005636
 20
18.9904255498015
 42
0.4142135623730951
 10
23.64315326005636
 20
17.9904255498015
 42
0.4142135623730951
  0
INSERT
  5
131
330
36
100
AcDbEntity
  8
0
100
AcDbBlockReference
  2
RB
 10
23.39431595166528
 20
19.0399732032546
 30
0.0
  0
INSERT
  5
132
330
36
100
AcDbEntity
  8
0
100
AcDbBlockReference
  2
RB
 10
28.25136370821736
 20
19.10491309942465
 30
0.0
  0
LINE
  5
133
330
36
100
AcDbEntity
  8
0
100
AcDbLine
 10
21.70427696439346
 20
19.10884237378082
 30
0.0
 11
49.19537519596831
 21
19.10884237378082
 31
0.0
  0
TEXT
  5
134
330
36
100
AcDbEntity
  8
0
100
AcDbText
 10
52.24640324956382
 20
13.84413940996695
 30
0.0
 40
1.0
  1
2 - #5's
 51
15.0
  7
M5
100
AcDbText
  0
SOLID
  5
135
330
36
100
AcDbEntity
  8
0
100
AcDbTrace
 10
47.80668323750948
 20
18.46704658958912
 30
0.0
 11
47.98638682614543
 21
18.58808817201352
 31
0.0
 12
47.53341028455425
 22
19.06667814670919
 32
0.0
 13
47.53341028455425
 23
19.06667814670919
 33
0.0
  0
LINE
  5
136
330
36
100
AcDbEntity
  8
0
100
AcDbLine
 10
47.89653503182745
 20
18.52756738080132
 30
0.0
 11
50.60732091454899
 21
14.50301696274151
 31
0.0
  0
LINE
  5
137
330
36
100
AcDbEntity
  8
0
100
AcDbLine
 10
50.60732091454898
 20
14.50301696274151
 30
0.0
 11
52.01253720254658
 21
14.50301696274151
 31
0.0
  0
LINE
  5
138
330
36
100
AcDbEntity
  8
0
100
AcDbLine
 10
22.61327973312067
 20
18.04344345685829
 30
0.0
 11
8.164273364404637
 21
18.04344345685829
 31
0.0
  0
LINE
  5
139
330
36
100
AcDbEntity
  8
0
100
AcDbLine
 10
9.192163056551029
 20
18.04344345685829
 30
0.0
 11
9.192163056551029
 21
9.306455616418386
 31
0.0
  0
TEXT
  5
13A
330
36
100
AcDbEntity
  8
0
100
AcDbText
 10
8.505818989959609
 20
9.365005795542703
 30
0.0
 40
1.0
  1
3" CLR.
 50
90.0
 51
15.0
  7
M5
100
AcDbText
  0
TEXT
  5
13B
330
36
100
AcDbEntity
  8
0
100
AcDbText
 10
40.06463479123897
 20
72.39358975770854
 30
0.0
 40
1.0
  1
VERTICAL 
 51
15.0
  7
M5
100
AcDbText
  0
TEXT
  5
13C
330
36
100
AcDbEntity
  8
0
100
AcDbText
 10
40.06463479123897
 20
70.70608975770854
 30
0.0
 40
1.0
  1
REINFORCEMENT
 51
15.0
  7
M5
100
AcDbText
  0
TEXT
  5
13D
330
36
100
AcDbEntity
  8
0
100
AcDbText
 10
1.291074252046017
 20
65.91217747639055
 30
0.0
 40
1.0
  1
FOUNDATION
 51
15.0
  7
M5
100
AcDbText
  0
TEXT
  5
13E
330
36
100
AcDbEntity
  8
0
100
AcDbText
 10
1.291074252046017
 20
64.22467747639055
 30
0.0
 40
1.0
  1
DOWELS
 51
15.0
  7
M5
100
AcDbText
  0
LINE
  5
13F
330
36
100
AcDbEntity
  8
0
  6
Continuous
 62
     0
100
AcDbLine
 10
31.67691590949237
 20
14.39865414709547
 30
0.0
 11
31.70845637923746
 21
14.43019461684057
 31
0.0
  0
LINE
  5
140
330
36
100
AcDbEntity
  8
0
  6
Continuous
 62
     0
100
AcDbLine
 10
2.422407074695159
 20
41.19526872073854
 30
0.0
 11
2.466938679578377
 21
41.23980032562175
 31
0.0
  0
ARC
  5
141
330
36
100
AcDbEntity
  8
0
  6
Continuous
100
AcDbCircle
 10
24.60498512976476
 20
42.28053584640834
 30
0.0
 40
0.1995
100
AcDbArc
 50
204.4452341408956
 51
295.2764109761544
  0
TEXT
  5
142
330
36
100
AcDbEntity
  8
0
  6
Continuous
100
AcDbText
 10
58.77336914035709
 20
51.77850151582984
 30
0.0
 40
1.0
  1
WWF 6X6 - 10/10
 51
15.0
  7
M5
100
AcDbText
  0
LWPOLYLINE
  5
143
330
36
100
AcDbEntity
  8
0
100
AcDbPolyline
 90
        2
 70
     0
 43
0.25
 10
30.16746857885977
 20
46.15915989086708
 10
30.16746857885977
 20
88.37909452941978
  0
INSERT
  5
147
330
36
100
AcDbEntity
  8
0
100
AcDbBlockReference
  2
RB
 10
29.61660663691103
 20
65.98966564077162
 30
0.0
  0
INSERT
  5
148
330
36
100
AcDbEntity
  8
0
100
AcDbBlockReference
  2
RB
 10
22.14408896309262
 20
65.98966564077162
 30
0.0
  0
INSERT
  5
149
330
36
100
AcDbEntity
  8
0
100
AcDbBlockReference
  2
RB
 10
29.61660663691103
 20
81.98966564077162
 30
0.0
  0
INSERT
  5
14A
330
36
100
AcDbEntity
  8
0
100
AcDbBlockReference
  2
RB
 10
22.14408896309262
 20
81.98966564077162
 30
0.0
  0
LWPOLYLINE
  5
14B
330
36
100
AcDbEntity
  8
0
100
AcDbPolyline
 90
        2
 70
     0
 43
0.15
 10
29.10952993570956
 20
19.50744317105234
 42
-0.4142135623730951
 10
28.10952993570956
 20
18.50744317105234
 42
-0.4142135623730951
  0
LWPOLYLINE
  5
14F
330
36
100
AcDbEntity
  8
0
100
AcDbPolyline
 90
        2
 70
     0
 43
0.15
 10
29.1142363356121
 20
69.23931522290036
 10
29.1142363356121
 20
19.51690423123308
  0
LWPOLYLINE
  5
153
330
36
100
AcDbEntity
  8
0
100
AcDbPolyline
 90
        2
 70
     0
 43
0.15
 10
21.71346446414414
 20
18.50520405802782
 10
28.13844311635176
 20
18.50520405802782
  0
LWPOLYLINE
  5
157
330
36
100
AcDbEntity
  8
0
100
AcDbPolyline
 90
        2
 70
     0
 43
0.15
 10
23.64866376316912
 20
17.99593600589979
 10
41.05427891074546
 20
17.99593600589979
  0
SOLID
  5
15B
330
36
100
AcDbEntity
  8
0
100
AcDbTrace
 10
17.45248759589702
 20
50.16823171109014
 30
0.0
 11
17.40449914905546
 21
50.1322163120262
 31
0.0
 12
17.53653956966805
 22
50.00625867103349
 32
0.0
 13
17.53653956966805
 23
50.00625867103349
 33
0.0
  0
LINE
  5
15C
330
36
100
AcDbEntity
  8
0
100
AcDbLine
 10
17.42849337247624
 20
50.15022401155817
 30
0.0
 11
13.35957821019768
 21
55.57181933030429
 31
0.0
  0
LINE
  5
15D
330
36
100
AcDbEntity
  8
0
100
AcDbLine
 10
13.35957821019769
 20
55.5718193303043
 30
0.0
 11
13.17957821019769
 21
55.5718193303043
 31
0.0
  0
SOLID
  5
15E
330
36
100
AcDbEntity
  8
0
100
AcDbTrace
 10
28.92654455412738
 20
55.59206713426164
 30
0.0
 11
28.89526625386093
 21
55.54086490840727
 31
0.0
 12
29.06451208155726
 22
55.47263112053512
 32
0.0
 13
29.06451208155726
 23
55.47263112053512
 33
0.0
  0
LINE
  5
15F
330
36
100
AcDbEntity
  8
0
100
AcDbLine
 10
28.91090540399415
 20
55.56646602133446
 30
0.0
 11
12.96282198607913
 21
65.30879525597907
 31
0.0
  0
LINE
  5
160
330
36
100
AcDbEntity
  8
0
100
AcDbLine
 10
12.96282198607913
 20
65.30879525597907
 30
0.0
 11
10.18001791413647
 21
65.30879525597907
 31
0.0
  0
SOLID
  5
161
330
36
100
AcDbEntity
  8
0
100
AcDbTrace
 10
22.21063501478374
 20
55.13062496343102
 30
0.0
 11
22.16600749586923
 21
55.09052029343442
 31
0.0
 12
22.30863526531626
 22
54.9766900716892
 32
0.0
 13
22.30863526531626
 23
54.9766900716892
 33
0.0
  0
LINE
  5
162
330
36
100
AcDbEntity
  8
0
100
AcDbLine
 10
22.18832125532649
 20
55.11057262843272
 30
0.0
 11
13.09769514339395
 21
65.22640424578401
 31
0.0
  0
SOLID
  5
163
330
36
100
AcDbEntity
  8
0
100
AcDbTrace
 10
21.95914566427285
 20
78.14412388742429
 30
0.0
 11
21.98053655970524
 21
78.20018126510645
 31
0.0
 12
21.80166897894256
 22
78.23632526256253
 32
0.0
 13
21.80166897894256
 23
78.23632526256253
 33
0.0
  0
LINE
  5
164
330
36
100
AcDbEntity
  8
0
100
AcDbLine
 10
21.96984111198904
 20
78.17215257626537
 30
0.0
 11
37.78763850905278
 21
72.13625036175781
 31
0.0
  0
LINE
  5
165
330
36
100
AcDbEntity
  8
0
100
AcDbLine
 10
37.78763850905278
 20
72.1362503617578
 30
0.0
 11
39.80999315143486
 21
72.13625036175779
 31
0.0
  0
SOLID
  5
166
330
36
100
AcDbEntity
  8
0
100
AcDbTrace
 10
30.32541350596986
 20
63.6156435993915
 30
0.0
 11
30.28066015708186
 21
63.65560780541775
 31
0.0
 12
30.18314421344709
 22
63.50136565574063
 32
0.0
 13
30.18314421344709
 23
63.50136565574063
 33
0.0
  0
LINE
  5
167
330
36
100
AcDbEntity
  8
0
100
AcDbLine
 10
30.30303683152586
 20
63.63562570240463
 30
0.0
 11
37.89399312148911
 21
72.13625036175779
 31
0.0
  0
LINE
  5
168
330
36
100
AcDbEntity
  8
0
100
AcDbLine
 10
38.7354450444471
 20
73.07853835456502
 30
0.0
 11
38.9154450444471
 21
73.07853835456502
 31
0.0
  0
TEXT
  5
169
330
36
100
AcDbEntity
  8
0
100
AcDbText
 10
38.77073461806176
 20
64.09994985385779
 30
0.0
 40
1.0
  1
10" CONCRTE WALL
 51
15.0
  7
M5
100
AcDbText
  0
SOLID
  5
16A
330
36
100
AcDbEntity
  8
0
100
AcDbTrace
 10
32.15781677489843
 20
57.85183175752224
 30
0.0
 11
31.96989101048256
 21
57.99013704127219
 31
0.0
 12
31.64893804144065
 22
57.35720710614959
 32
0.0
 13
31.64893804144065
 23
57.35720710614959
 33
0.0
  0
LINE
  5
16B
330
36
100
AcDbEntity
  8
0
100
AcDbLine
 10
32.0638538926905
 20
57.92098439939722
 30
0.0
 11
36.91697901723705
 21
64.5152895778256
 31
0.0
  0
LINE
  5
16C
330
36
100
AcDbEntity
  8
0
100
AcDbLine
 10
36.91697901723705
 20
64.5152895778256
 30
0.0
 11
38.4103253607944
 21
64.41059091195812
 31
0.0
  0
INSERT
  5
16D
330
36
100
AcDbEntity
  8
0
100
AcDbBlockReference
  2
T
 10
2.529561283958224
 20
45.78715993039449
 30
0.0
  0
INSERT
  5
16E
330
36
100
AcDbEntity
  8
0
100
AcDbBlockReference
  2
T
 10
2.529561283958224
 20
39.73799937313454
 30
0.0
  0
INSERT
  5
16F
330
36
100
AcDbEntity
  8
0
100
AcDbBlockReference
  2
T
 10
2.529561283958225
 20
15.67809268388124
 30
0.0
  0
INSERT
  5
170
330
36
100
AcDbEntity
  8
0
100
AcDbBlockReference
  2
T
 10
9.192163056551029
 20
18.04344345685829
 30
0.0
  0
INSERT
  5
171
330
36
100
AcDbEntity
  8
0
100
AcDbBlockReference
  2
T
 10
9.192163056551029
 20
15.67809268388124
 30
0.0
  0
INSERT
  5
172
330
36
100
AcDbEntity
  8
0
100
AcDbBlockReference
  2
T
 10
19.81609935145811
 20
1.005005941274433
 30
0.0
  0
INSERT
  5
173
330
36
100
AcDbEntity
  8
0
100
AcDbBlockReference
  2
T
 10
43.93685014331844
 20
1.005005941274433
 30
0.0
  0
ENDSEC
  0
SECTION
  2
OBJECTS
  0
DICTIONARY
  5
C
330
0
100
AcDbDictionary
281
     1
  3
ACAD_COLOR
350
2F
  3
ACAD_GROUP
350
D
  3
ACAD_LAYOUT
350
2E
  3
ACAD_MATERIAL
350
10
  3
ACAD_MLINESTYLE
350
2B
  3
ACAD_PLOTSETTINGS
350
2D
  3
ACAD_PLOTSTYLENAME
350
E
  3
ACAD_TABLESTYLE
350
30
  3
ACAD_VISUALSTYLE
350
14
  3
AcDbVariableDictionary
350
177
  3
DWGPROPS
350
17D
  0
DICTIONARY
  5
2F
102
{ACAD_REACTORS
330
C
102
}
330
C
100
AcDbDictionary
281
     1
  0
DICTIONARY
  5
D
102
{ACAD_REACTORS
330
C
102
}
330
C
100
AcDbDictionary
281
     1
  0
DICTIONARY
  5
2E
102
{ACAD_REACTORS
330
C
102
}
330
C
100
AcDbDictionary
281
     1
  3
Layout1
350
35
  3
Model
350
39
  0
DICTIONARY
  5
10
102
{ACAD_REACTORS
330
C
102
}
330
C
100
AcDbDictionary
281
     1
  3
ByBlock
350
12
  3
ByLayer
350
11
  3
Global
350
13
  0
DICTIONARY
  5
2B
102
{ACAD_REACTORS
330
C
102
}
330
C
100
AcDbDictionary
281
     1
  3
Standard
350
2C
  0
DICTIONARY
  5
2D
102
{ACAD_REACTORS
330
C
102
}
330
C
100
AcDbDictionary
281
     1
  0
ACDBDICTIONARYWDFLT
  5
E
102
{ACAD_REACTORS
330
C
102
}
330
C
100
AcDbDictionary
281
     1
  3
Normal
350
F
100
AcDbDictionaryWithDefault
340
F
  0
DICTIONARY
  5
30
102
{ACAD_REACTORS
330
C
102
}
330
C
100
AcDbDictionary
281
     1
  3
Standard
350
31
  0
DICTIONARY
  5
14
102
{ACAD_REACTORS
330
C
102
}
330
C
100
AcDbDictionary
281
     1
  3
2dWireframe
350
1A
  3
3D Hidden
350
1C
  3
3dWireframe
350
1B
  3
Basic
350
19
  3
Brighten
350
20
  3
ColorChange
350
24
  3
Conceptual
350
1D
  3
Dim
350
1F
  3
Facepattern
350
23
  3
Flat
350
15
  3
FlatWithEdges
350
16
  3
Gouraud
350
17
  3
GouraudWithEdges
350
18
  3
Linepattern
350
22
  3
Realistic
350
1E
  3
Thicken
350
21
  0
DICTIONARY
  5
177
102
{ACAD_REACTORS
330
C
102
}
330
C
100
AcDbDictionary
281
     1
  3
CTABLESTYLE
350
178
  3
DIMASSOC
350
17C
  3
HIDETEXT
350
17B
  3
INDEXCTL
350
17A
  3
SORTENTS
350
179
  0
XRECORD
  5
17D
102
{ACAD_REACTORS
330
C
102
}
330
C
100
AcDbXrecord
280
     1
  1
DWGPROPS COOKIE
  2

  3

  4

  6

  7

  8
rhhppc32
  9

300
=
301
=
302
=
303
=
304
=
305
=
306
=
307
=
308
=
309
=
 40
0.0014348611111111
 41
2448895.879556018
 42
2458765.832335752
  1

 90
        0
  0
LAYOUT
  5
35
102
{ACAD_XDICTIONARY
360
186
102
}
102
{ACAD_REACTORS
330
2E
102
}
330
2E
100
AcDbPlotSettings
  1

  2
\\RHH-PC-I7\Canon Inkjet MP530 Series
  4

  6

 40
0.0
 41
0.0
 42
0.0
 43
0.0
 44
0.0
 45
0.0
 46
0.0
 47
0.0
 48
0.0
 49
0.0
140
0.0
141
0.0
142
1.0
143
1.0
 70
   688
 72
     0
 73
     0
 74
     5
  7

 75
    16
147
1.0
148
0.0
149
0.0
100
AcDbLayout
  1
Layout1
 70
     0
 71
     1
 10
0.0
 20
0.0
 11
12.0
 21
9.0
 12
0.0
 22
0.0
 32
0.0
 14
1.000000000000000E+20
 24
1.000000000000000E+20
 34
1.000000000000000E+20
 15
-1.000000000000000E+20
 25
-1.000000000000000E+20
 35
-1.000000000000000E+20
146
0.0
 13
0.0
 23
0.0
 33
0.0
 16
1.0
 26
0.0
 36
0.0
 17
0.0
 27
1.0
 37
0.0
 76
     0
330
32
  0
LAYOUT
  5
39
102
{ACAD_XDICTIONARY
360
188
102
}
102
{ACAD_REACTORS
330
2E
102
}
330
2E
100
AcDbPlotSettings
  1

  2
\\RHH-PC-I7\Canon Inkjet MP530 Series
  4

  6

 40
0.0
 41
0.0
 42
0.0
 43
0.0
 44
0.0
 45
0.0
 46
0.0
 47
0.0
 48
0.0
 49
0.0
140
0.0
141
0.0
142
1.0
143
1.0
 70
  1712
 72
     0
 73
     0
 74
     0
  7

 75
     0
147
1.0
148
0.0
149
0.0
100
AcDbLayout
  1
Model
 70
     1
 71
     0
 10
0.0
 20
0.0
 11
12.0
 21
9.0
 12
0.0
 22
0.0
 32
0.0
 14
0.0
 24
0.0
 34
0.0
 15
0.0
 25
0.0
 35
0.0
146
0.0
 13
0.0
 23
0.0
 33
0.0
 16
1.0
 26
0.0
 36
0.0
 17
0.0
 27
1.0
 37
0.0
 76
     0
330
36
331
41
  0
MATERIAL
  5
12
102
{ACAD_XDICTIONARY
360
180
102
}
102
{ACAD_REACTORS
330
10
102
}
330
10
100
AcDbMaterial
  1
ByBlock
  0
MATERIAL
  5
11
102
{ACAD_XDICTIONARY
360
17E
102
}
102
{ACAD_REACTORS
330
10
102
}
330
10
100
AcDbMaterial
  1
ByLayer
  0
MATERIAL
  5
13
102
{ACAD_XDICTIONARY
360
182
102
}
102
{ACAD_REACTORS
330
10
102
}
330
10
100
AcDbMaterial
  1
Global
  0
MLINESTYLE
  5
2C
102
{ACAD_REACTORS
330
2B
102
}
330
2B
100
AcDbMlineStyle
  2
STANDARD
 70
     0
  3

 62
   256
 51
90.0
 52
90.0
 71
     2
 49
0.5
 62
   256
  6
BYLAYER
 49
-0.5
 62
   256
  6
BYLAYER
  0
ACDBPLACEHOLDER
  5
F
102
{ACAD_REACTORS
330
E
102
}
330
E
  0
TABLESTYLE
  5
31
102
{ACAD_XDICTIONARY
360
184
102
}
102
{ACAD_REACTORS
330
30
102
}
330
30
100
AcDbTableStyle
  3
Standard
 70
     0
 71
     0
 40
0.06
 41
0.06
280
     0
281
     0
  7
STANDARD
140
0.18
170
     2
 62
     0
 63
     7
283
     0
274
    -2
284
     1
 64
     0
275
    -2
285
     1
 65
     0
276
    -2
286
     1
 66
     0
277
    -2
287
     1
 67
     0
278
    -2
288
     1
 68
     0
279
    -2
289
     1
 69
     0
  7
STANDARD
140
0.25
170
     5
 62
     0
 63
     7
283
     0
274
    -2
284
     1
 64
     0
275
    -2
285
     1
 65
     0
276
    -2
286
     1
 66
     0
277
    -2
287
     1
 67
     0
278
    -2
288
     1
 68
     0
279
    -2
289
     1
 69
     0
  7
STANDARD
140
0.18
170
     5
 62
     0
 63
     7
283
     0
274
    -2
284
     1
 64
     0
275
    -2
285
     1
 65
     0
276
    -2
286
     1
 66
     0
277
    -2
287
     1
 67
     0
278
    -2
288
     1
 68
     0
279
    -2
289
     1
 69
     0
  0
VISUALSTYLE
  5
1A
102
{ACAD_REACTORS
330
14
102
}
330
14
100
AcDbVisualStyle
  2
2dWireframe
 70
     4
 71
     0
 72
     2
 73
     0
 90
        0
 40
-0.6
 41
-30.0
 62
     5
 63
     7
 74
     1
 91
        4
 64
     7
 65
   257
 75
     1
175
     1
 42
1.0
 92
        0
 66
   257
 43
1.0
 76
     1
 77
     6
 78
     2
 67
     7
 79
     5
170
     0
171
     0
290
     0
174
     0
 93
        1
 44
0.0
173
     0
291
     0
 45
0.0
1001
ACAD
1000
AcDbSavedByObjectVersion
1070
     0
  0
VISUALSTYLE
  5
1C
102
{ACAD_REACTORS
330
14
102
}
330
14
100
AcDbVisualStyle
  2
3D Hidden
 70
     6
 71
     1
 72
     2
 73
     2
 90
        0
 40
-0.6
 41
-30.0
 62
     5
 63
     7
 74
     2
 91
        2
 64
     7
 65
   257
 75
     2
175
     1
 42
40.0
 92
        0
 66
   257
 43
1.0
 76
     1
 77
     6
 78
     2
 67
     7
 79
     3
170
     0
171
     0
290
     0
174
     0
 93
        1
 44
0.0
173
     0
291
     0
 45
0.0
1001
ACAD
1000
AcDbSavedByObjectVersion
1070
     0
  0
VISUALSTYLE
  5
1B
102
{ACAD_REACTORS
330
14
102
}
330
14
100
AcDbVisualStyle
  2
3dWireframe
 70
     5
 71
     0
 72
     2
 73
     0
 90
        0
 40
-0.6
 41
-30.0
 62
     5
 63
     7
 74
     1
 91
        4
 64
     7
 65
   257
 75
     1
175
     1
 42
1.0
 92
        0
 66
   257
 43
1.0
 76
     1
 77
     6
 78
     2
 67
     7
 79
     5
170
     0
171
     0
290
     0
174
     0
 93
        1
 44
0.0
173
     0
291
     0
 45
0.0
1001
ACAD
1000
AcDbSavedByObjectVersion
1070
     0
  0
VISUALSTYLE
  5
19
102
{ACAD_REACTORS
330
14
102
}
330
14
100
AcDbVisualStyle
  2
Basic
 70
     7
 71
     1
 72
     0
 73
     1
 90
        0
 40
-0.6
 41
-30.0
 62
     5
 63
     7
 74
     0
 91
        4
 64
     7
 65
   257
 75
     1
175
     1
 42
1.0
 92
        8
 66
     7
 43
1.0
 76
     1
 77
     6
 78
     2
 67
     7
 79
     5
170
     0
171
     0
290
     0
174
     0
 93
        1
 44
0.0
173
     0
291
     1
 45
0.0
1001
ACAD
1000
AcDbSavedByObjectVersion
1070
     0
  0
VISUALSTYLE
  5
20
102
{ACAD_REACTORS
330
14
102
}
330
14
100
AcDbVisualStyle
  2
Brighten
 70
    12
 71
     2
 72
     2
 73
     0
 90
        0
 40
-0.6
 41
-30.0
 62
     5
 63
     7
 74
     1
 91
        4
 64
     7
 65
   257
 75
     1
175
     1
 42
1.0
 92
        8
 66
     7
 43
1.0
 76
     1
 77
     6
 78
     2
 67
     7
 79
     5
170
     0
171
     0
290
     0
174
     0
 93
        1
 44
50.0
173
     0
291
     1
 45
0.0
1001
ACAD
1000
AcDbSavedByObjectVersion
1070
     0
  0
VISUALSTYLE
  5
24
102
{ACAD_REACTORS
330
14
102
}
330
14
100
AcDbVisualStyle
  2
ColorChange
 70
    16
 71
     2
 72
     2
 73
     3
 90
        0
 40
-0.6
 41
-30.0
 62
     5
 63
     8
 74
     1
 91
        4
 64
     7
 65
   257
 75
     1
175
     1
 42
1.0
 92
        8
 66
     8
 43
1.0
 76
     1
 77
     6
 78
     2
 67
     7
 79
     5
170
     0
171
     0
290
     0
174
     0
 93
        1
 44
0.0
173
     0
291
     1
 45
0.0
1001
ACAD
1000
AcDbSavedByObjectVersion
1070
     0
  0
VISUALSTYLE
  5
1D
102
{ACAD_REACTORS
330
14
102
}
330
14
100
AcDbVisualStyle
  2
Conceptual
 70
     9
 71
     3
 72
     2
 73
     0
 90
        0
 40
-0.6
 41
-30.0
 62
     5
 63
     7
 74
     2
 91
        2
 64
     7
 65
   257
 75
     1
175
     1
 42
40.0
 92
        8
 66
     7
 43
1.0
 76
     1
 77
     6
 78
     2
 67
     7
 79
     3
170
     0
171
     0
290
     0
174
     0
 93
        1
 44
0.0
173
     0
291
     0
 45
0.0
1001
ACAD
1000
AcDbSavedByObjectVersion
1070
     0
  0
VISUALSTYLE
  5
1F
102
{ACAD_REACTORS
330
14
102
}
330
14
100
AcDbVisualStyle
  2
Dim
 70
    11
 71
     2
 72
     2
 73
     0
 90
        0
 40
-0.6
 41
-30.0
 62
     5
 63
     7
 74
     1
 91
        4
 64
     7
 65
   257
 75
     1
175
     1
 42
1.0
 92
        8
 66
     7
 43
1.0
 76
     1
 77
     6
 78
     2
 67
     7
 79
     5
170
     0
171
     0
290
     0
174
     0
 93
        1
 44
-50.0
173
     0
291
     1
 45
0.0
1001
ACAD
1000
AcDbSavedByObjectVersion
1070
     0
  0
VISUALSTYLE
  5
23
102
{ACAD_REACTORS
330
14
102
}
330
14
100
AcDbVisualStyle
  2
Facepattern
 70
    15
 71
     2
 72
     2
 73
     0
 90
        0
 40
-0.6
 41
-30.0
 62
     5
 63
     7
 74
     1
 91
        4
 64
     7
 65
   257
 75
     1
175
     1
 42
1.0
 92
        8
 66
     7
 43
1.0
 76
     1
 77
     6
 78
     2
 67
     7
 79
     5
170
     0
171
     0
290
     0
174
     0
 93
        1
 44
0.0
173
     0
291
     1
 45
0.0
1001
ACAD
1000
AcDbSavedByObjectVersion
1070
     0
  0
VISUALSTYLE
  5
15
102
{ACAD_REACTORS
330
14
102
}
330
14
100
AcDbVisualStyle
  2
Flat
 70
     0
 71
     2
 72
     1
 73
     1
 90
        2
 40
-0.6
 41
30.0
 62
     5
 63
     7
 74
     0
 91
        4
 64
     7
 65
   257
 75
     1
175
     1
 42
1.0
 92
        8
 66
     7
 43
1.0
 76
     1
 77
     6
 78
     2
 67
     7
 79
     5
170
     0
171
     0
290
     0
174
     0
 93
       13
 44
0.0
173
     0
291
     1
 45
0.0
1001
ACAD
1000
AcDbSavedByObjectVersion
1070
     0
  0
VISUALSTYLE
  5
16
102
{ACAD_REACTORS
330
14
102
}
330
14
100
AcDbVisualStyle
  2
FlatWithEdges
 70
     1
 71
     2
 72
     1
 73
     1
 90
        2
 40
-0.6
 41
30.0
 62
     5
 63
     7
 74
     1
 91
        4
 64
     7
 65
   257
 75
     1
175
     1
 42
1.0
 92
        0
 66
   257
 43
1.0
 76
     1
 77
     6
 78
     2
 67
     7
 79
     5
170
     0
171
     0
290
     0
174
     0
 93
       13
 44
0.0
173
     0
291
     1
 45
0.0
1001
ACAD
1000
AcDbSavedByObjectVersion
1070
     0
  0
VISUALSTYLE
  5
17
102
{ACAD_REACTORS
330
14
102
}
330
14
100
AcDbVisualStyle
  2
Gouraud
 70
     2
 71
     2
 72
     2
 73
     1
 90
        2
 40
-0.6
 41
30.0
 62
     5
 63
     7
 74
     0
 91
        4
 64
     7
 65
   257
 75
     1
175
     1
 42
1.0
 92
        0
 66
     7
 43
1.0
 76
     1
 77
     6
 78
     2
 67
     7
 79
     5
170
     0
171
     0
290
     0
174
     0
 93
       13
 44
0.0
173
     0
291
     1
 45
0.0
1001
ACAD
1000
AcDbSavedByObjectVersion
1070
     0
  0
VISUALSTYLE
  5
18
102
{ACAD_REACTORS
330
14
102
}
330
14
100
AcDbVisualStyle
  2
GouraudWithEdges
 70
     3
 71
     2
 72
     2
 73
     1
 90
        2
 40
-0.6
 41
30.0
 62
     5
 63
     7
 74
     1
 91
        4
 64
     7
 65
   257
 75
     1
175
     1
 42
1.0
 92
        0
 66
   257
 43
1.0
 76
     1
 77
     6
 78
     2
 67
     7
 79
     5
170
     0
171
     0
290
     0
174
     0
 93
       13
 44
0.0
173
     0
291
     1
 45
0.0
1001
ACAD
1000
AcDbSavedByObjectVersion
1070
     0
  0
VISUALSTYLE
  5
22
102
{ACAD_REACTORS
330
14
102
}
330
14
100
AcDbVisualStyle
  2
Linepattern
 70
    14
 71
     2
 72
     2
 73
     0
 90
        0
 40
-0.6
 41
-30.0
 62
     5
 63
     7
 74
     1
 91
        4
 64
     7
 65
   257
 75
     7
175
     7
 42
1.0
 92
        8
 66
     7
 43
1.0
 76
     1
 77
     6
 78
     2
 67
     7
 79
     5
170
     0
171
     0
290
     0
174
     0
 93
        1
 44
0.0
173
     0
291
     1
 45
0.0
1001
ACAD
1000
AcDbSavedByObjectVersion
1070
     0
  0
VISUALSTYLE
  5
1E
102
{ACAD_REACTORS
330
14
102
}
330
14
100
AcDbVisualStyle
  2
Realistic
 70
     8
 71
     2
 72
     2
 73
     0
 90
        0
 40
-0.6
 41
-30.0
 62
     5
 63
     7
 74
     1
 91
        0
 64
     7
 65
   257
 75
     1
175
     1
 42
1.0
 92
        8
 66
     8
 43
1.0
 76
     1
 77
     6
 78
     2
 67
     7
 79
     5
170
     0
171
     0
290
     0
174
     0
 93
       13
 44
0.0
173
     0
291
     0
 45
0.0
1001
ACAD
1000
AcDbSavedByObjectVersion
1070
     0
  0
VISUALSTYLE
  5
21
102
{ACAD_REACTORS
330
14
102
}
330
14
100
AcDbVisualStyle
  2
Thicken
 70
    13
 71
     2
 72
     2
 73
     0
 90
        0
 40
-0.6
 41
-30.0
 62
     5
 63
     7
 74
     1
 91
        4
 64
     7
 65
   257
 75
     1
175
     1
 42
1.0
 92
       12
 66
     7
 43
1.0
 76
     1
 77
     6
 78
     2
 67
     7
 79
     5
170
     0
171
     0
290
     0
174
     0
 93
        1
 44
0.0
173
     0
291
     1
 45
0.0
1001
ACAD
1000
AcDbSavedByObjectVersion
1070
     0
  0
DICTIONARYVAR
  5
178
102
{ACAD_REACTORS
330
177
102
}
330
177
100
DictionaryVariables
280
     0
  1
STANDARD
  0
DICTIONARYVAR
  5
17C
102
{ACAD_REACTORS
330
177
102
}
330
177
100
DictionaryVariables
280
     0
  1
2
  0
DICTIONARYVAR
  5
17B
102
{ACAD_REACTORS
330
177
102
}
330
177
100
DictionaryVariables
280
     0
  1
1
  0
DICTIONARYVAR
  5
17A
102
{ACAD_REACTORS
330
177
102
}
330
177
100
DictionaryVariables
280
     0
  1
0
  0
DICTIONARYVAR
  5
179
102
{ACAD_REACTORS
330
177
102
}
330
177
100
DictionaryVariables
280
     0
  1
127
  0
DICTIONARY
  5
186
330
35
100
AcDbDictionary
280
     1
281
     1
  3
ACAD_XREC_ROUNDTRIP
360
187
  0
DICTIONARY
  5
188
330
39
100
AcDbDictionary
280
     1
281
     1
  3
ACAD_XREC_ROUNDTRIP
360
189
  0
DICTIONARY
  5
180
330
12
100
AcDbDictionary
280
     1
281
     1
  3
ACAD_XREC_ROUNDTRIP
360
181
  0
DICTIONARY
  5
17E
330
11
100
AcDbDictionary
280
     1
281
     1
  3
ACAD_XREC_ROUNDTRIP
360
17F
  0
DICTIONARY
  5
182
330
13
100
AcDbDictionary
280
     1
281
     1
  3
ACAD_XREC_ROUNDTRIP
360
183
  0
DICTIONARY
  5
184
330
31
100
AcDbDictionary
280
     1
281
     1
  3
ACAD_XREC_ROUNDTRIP
360
185
  0
XRECORD
  5
187
102
{ACAD_REACTORS
330
186
102
}
330
186
100
AcDbXrecord
280
     1
102
SHADEPLOT
 70
     0
102
SHADEPLOTRESLEVEL
 70
     2
102
SHADEPLOTCUSTOMDPI
 70
   300
  0
XRECORD
  5
189
102
{ACAD_REACTORS
330
188
102
}
330
188
100
AcDbXrecord
280
     1
102
SHADEPLOT
 70
     0
102
SHADEPLOTRESLEVEL
 70
     2
102
SHADEPLOTCUSTOMDPI
 70
   300
  0
XRECORD
  5
181
102
{ACAD_REACTORS
330
180
102
}
330
180
100
AcDbXrecord
280
     1
102
MATERIAL
148
0.0
149
0.0
149
0.0
 93
        0
 94
       63
282
     0
 72
     1
 77
     1
171
     1
175
     1
179
     1
273
     0
  0
XRECORD
  5
17F
102
{ACAD_REACTORS
330
17E
102
}
330
17E
100
AcDbXrecord
280
     1
102
MATERIAL
148
0.0
149
0.0
149
0.0
 93
        0
 94
       63
282
     0
 72
     1
 77
     1
171
     1
175
     1
179
     1
273
     0
  0
XRECORD
  5
183
102
{ACAD_REACTORS
330
182
102
}
330
182
100
AcDbXrecord
280
     1
102
MATERIAL
148
0.0
149
0.0
149
0.0
 93
        0
 94
       63
282
     0
 72
     1
 77
     1
171
     1
175
     1
179
     1
273
     0
  0
XRECORD
  5
185
102
{ACAD_REACTORS
330
184
102
}
330
184
100
AcDbXrecord
280
     1
102
ACAD_ROUNDTRIP_PRE2007_TABLESTYLE
 90
      512
 91
        0
  1

 92
      512
 93
        0
  2

 94
      512
 95
        0
  3

  0
ENDSEC
  0
EOF
