<?xml version="1.0" encoding="UTF-8" standalone="no"?>
<!-- Created with Inkscape (http://www.inkscape.org/) -->

<svg
   xmlns:dc="http://purl.org/dc/elements/1.1/"
   xmlns:cc="http://creativecommons.org/ns#"
   xmlns:rdf="http://www.w3.org/1999/02/22-rdf-syntax-ns#"
   xmlns:svg="http://www.w3.org/2000/svg"
   xmlns="http://www.w3.org/2000/svg"
   xmlns:sodipodi="http://sodipodi.sourceforge.net/DTD/sodipodi-0.dtd"
   xmlns:inkscape="http://www.inkscape.org/namespaces/inkscape"
   width="8.5in"
   height="11in"
   viewBox="0 0 215.9 279.40001"
   version="1.1"
   id="svg8"
   inkscape:version="0.92.1 r15371"
   sodipodi:docname="cover.svg">
  <defs
     id="defs2">
    <clipPath
       id="clipEmfPath1"
       clipPathUnits="userSpaceOnUse">
      <path
         id="path3691"
         d="  M -0.34533379,-0.34533379   L 407.30202,-0.34533379   L 407.30202,331.8274   L -0.34533379,331.8274   z" />
    </clipPath>
    <pattern
       y="0"
       x="0"
       height="6"
       width="6"
       patternUnits="userSpaceOnUse"
       id="EMFhbasepattern" />
    <pattern
       y="0"
       x="0"
       height="6"
       width="6"
       patternUnits="userSpaceOnUse"
       id="EMFhbasepattern-5" />
    <pattern
       y="0"
       x="0"
       height="6"
       width="6"
       patternUnits="userSpaceOnUse"
       id="EMFhbasepattern-1" />
  </defs>
  <sodipodi:namedview
     id="base"
     pagecolor="#ffffff"
     bordercolor="#666666"
     borderopacity="1.0"
     inkscape:pageopacity="0.0"
     inkscape:pageshadow="2"
     inkscape:zoom="0.98994949"
     inkscape:cx="-126.0423"
     inkscape:cy="562.05937"
     inkscape:document-units="mm"
     inkscape:current-layer="layer2"
     showgrid="false"
     units="in"
     inkscape:window-width="2463"
     inkscape:window-height="1411"
     inkscape:window-x="-9"
     inkscape:window-y="-9"
     inkscape:window-maximized="1"
     inkscape:measure-start="0,0"
     inkscape:measure-end="0,0" />
  <metadata
     id="metadata5">
    <rdf:RDF>
      <cc:Work
         rdf:about="">
        <dc:format>image/svg+xml</dc:format>
        <dc:type
           rdf:resource="http://purl.org/dc/dcmitype/StillImage" />
        <dc:title />
      </cc:Work>
    </rdf:RDF>
  </metadata>
  <g
     inkscape:groupmode="layer"
     id="layer2"
     inkscape:label="background"
     style="display:inline">
    <path
       style="fill:#b3b3b3;stroke-width:0.26330236"
       d="M 0.13373715,124.34387 V 297.13341 H 216.35467 V 124.34387 Z"
       id="rect3684"
       inkscape:connector-curvature="0"
       transform="translate(0,-17.599983)" />
  </g>
  <g
     inkscape:label="Layer 1"
     inkscape:groupmode="layer"
     id="layer1"
     transform="translate(0,-17.599983)"
     style="display:inline">
    <rect
       id="rect3682"
       width="216.22095"
       height="106.64054"
       x="0.13373715"
       y="17.703327"
       style="fill:#93a7ac;stroke-width:0.26458326" />
    <g
       id="g3787"
       transform="matrix(0.26244733,0,0,0.26244733,107.22687,218.07465)">
      <path
         inkscape:connector-curvature="0"
         style="fill:#0b72b5;fill-opacity:1;fill-rule:nonzero;stroke:none;stroke-width:0.26458332"
         d="m 275.2092,154.65048 c 0.2335,-0.40609 0.85279,-0.40609 1.08629,0 2.42637,4.19285 4.85274,8.39585 7.27911,12.59885 1.12689,1.94922 2.24363,3.90859 3.37052,5.8578 0,-5.1573 0,-10.30445 0,-15.4516 0,-0.34518 0.29441,-0.62944 0.62943,-0.62944 1.15735,0 2.30455,0 3.45174,0 8.02022,0 16.03028,0 24.0505,0 -1.29948,-1.78678 -2.76139,-3.45174 -4.39589,-4.96441 -5.89841,-5.49233 -13.61406,-8.93392 -21.67489,-9.46183 -8.1522,-0.53806 -16.33485,1.68526 -22.99468,6.44663 -6.47708,4.61924 -11.35013,11.40089 -13.52269,19.05563 -2.18272,7.7055 -1.76648,16.13181 1.38069,23.51244 3.89844,-6.76135 7.80703,-13.5227 11.71561,-20.28405 3.20809,-5.56339 6.41618,-11.12678 9.62426,-16.68002 m 0,0 z"
         id="path3752" />
      <path
         inkscape:connector-curvature="0"
         style="fill:#e2001a;fill-opacity:1;fill-rule:nonzero;stroke:none;stroke-width:0.26458332"
         d="m 307.18855,208.15244 c 0.98476,1.71572 1.96952,3.42128 2.96444,5.137 3.94919,0 7.90854,0 11.86789,0 7.06591,0 14.12167,0 21.18758,0 0,-0.94415 0,-1.88831 0,-2.82231 0,-10.33491 0,-20.66982 0,-30.99458 0,-7.06591 0,-14.13183 0,-21.19774 -0.934,0 -1.87815,0 -2.8223,0 -7.64459,0 -15.29933,0 -22.94391,0 3.69539,5.84765 5.67506,12.66991 5.70552,19.62415 -0.0508,12.04048 -6.11161,23.50228 -15.95922,30.25348 z"
         id="path3754" />
      <path
         inkscape:connector-curvature="0"
         style="fill:#a5027d;fill-opacity:1;fill-rule:nonzero;stroke:none;stroke-width:0.26458332"
         d="m 288.20399,158.27481 c 0,0.94415 0,1.8883 0,2.8223 0,4.73092 0,9.45168 0,14.18259 4.16239,7.20804 8.32478,14.42624 12.49732,21.63428 1.94922,3.38068 3.89844,6.76135 5.84765,10.13187 2.74109,-1.87815 5.21822,-4.13193 7.34003,-6.73089 5.1573,-6.31465 7.96945,-14.2638 7.99991,-22.416 -0.0203,-6.99485 -2.11165,-13.84757 -5.93902,-19.62415 -2.18272,0 -4.37559,0 -6.55831,0 -7.05576,0 -14.12167,0 -21.18758,0 m 0,0 z"
         id="path3756" />
      <path
         inkscape:connector-curvature="0"
         style="fill:#ffed00;fill-opacity:1;fill-rule:nonzero;stroke:none;stroke-width:0.26458332"
         d="m 259.7779,202.96468 c -2.41622,-2.58881 -4.4365,-5.51263 -6.02024,-8.64966 -0.61928,1.07614 -1.24872,2.15227 -1.868,3.23855 -3.02535,5.23852 -6.06085,10.48719 -9.0862,15.73587 4.48727,0 8.97453,0 13.47194,0 6.90348,0 13.81711,0 20.73074,0 -6.54815,-1.76648 -12.5887,-5.3502 -17.22824,-10.32476 m 0,0 z"
         id="path3758" />
      <path
         inkscape:connector-curvature="0"
         style="fill:#7ab51d;fill-opacity:1;fill-rule:nonzero;stroke:none;stroke-width:0.26458332"
         d="m 270.02144,209.21842 c 4.91366,2.57865 10.42629,3.97965 15.96937,4.07102 0.32487,0 0.63959,0 0.95431,0 0,-0.94415 0,-1.88831 0,-2.82231 0,-10.33491 0,-20.66982 0,-30.99458 0,-1.28933 0,-2.57866 0,-3.85783 -0.7005,-1.21826 -1.401,-2.43652 -2.1015,-3.65478 -3.0355,-5.24868 -6.06085,-10.49735 -9.09635,-15.74602 -2.24363,3.88828 -4.48726,7.77656 -6.73089,11.66484 -4.83244,8.3857 -9.67502,16.76124 -14.51761,25.14694 3.29946,6.87302 8.74102,12.63946 15.52267,16.19272 z"
         id="path3760" />
      <path
         inkscape:connector-curvature="0"
         style="fill:#ffed00;fill-opacity:1;fill-rule:nonzero;stroke:none;stroke-width:0.26458332"
         d="m 303.62514,210.3047 c -2.44667,1.27917 -5.01518,2.27409 -7.66489,2.98474 4.24361,0 8.49737,0 12.74098,0 -0.85279,-1.48222 -1.70557,-2.96444 -2.5685,-4.44665 -0.81218,0.51776 -1.65481,1.00506 -2.50759,1.46191 z"
         id="path3762" />
      <path
         inkscape:connector-curvature="0"
         style="fill:#572381;fill-opacity:1;fill-rule:nonzero;stroke:none;stroke-width:0.26458332"
         d="m 288.20399,177.78729 c 0,4.77152 0,9.53289 0,14.30441 0,7.05576 0,14.11152 0,21.15713 1.92891,-0.0812 3.84767,-0.33502 5.74613,-0.75126 4.11163,-0.89339 8.02021,-2.51774 11.55317,-4.75122 -1.17765,-2.04058 -2.3553,-4.08117 -3.53296,-6.12176 -4.58878,-7.94915 -9.17756,-15.88815 -13.76634,-23.8373 m 0,0 z"
         id="path3764" />
    </g>
    <flowRoot
       xml:space="preserve"
       id="flowRoot3808"
       style="font-style:normal;font-variant:normal;font-weight:normal;font-stretch:normal;font-size:48px;line-height:1.25;font-family:'Courier New';-inkscape-font-specification:'Courier New';letter-spacing:0px;word-spacing:0px;fill:#000000;fill-opacity:1;stroke:none"><flowRegion
         id="flowRegion3810"
         style="font-size:48px"><rect
           id="rect3812"
           width="410"
           height="90"
           x="210"
           y="161.71428"
           style="font-size:48px" /></flowRegion><flowPara
         id="flowPara3814" /></flowRoot>    <flowRoot
       xml:space="preserve"
       id="flowRoot3816"
       style="font-style:normal;font-variant:normal;font-weight:bold;font-stretch:normal;font-size:64px;line-height:1.25;font-family:'Courier New';-inkscape-font-specification:'Courier New Bold';letter-spacing:0px;word-spacing:0px;fill:#000000;fill-opacity:1;stroke:none"
       transform="matrix(0.26458333,0,0,0.26458333,0,17.599983)"><flowRegion
         id="flowRegion3818"
         style="font-style:normal;font-variant:normal;font-weight:bold;font-stretch:normal;font-size:64px;font-family:'Courier New';-inkscape-font-specification:'Courier New Bold'"><rect
           id="rect3820"
           width="594.28571"
           height="110"
           x="310"
           y="-184"
           style="font-style:normal;font-variant:normal;font-weight:bold;font-stretch:normal;font-size:64px;font-family:'Courier New';-inkscape-font-specification:'Courier New Bold'" /></flowRegion><flowPara
         id="flowPara3822" /></flowRoot>    <rect
       style="fill:#000000;fill-opacity:0;stroke-width:0.26458332"
       id="rect3885"
       width="146.73096"
       height="109.31324"
       x="228.51544"
       y="72.493576"
       ry="3.7417641" />
    <rect
       style="fill:#000000;fill-opacity:0;stroke-width:0.26458332"
       id="rect3887"
       width="97.018837"
       height="39.288624"
       x="240.80984"
       y="14.496093"
       ry="3.7417641" />
    <rect
       style="fill:#000080;fill-opacity:0;stroke-width:0.26458332"
       id="rect3889"
       width="76.706352"
       height="65.481033"
       x="-124.28033"
       y="63.139145"
       ry="3.7417641" />
    <rect
       style="fill:#ff00ff;fill-opacity:0;stroke-width:0.26458332"
       id="rect4716"
       width="39.021351"
       height="46.772167"
       x="160.36172"
       y="145.99271"
       ry="3.7417641" />
    <rect
       style="fill:#ff00ff;fill-opacity:0;stroke-width:0.26458332"
       id="rect4718"
       width="50.513943"
       height="45.703087"
       x="71.360962"
       y="183.41043"
       ry="3.7417641" />
    <g
       id="g134"
       transform="translate(1.8708867,2.9399648)">
      <rect
         style="stroke-width:0.17904773"
         y="56.724682"
         x="54.790249"
         height="23.252449"
         width="103.70058"
         id="rect52" />
      <text
         id="text3826-06"
         y="74.267052"
         x="61.543888"
         style="font-style:normal;font-variant:normal;font-weight:normal;font-stretch:normal;font-size:15.93435669px;line-height:1.25;font-family:'Courier New';-inkscape-font-specification:'Courier New';letter-spacing:0px;word-spacing:0px;fill:#000000;fill-opacity:1;stroke:none;stroke-width:0.39835891"
         xml:space="preserve"><tspan
           style="font-style:normal;font-variant:normal;font-weight:bold;font-stretch:normal;font-size:25.39999962px;font-family:'Courier New';-inkscape-font-specification:'Courier New Bold';fill:#ffffff;stroke-width:0.39835891"
           y="74.267052"
           x="61.543888"
           id="tspan3824-9"
           sodipodi:role="line">on-c-e</tspan></text>
    </g>
    <flowRoot
       xml:space="preserve"
       id="flowRoot72"
       style="font-style:normal;font-variant:normal;font-weight:normal;font-stretch:normal;font-size:40px;line-height:1.25;font-family:'DejaVu Sans Mono';-inkscape-font-specification:'DejaVu Sans Mono';letter-spacing:0px;word-spacing:0px;fill:#000000;fill-opacity:1;stroke:none"
       transform="matrix(0.26458333,0,0,0.26458333,0,17.599983)"><flowRegion
         id="flowRegion74"
         style="font-style:normal;font-variant:normal;font-weight:normal;font-stretch:normal;font-family:'DejaVu Sans Mono';-inkscape-font-specification:'DejaVu Sans Mono'"><rect
           id="rect76"
           width="473.76154"
           height="87.88327"
           x="204.05081"
           y="614.56335"
           style="font-style:normal;font-variant:normal;font-weight:normal;font-stretch:normal;font-family:'DejaVu Sans Mono';-inkscape-font-specification:'DejaVu Sans Mono'" /></flowRegion><flowPara
         id="flowPara78" /></flowRoot>    <flowRoot
       xml:space="preserve"
       id="flowRoot80"
       style="font-style:normal;font-variant:normal;font-weight:normal;font-stretch:normal;font-size:40px;line-height:1.25;font-family:'DejaVu Sans Mono';-inkscape-font-specification:'DejaVu Sans Mono';letter-spacing:0px;word-spacing:0px;fill:#000000;fill-opacity:1;stroke:none"><flowRegion
         id="flowRegion82"
         style="font-style:normal;font-variant:normal;font-weight:normal;font-stretch:normal;font-family:'DejaVu Sans Mono';-inkscape-font-specification:'DejaVu Sans Mono'"><rect
           id="rect84"
           width="363.65491"
           height="137.38075"
           x="-506.08643"
           y="445.86786"
           style="font-style:normal;font-variant:normal;font-weight:normal;font-stretch:normal;font-family:'DejaVu Sans Mono';-inkscape-font-specification:'DejaVu Sans Mono'" /></flowRegion><flowPara
         id="flowPara86" /></flowRoot>    <flowRoot
       xml:space="preserve"
       id="flowRoot100"
       style="font-style:normal;font-weight:normal;font-size:40px;line-height:1.25;font-family:sans-serif;letter-spacing:0px;word-spacing:0px;fill:#000000;fill-opacity:1;stroke:none"><flowRegion
         id="flowRegion102"><rect
           id="rect104"
           width="197.9899"
           height="55.558392"
           x="-583.86816"
           y="325.6597" /></flowRegion><flowPara
         id="flowPara106" /></flowRoot>    <flowRoot
       xml:space="preserve"
       id="flowRoot110"
       style="font-style:normal;font-weight:normal;font-size:40px;line-height:1.25;font-family:sans-serif;letter-spacing:0px;word-spacing:0px;fill:#000000;fill-opacity:1;stroke:none"><flowRegion
         id="flowRegion112"><rect
           id="rect114"
           width="137.38075"
           height="324.25897"
           x="-265.6701"
           y="311.51758" /></flowRegion><flowPara
         id="flowPara116" /></flowRoot>    <g
       id="g85"
       transform="translate(2.9399648,-44.90128)">
      <flowRoot
         transform="matrix(0.26458333,0,0,0.26458333,218.13084,141.61305)"
         style="font-style:normal;font-weight:normal;font-size:26.66666794px;line-height:1.25;font-family:sans-serif;letter-spacing:0px;word-spacing:0px;fill:#000000;fill-opacity:1;stroke:none"
         id="flowRoot88"
         xml:space="preserve"><flowRegion
           style="font-size:26.66666794px"
           id="flowRegion90"><rect
             style="font-size:26.66666794px"
             y="251.91856"
             x="-647.50775"
             height="70.710617"
             width="462.64984"
             id="rect92" /></flowRegion><flowPara
           id="flowPara96"><flowSpan
   style="font-size:24px"
   id="flowSpan4556">document preparation and database</flowSpan>   </flowPara><flowPara
           id="flowPara98" /></flowRoot>      <text
         id="text3862"
         y="225.10446"
         x="47.788177"
         style="font-style:normal;font-weight:normal;font-size:7.05555534px;line-height:1.25;font-family:sans-serif;letter-spacing:0px;word-spacing:0px;fill:#000000;fill-opacity:1;stroke:none;stroke-width:0.26458332"
         xml:space="preserve"><tspan
           style="font-size:6.3499999px;stroke-width:0.26458332"
           y="225.10446"
           x="47.788177"
           id="tspan3860"
           sodipodi:role="line"> system for engineering calculations</tspan></text>
      <flowRoot
         xml:space="preserve"
         id="flowRoot4558"
         style="font-style:normal;font-weight:normal;font-size:40px;line-height:1.25;font-family:sans-serif;letter-spacing:0px;word-spacing:0px;fill:#000000;fill-opacity:1;stroke:none"
         transform="matrix(0.26458333,0,0,0.26458333,1.6036172,59.561298)"><flowRegion
           id="flowRegion4560"><rect
             id="rect4562"
             width="459.61942"
             height="63.63961"
             x="157.5838"
             y="570.11664" /></flowRegion><flowPara
           id="flowPara4564"></flowPara></flowRoot>    </g>
    <text
       xml:space="preserve"
       style="font-style:normal;font-variant:normal;font-weight:normal;font-stretch:normal;font-size:7.22986364px;line-height:1.25;font-family:'Courier New';-inkscape-font-specification:'Courier New';letter-spacing:0px;word-spacing:0px;fill:#000000;fill-opacity:1;stroke:none;stroke-width:0.37109125"
       x="26.567204"
       y="105.64249"
       id="text3826-8"
       transform="scale(0.93155001,1.0734797)"><tspan
         sodipodi:role="line"
         id="tspan3824-3"
         x="26.567204"
         y="105.64249"
         style="font-style:normal;font-variant:normal;font-weight:bold;font-stretch:normal;font-size:7.22986364px;font-family:'Courier New';-inkscape-font-specification:'Courier New Bold';stroke-width:0.37109125">[o]pe[n] source [c]alculation [e]nvironment</tspan></text>
    <text
       xml:space="preserve"
       style="font-style:normal;font-variant:normal;font-weight:normal;font-stretch:normal;font-size:6.3499999px;line-height:1.25;font-family:sans-serif;-inkscape-font-specification:sans-serif;letter-spacing:0px;word-spacing:0px;fill:#000000;fill-opacity:1;stroke:none;stroke-width:0.39835891"
       x="25.321047"
       y="266.57773"
       id="text3826-4"><tspan
         sodipodi:role="line"
         id="tspan3824-6"
         x="25.321047"
         y="266.57773"
         style="font-style:normal;font-variant:normal;font-weight:normal;font-stretch:normal;font-size:5.64444447px;font-family:sans-serif;-inkscape-font-specification:sans-serif;stroke-width:0.39835891">USER MANUAL v0.8</tspan></text>
    <flowRoot
       xml:space="preserve"
       id="flowRoot105"
       style="font-style:normal;font-variant:normal;font-weight:normal;font-stretch:normal;font-size:18.66666603px;line-height:1.25;font-family:sans-serif;-inkscape-font-specification:sans-serif;letter-spacing:0px;word-spacing:0px;fill:#000000;fill-opacity:1;stroke:none"
       transform="matrix(0.26458333,0,0,0.26458333,356.80482,223.66479)"><flowRegion
         id="flowRegion107"
         style="font-style:normal;font-variant:normal;font-weight:normal;font-stretch:normal;font-size:18.66666603px;font-family:sans-serif;-inkscape-font-specification:sans-serif"><rect
           id="rect109"
           width="141.42137"
           height="23.233511"
           x="-718.21844"
           y="201.41095"
           style="font-style:normal;font-variant:normal;font-weight:normal;font-stretch:normal;font-size:18.66666603px;font-family:sans-serif;-inkscape-font-specification:sans-serif" /></flowRegion><flowPara
         id="flowPara111">StructureLabs</flowPara></flowRoot>    <text
       xml:space="preserve"
       style="font-style:normal;font-variant:normal;font-weight:normal;font-stretch:normal;font-size:4.93888903px;line-height:1.25;font-family:sans-serif;-inkscape-font-specification:sans-serif;letter-spacing:0px;word-spacing:0px;fill:#000000;fill-opacity:1;stroke:none;stroke-width:0.39835894"
       x="25.525276"
       y="277.13855"
       id="text3826-4-8"><tspan
         sodipodi:role="line"
         id="tspan3824-6-0"
         x="25.525276"
         y="277.13855"
         style="font-style:normal;font-variant:normal;font-weight:normal;font-stretch:normal;font-size:4.93888903px;font-family:sans-serif;-inkscape-font-specification:sans-serif;stroke-width:0.39835894">code: http://on-c-e.github.io</tspan></text>
  </g>
</svg>
