0
SECTION
2
HEADER
0
ENDSEC
0
SECTION
2
TABLES
0
ENDSEC
0
SECTION
2
BLOCKS
0
ENDSEC
0
SECTION
2
ENTITIES
0
POLYLINE
8
R2V
62
0
66
1
70
8
0
VERTEX
8
R2V
62
0
70
32
10
5.780488
20
0.292683
30
0
0
VERTEX
8
R2V
62
0
70
32
10
5.780488
20
0.731707
30
0
0
SEQEND
0
POLYLINE
8
R2V
62
0
66
1
70
8
0
VERTEX
8
R2V
62
0
70
32
10
5.780488
20
0.292683
30
0
0
VERTEX
8
R2V
62
0
70
32
10
5.780488
20
0.243902
30
0
0
SEQEND
0
POLYLINE
8
R2V
62
0
66
1
70
8
0
VERTEX
8
R2V
62
0
70
32
10
5.780488
20
0.292683
30
0
0
VERTEX
8
R2V
62
0
70
32
10
2.634146
20
0.292683
30
0
0
VERTEX
8
R2V
62
0
70
32
10
2.634146
20
0.731707
30
0
0
SEQEND
0
POLYLINE
8
R2V
62
0
66
1
70
8
0
VERTEX
8
R2V
62
0
70
32
10
4.121951
20
0.512195
30
0
0
VERTEX
8
R2V
62
0
70
32
10
4.121951
20
0.512195
30
0
0
VERTEX
8
R2V
62
0
70
32
10
4.121951
20
0.585366
30
0
0
VERTEX
8
R2V
62
0
70
32
10
4.146341
20
0.609756
30
0
0
VERTEX
8
R2V
62
0
70
32
10
4.195122
20
0.609756
30
0
0
VERTEX
8
R2V
62
0
70
32
10
4.195122
20
0.560976
30
0
0
VERTEX
8
R2V
62
0
70
32
10
4.170732
20
0.536585
30
0
0
VERTEX
8
R2V
62
0
70
32
10
4.146341
20
0.512195
30
0
0
VERTEX
8
R2V
62
0
70
32
10
4.121951
20
0.512195
30
0
0
VERTEX
8
R2V
62
0
70
32
10
4.097561
20
0.487805
30
0
0
VERTEX
8
R2V
62
0
70
32
10
4.097561
20
0.463415
30
0
0
VERTEX
8
R2V
62
0
70
32
10
4.146341
20
0.463415
30
0
0
VERTEX
8
R2V
62
0
70
32
10
4.146341
20
0.512195
30
0
0
SEQEND
0
POLYLINE
8
R2V
62
0
66
1
70
8
0
VERTEX
8
R2V
62
0
70
32
10
2.439024
20
1.390244
30
0
0
VERTEX
8
R2V
62
0
70
32
10
2.439024
20
1.390244
30
0
0
VERTEX
8
R2V
62
0
70
32
10
2.487805
20
1.390244
30
0
0
VERTEX
8
R2V
62
0
70
32
10
2.512195
20
1.414634
30
0
0
VERTEX
8
R2V
62
0
70
32
10
2.512195
20
1.439024
30
0
0
VERTEX
8
R2V
62
0
70
32
10
2.536585
20
1.463415
30
0
0
VERTEX
8
R2V
62
0
70
32
10
2.536585
20
1.487805
30
0
0
VERTEX
8
R2V
62
0
70
32
10
2.560976
20
1.512195
30
0
0
VERTEX
8
R2V
62
0
70
32
10
2.585366
20
1.512195
30
0
0
VERTEX
8
R2V
62
0
70
32
10
2.585366
20
1.536585
30
0
0
VERTEX
8
R2V
62
0
70
32
10
2.609756
20
1.560976
30
0
0
VERTEX
8
R2V
62
0
70
32
10
2.609756
20
1.585366
30
0
0
VERTEX
8
R2V
62
0
70
32
10
2.634146
20
1.609756
30
0
0
VERTEX
8
R2V
62
0
70
32
10
2.658537
20
1.634146
30
0
0
VERTEX
8
R2V
62
0
70
32
10
2.658537
20
1.658537
30
0
0
VERTEX
8
R2V
62
0
70
32
10
2.682927
20
1.682927
30
0
0
VERTEX
8
R2V
62
0
70
32
10
2.707317
20
1.707317
30
0
0
VERTEX
8
R2V
62
0
70
32
10
2.707317
20
1.731707
30
0
0
SEQEND
0
POLYLINE
8
R2V
62
0
66
1
70
8
0
VERTEX
8
R2V
62
0
70
32
10
2.439024
20
1.390244
30
0
0
VERTEX
8
R2V
62
0
70
32
10
2.439024
20
1.390244
30
0
0
VERTEX
8
R2V
62
0
70
32
10
2.439024
20
1.365854
30
0
0
VERTEX
8
R2V
62
0
70
32
10
2.414634
20
1.341463
30
0
0
VERTEX
8
R2V
62
0
70
32
10
2.414634
20
0.902439
30
0
0
VERTEX
8
R2V
62
0
70
32
10
2.439024
20
0.878049
30
0
0
VERTEX
8
R2V
62
0
70
32
10
2.463415
20
0.878049
30
0
0
VERTEX
8
R2V
62
0
70
32
10
2.487805
20
0.853659
30
0
0
VERTEX
8
R2V
62
0
70
32
10
2.585366
20
0.853659
30
0
0
VERTEX
8
R2V
62
0
70
32
10
2.609756
20
0.878049
30
0
0
VERTEX
8
R2V
62
0
70
32
10
2.634146
20
0.878049
30
0
0
VERTEX
8
R2V
62
0
70
32
10
2.658537
20
0.902439
30
0
0
VERTEX
8
R2V
62
0
70
32
10
2.682927
20
0.902439
30
0
0
VERTEX
8
R2V
62
0
70
32
10
2.707317
20
0.926829
30
0
0
VERTEX
8
R2V
62
0
70
32
10
2.780488
20
0.926829
30
0
0
VERTEX
8
R2V
62
0
70
32
10
2.804878
20
0.951220
30
0
0
VERTEX
8
R2V
62
0
70
32
10
2.829268
20
0.951220
30
0
0
VERTEX
8
R2V
62
0
70
32
10
2.853659
20
0.975610
30
0
0
VERTEX
8
R2V
62
0
70
32
10
2.878049
20
0.975610
30
0
0
VERTEX
8
R2V
62
0
70
32
10
2.902439
20
1.000000
30
0
0
VERTEX
8
R2V
62
0
70
32
10
2.902439
20
6.000000
30
0
0
VERTEX
8
R2V
62
0
70
32
10
2.878049
20
6.024390
30
0
0
VERTEX
8
R2V
62
0
70
32
10
2.878049
20
6.048780
30
0
0
VERTEX
8
R2V
62
0
70
32
10
2.902439
20
6.073171
30
0
0
VERTEX
8
R2V
62
0
70
32
10
2.902439
20
8.292683
30
0
0
VERTEX
8
R2V
62
0
70
32
10
2.878049
20
8.317073
30
0
0
VERTEX
8
R2V
62
0
70
32
10
2.878049
20
8.341463
30
0
0
VERTEX
8
R2V
62
0
70
32
10
2.853659
20
8.341463
30
0
0
VERTEX
8
R2V
62
0
70
32
10
2.829268
20
8.365854
30
0
0
VERTEX
8
R2V
62
0
70
32
10
2.804878
20
8.365854
30
0
0
VERTEX
8
R2V
62
0
70
32
10
2.780488
20
8.390244
30
0
0
VERTEX
8
R2V
62
0
70
32
10
2.756098
20
8.414634
30
0
0
VERTEX
8
R2V
62
0
70
32
10
2.682927
20
8.414634
30
0
0
VERTEX
8
R2V
62
0
70
32
10
2.658537
20
8.439024
30
0
0
VERTEX
8
R2V
62
0
70
32
10
2.609756
20
8.439024
30
0
0
VERTEX
8
R2V
62
0
70
32
10
2.585366
20
8.463415
30
0
0
VERTEX
8
R2V
62
0
70
32
10
2.536585
20
8.463415
30
0
0
VERTEX
8
R2V
62
0
70
32
10
2.512195
20
8.487805
30
0
0
VERTEX
8
R2V
62
0
70
32
10
2.487805
20
8.463415
30
0
0
VERTEX
8
R2V
62
0
70
32
10
2.439024
20
8.463415
30
0
0
VERTEX
8
R2V
62
0
70
32
10
2.414634
20
8.439024
30
0
0
VERTEX
8
R2V
62
0
70
32
10
2.414634
20
5.512195
30
0
0
VERTEX
8
R2V
62
0
70
32
10
2.439024
20
5.487805
30
0
0
VERTEX
8
R2V
62
0
70
32
10
2.439024
20
5.463415
30
0
0
VERTEX
8
R2V
62
0
70
32
10
2.414634
20
5.439024
30
0
0
VERTEX
8
R2V
62
0
70
32
10
2.414634
20
1.390244
30
0
0
VERTEX
8
R2V
62
0
70
32
10
2.439024
20
1.390244
30
0
0
SEQEND
0
POLYLINE
8
R2V
62
0
66
1
70
8
0
VERTEX
8
R2V
62
0
70
32
10
7.341463
20
1.658537
30
0
0
VERTEX
8
R2V
62
0
70
32
10
7.341463
20
1.707317
30
0
0
VERTEX
8
R2V
62
0
70
32
10
7.365854
20
1.731707
30
0
0
VERTEX
8
R2V
62
0
70
32
10
7.365854
20
1.804878
30
0
0
SEQEND
0
POLYLINE
8
R2V
62
0
66
1
70
8
0
VERTEX
8
R2V
62
0
70
32
10
7.341463
20
1.658537
30
0
0
VERTEX
8
R2V
62
0
70
32
10
7.390244
20
1.658537
30
0
0
VERTEX
8
R2V
62
0
70
32
10
7.390244
20
1.585366
30
0
0
SEQEND
0
POLYLINE
8
R2V
62
0
66
1
70
8
0
VERTEX
8
R2V
62
0
70
32
10
7.341463
20
1.658537
30
0
0
VERTEX
8
R2V
62
0
70
32
10
7.341463
20
1.658537
30
0
0
VERTEX
8
R2V
62
0
70
32
10
7.268293
20
1.658537
30
0
0
VERTEX
8
R2V
62
0
70
32
10
7.243902
20
1.682927
30
0
0
VERTEX
8
R2V
62
0
70
32
10
7.024390
20
1.682927
30
0
0
VERTEX
8
R2V
62
0
70
32
10
7.000000
20
1.707317
30
0
0
VERTEX
8
R2V
62
0
70
32
10
7.000000
20
1.756098
30
0
0
VERTEX
8
R2V
62
0
70
32
10
6.975610
20
1.780488
30
0
0
VERTEX
8
R2V
62
0
70
32
10
6.975610
20
1.804878
30
0
0
VERTEX
8
R2V
62
0
70
32
10
6.951220
20
1.829268
30
0
0
VERTEX
8
R2V
62
0
70
32
10
6.951220
20
1.853659
30
0
0
VERTEX
8
R2V
62
0
70
32
10
6.926829
20
1.878049
30
0
0
VERTEX
8
R2V
62
0
70
32
10
6.926829
20
1.902439
30
0
0
VERTEX
8
R2V
62
0
70
32
10
6.902439
20
1.926829
30
0
0
VERTEX
8
R2V
62
0
70
32
10
6.902439
20
1.975610
30
0
0
VERTEX
8
R2V
62
0
70
32
10
6.878049
20
2.000000
30
0
0
VERTEX
8
R2V
62
0
70
32
10
6.878049
20
2.024390
30
0
0
VERTEX
8
R2V
62
0
70
32
10
6.853659
20
2.048780
30
0
0
VERTEX
8
R2V
62
0
70
32
10
6.853659
20
2.073171
30
0
0
VERTEX
8
R2V
62
0
70
32
10
6.829268
20
2.097561
30
0
0
VERTEX
8
R2V
62
0
70
32
10
6.829268
20
2.146341
30
0
0
VERTEX
8
R2V
62
0
70
32
10
6.804878
20
2.170732
30
0
0
VERTEX
8
R2V
62
0
70
32
10
6.804878
20
2.219512
30
0
0
VERTEX
8
R2V
62
0
70
32
10
6.780488
20
2.243902
30
0
0
VERTEX
8
R2V
62
0
70
32
10
6.731707
20
2.243902
30
0
0
VERTEX
8
R2V
62
0
70
32
10
6.707317
20
2.219512
30
0
0
VERTEX
8
R2V
62
0
70
32
10
6.024390
20
2.219512
30
0
0
VERTEX
8
R2V
62
0
70
32
10
6.024390
20
2.682927
30
0
0
VERTEX
8
R2V
62
0
70
32
10
6.048780
20
2.707317
30
0
0
VERTEX
8
R2V
62
0
70
32
10
8.707317
20
2.707317
30
0
0
VERTEX
8
R2V
62
0
70
32
10
8.731707
20
2.682927
30
0
0
VERTEX
8
R2V
62
0
70
32
10
8.780488
20
2.682927
30
0
0
VERTEX
8
R2V
62
0
70
32
10
8.780488
20
2.634146
30
0
0
VERTEX
8
R2V
62
0
70
32
10
8.804878
20
2.609756
30
0
0
VERTEX
8
R2V
62
0
70
32
10
8.804878
20
2.585366
30
0
0
VERTEX
8
R2V
62
0
70
32
10
8.780488
20
2.560976
30
0
0
VERTEX
8
R2V
62
0
70
32
10
8.780488
20
2.512195
30
0
0
VERTEX
8
R2V
62
0
70
32
10
8.756098
20
2.487805
30
0
0
VERTEX
8
R2V
62
0
70
32
10
8.756098
20
2.414634
30
0
0
VERTEX
8
R2V
62
0
70
32
10
8.731707
20
2.390244
30
0
0
VERTEX
8
R2V
62
0
70
32
10
8.731707
20
2.341463
30
0
0
VERTEX
8
R2V
62
0
70
32
10
8.707317
20
2.317073
30
0
0
VERTEX
8
R2V
62
0
70
32
10
8.682927
20
2.292683
30
0
0
VERTEX
8
R2V
62
0
70
32
10
8.682927
20
2.268293
30
0
0
VERTEX
8
R2V
62
0
70
32
10
8.658537
20
2.243902
30
0
0
VERTEX
8
R2V
62
0
70
32
10
8.634146
20
2.219512
30
0
0
VERTEX
8
R2V
62
0
70
32
10
6.804878
20
2.219512
30
0
0
SEQEND
0
POLYLINE
8
R2V
62
0
66
1
70
8
0
VERTEX
8
R2V
62
0
70
32
10
7.341463
20
1.707317
30
0
0
VERTEX
8
R2V
62
0
70
32
10
7.292683
20
1.707317
30
0
0
VERTEX
8
R2V
62
0
70
32
10
7.268293
20
1.682927
30
0
0
VERTEX
8
R2V
62
0
70
32
10
7.292683
20
1.682927
30
0
0
SEQEND
0
POLYLINE
8
R2V
62
0
66
1
70
8
0
VERTEX
8
R2V
62
0
70
32
10
2.902439
20
2.097561
30
0
0
VERTEX
8
R2V
62
0
70
32
10
2.902439
20
2.097561
30
0
0
VERTEX
8
R2V
62
0
70
32
10
2.975610
20
2.097561
30
0
0
VERTEX
8
R2V
62
0
70
32
10
3.000000
20
2.121951
30
0
0
VERTEX
8
R2V
62
0
70
32
10
3.000000
20
2.146341
30
0
0
VERTEX
8
R2V
62
0
70
32
10
3.024390
20
2.170732
30
0
0
VERTEX
8
R2V
62
0
70
32
10
3.024390
20
2.219512
30
0
0
VERTEX
8
R2V
62
0
70
32
10
5.536585
20
2.219512
30
0
0
VERTEX
8
R2V
62
0
70
32
10
5.536585
20
2.024390
30
0
0
VERTEX
8
R2V
62
0
70
32
10
5.560976
20
2.000000
30
0
0
VERTEX
8
R2V
62
0
70
32
10
5.536585
20
1.975610
30
0
0
VERTEX
8
R2V
62
0
70
32
10
5.536585
20
1.731707
30
0
0
VERTEX
8
R2V
62
0
70
32
10
5.560976
20
1.707317
30
0
0
VERTEX
8
R2V
62
0
70
32
10
5.560976
20
1.658537
30
0
0
VERTEX
8
R2V
62
0
70
32
10
5.536585
20
1.634146
30
0
0
VERTEX
8
R2V
62
0
70
32
10
5.536585
20
0.926829
30
0
0
VERTEX
8
R2V
62
0
70
32
10
5.560976
20
0.902439
30
0
0
VERTEX
8
R2V
62
0
70
32
10
5.585366
20
0.878049
30
0
0
VERTEX
8
R2V
62
0
70
32
10
5.609756
20
0.853659
30
0
0
VERTEX
8
R2V
62
0
70
32
10
5.731707
20
0.853659
30
0
0
VERTEX
8
R2V
62
0
70
32
10
5.756098
20
0.878049
30
0
0
VERTEX
8
R2V
62
0
70
32
10
5.780488
20
0.878049
30
0
0
VERTEX
8
R2V
62
0
70
32
10
5.804878
20
0.902439
30
0
0
VERTEX
8
R2V
62
0
70
32
10
5.829268
20
0.902439
30
0
0
VERTEX
8
R2V
62
0
70
32
10
5.853659
20
0.926829
30
0
0
VERTEX
8
R2V
62
0
70
32
10
5.951220
20
0.926829
30
0
0
VERTEX
8
R2V
62
0
70
32
10
5.975610
20
0.951220
30
0
0
VERTEX
8
R2V
62
0
70
32
10
6.000000
20
0.975610
30
0
0
VERTEX
8
R2V
62
0
70
32
10
6.024390
20
1.000000
30
0
0
VERTEX
8
R2V
62
0
70
32
10
6.024390
20
1.829268
30
0
0
VERTEX
8
R2V
62
0
70
32
10
6.048780
20
1.853659
30
0
0
VERTEX
8
R2V
62
0
70
32
10
6.048780
20
1.878049
30
0
0
VERTEX
8
R2V
62
0
70
32
10
6.024390
20
1.902439
30
0
0
VERTEX
8
R2V
62
0
70
32
10
6.024390
20
1.975610
30
0
0
VERTEX
8
R2V
62
0
70
32
10
6.048780
20
2.000000
30
0
0
VERTEX
8
R2V
62
0
70
32
10
6.048780
20
2.024390
30
0
0
VERTEX
8
R2V
62
0
70
32
10
6.024390
20
2.048780
30
0
0
VERTEX
8
R2V
62
0
70
32
10
6.024390
20
2.219512
30
0
0
SEQEND
0
POLYLINE
8
R2V
62
0
66
1
70
8
0
VERTEX
8
R2V
62
0
70
32
10
2.414634
20
2.219512
30
0
0
VERTEX
8
R2V
62
0
70
32
10
2.414634
20
2.219512
30
0
0
VERTEX
8
R2V
62
0
70
32
10
1.975610
20
2.219512
30
0
0
VERTEX
8
R2V
62
0
70
32
10
1.951220
20
2.243902
30
0
0
VERTEX
8
R2V
62
0
70
32
10
1.292683
20
2.243902
30
0
0
VERTEX
8
R2V
62
0
70
32
10
1.292683
20
2.292683
30
0
0
VERTEX
8
R2V
62
0
70
32
10
1.268293
20
2.317073
30
0
0
VERTEX
8
R2V
62
0
70
32
10
1.268293
20
2.341463
30
0
0
VERTEX
8
R2V
62
0
70
32
10
1.243902
20
2.365854
30
0
0
VERTEX
8
R2V
62
0
70
32
10
1.219512
20
2.390244
30
0
0
VERTEX
8
R2V
62
0
70
32
10
1.219512
20
2.487805
30
0
0
VERTEX
8
R2V
62
0
70
32
10
1.195122
20
2.512195
30
0
0
VERTEX
8
R2V
62
0
70
32
10
1.195122
20
2.536585
30
0
0
VERTEX
8
R2V
62
0
70
32
10
1.170732
20
2.560976
30
0
0
VERTEX
8
R2V
62
0
70
32
10
1.146341
20
2.585366
30
0
0
VERTEX
8
R2V
62
0
70
32
10
1.146341
20
2.634146
30
0
0
VERTEX
8
R2V
62
0
70
32
10
1.170732
20
2.658537
30
0
0
VERTEX
8
R2V
62
0
70
32
10
1.170732
20
2.682927
30
0
0
VERTEX
8
R2V
62
0
70
32
10
1.195122
20
2.707317
30
0
0
VERTEX
8
R2V
62
0
70
32
10
2.414634
20
2.707317
30
0
0
SEQEND
0
POLYLINE
8
R2V
62
0
66
1
70
8
0
VERTEX
8
R2V
62
0
70
32
10
2.902439
20
2.219512
30
0
0
VERTEX
8
R2V
62
0
70
32
10
3.024390
20
2.219512
30
0
0
SEQEND
0
POLYLINE
8
R2V
62
0
66
1
70
8
0
VERTEX
8
R2V
62
0
70
32
10
3.097561
20
2.219512
30
0
0
VERTEX
8
R2V
62
0
70
32
10
3.097561
20
2.292683
30
0
0
VERTEX
8
R2V
62
0
70
32
10
3.121951
20
2.317073
30
0
0
SEQEND
0
POLYLINE
8
R2V
62
0
66
1
70
8
0
VERTEX
8
R2V
62
0
70
32
10
5.463415
20
2.219512
30
0
0
VERTEX
8
R2V
62
0
70
32
10
5.463415
20
2.146341
30
0
0
VERTEX
8
R2V
62
0
70
32
10
5.439024
20
2.121951
30
0
0
SEQEND
0
POLYLINE
8
R2V
62
0
66
1
70
8
0
VERTEX
8
R2V
62
0
70
32
10
5.536585
20
2.219512
30
0
0
VERTEX
8
R2V
62
0
70
32
10
5.536585
20
2.219512
30
0
0
VERTEX
8
R2V
62
0
70
32
10
5.536585
20
2.292683
30
0
0
VERTEX
8
R2V
62
0
70
32
10
5.560976
20
2.317073
30
0
0
VERTEX
8
R2V
62
0
70
32
10
5.560976
20
2.390244
30
0
0
VERTEX
8
R2V
62
0
70
32
10
5.536585
20
2.414634
30
0
0
VERTEX
8
R2V
62
0
70
32
10
5.536585
20
2.780488
30
0
0
VERTEX
8
R2V
62
0
70
32
10
5.560976
20
2.804878
30
0
0
VERTEX
8
R2V
62
0
70
32
10
5.560976
20
2.853659
30
0
0
VERTEX
8
R2V
62
0
70
32
10
5.536585
20
2.878049
30
0
0
VERTEX
8
R2V
62
0
70
32
10
5.536585
20
3.365854
30
0
0
VERTEX
8
R2V
62
0
70
32
10
5.560976
20
3.390244
30
0
0
VERTEX
8
R2V
62
0
70
32
10
5.560976
20
3.414634
30
0
0
VERTEX
8
R2V
62
0
70
32
10
5.536585
20
3.439024
30
0
0
VERTEX
8
R2V
62
0
70
32
10
5.536585
20
3.536585
30
0
0
VERTEX
8
R2V
62
0
70
32
10
5.560976
20
3.560976
30
0
0
VERTEX
8
R2V
62
0
70
32
10
5.560976
20
3.609756
30
0
0
VERTEX
8
R2V
62
0
70
32
10
5.536585
20
3.634146
30
0
0
VERTEX
8
R2V
62
0
70
32
10
5.536585
20
4.414634
30
0
0
VERTEX
8
R2V
62
0
70
32
10
5.560976
20
4.439024
30
0
0
VERTEX
8
R2V
62
0
70
32
10
5.560976
20
4.560976
30
0
0
VERTEX
8
R2V
62
0
70
32
10
5.536585
20
4.585366
30
0
0
VERTEX
8
R2V
62
0
70
32
10
5.536585
20
4.829268
30
0
0
VERTEX
8
R2V
62
0
70
32
10
5.560976
20
4.853659
30
0
0
VERTEX
8
R2V
62
0
70
32
10
5.560976
20
4.878049
30
0
0
VERTEX
8
R2V
62
0
70
32
10
5.536585
20
4.902439
30
0
0
VERTEX
8
R2V
62
0
70
32
10
5.536585
20
5.048780
30
0
0
VERTEX
8
R2V
62
0
70
32
10
5.560976
20
5.073171
30
0
0
VERTEX
8
R2V
62
0
70
32
10
5.560976
20
5.121951
30
0
0
VERTEX
8
R2V
62
0
70
32
10
5.536585
20
5.146341
30
0
0
VERTEX
8
R2V
62
0
70
32
10
5.536585
20
5.390244
30
0
0
VERTEX
8
R2V
62
0
70
32
10
5.560976
20
5.414634
30
0
0
VERTEX
8
R2V
62
0
70
32
10
5.658537
20
5.414634
30
0
0
VERTEX
8
R2V
62
0
70
32
10
5.682927
20
5.390244
30
0
0
VERTEX
8
R2V
62
0
70
32
10
5.780488
20
5.390244
30
0
0
VERTEX
8
R2V
62
0
70
32
10
5.780488
20
5.292683
30
0
0
SEQEND
0
POLYLINE
8
R2V
62
0
66
1
70
8
0
VERTEX
8
R2V
62
0
70
32
10
6.804878
20
2.219512
30
0
0
VERTEX
8
R2V
62
0
70
32
10
6.780488
20
2.219512
30
0
0
VERTEX
8
R2V
62
0
70
32
10
6.756098
20
2.243902
30
0
0
SEQEND
0
POLYLINE
8
R2V
62
0
66
1
70
8
0
VERTEX
8
R2V
62
0
70
32
10
6.756098
20
2.243902
30
0
0
VERTEX
8
R2V
62
0
70
32
10
6.756098
20
2.268293
30
0
0
VERTEX
8
R2V
62
0
70
32
10
6.731707
20
2.292683
30
0
0
VERTEX
8
R2V
62
0
70
32
10
6.731707
20
2.341463
30
0
0
VERTEX
8
R2V
62
0
70
32
10
6.707317
20
2.365854
30
0
0
VERTEX
8
R2V
62
0
70
32
10
6.707317
20
2.414634
30
0
0
VERTEX
8
R2V
62
0
70
32
10
6.682927
20
2.439024
30
0
0
SEQEND
0
POLYLINE
8
R2V
62
0
66
1
70
8
0
VERTEX
8
R2V
62
0
70
32
10
5.560976
20
2.390244
30
0
0
VERTEX
8
R2V
62
0
70
32
10
5.609756
20
2.390244
30
0
0
VERTEX
8
R2V
62
0
70
32
10
5.634146
20
2.414634
30
0
0
SEQEND
0
POLYLINE
8
R2V
62
0
66
1
70
8
0
VERTEX
8
R2V
62
0
70
32
10
5.560976
20
2.390244
30
0
0
VERTEX
8
R2V
62
0
70
32
10
5.536585
20
2.390244
30
0
0
SEQEND
0
POLYLINE
8
R2V
62
0
66
1
70
8
0
VERTEX
8
R2V
62
0
70
32
10
9.414634
20
2.439024
30
0
0
VERTEX
8
R2V
62
0
70
32
10
9.414634
20
5.585366
30
0
0
VERTEX
8
R2V
62
0
70
32
10
9.512195
20
5.585366
30
0
0
SEQEND
0
POLYLINE
8
R2V
62
0
66
1
70
8
0
VERTEX
8
R2V
62
0
70
32
10
9.414634
20
2.439024
30
0
0
VERTEX
8
R2V
62
0
70
32
10
9.463415
20
2.439024
30
0
0
VERTEX
8
R2V
62
0
70
32
10
9.487805
20
2.463415
30
0
0
SEQEND
0
POLYLINE
8
R2V
62
0
66
1
70
8
0
VERTEX
8
R2V
62
0
70
32
10
9.414634
20
2.439024
30
0
0
VERTEX
8
R2V
62
0
70
32
10
9.292683
20
2.439024
30
0
0
VERTEX
8
R2V
62
0
70
32
10
9.268293
20
2.463415
30
0
0
VERTEX
8
R2V
62
0
70
32
10
8.951220
20
2.463415
30
0
0
SEQEND
0
POLYLINE
8
R2V
62
0
66
1
70
8
0
VERTEX
8
R2V
62
0
70
32
10
3.756098
20
2.487805
30
0
0
VERTEX
8
R2V
62
0
70
32
10
3.756098
20
2.609756
30
0
0
VERTEX
8
R2V
62
0
70
32
10
3.731707
20
2.634146
30
0
0
VERTEX
8
R2V
62
0
70
32
10
3.731707
20
2.707317
30
0
0
VERTEX
8
R2V
62
0
70
32
10
5.536585
20
2.707317
30
0
0
SEQEND
0
POLYLINE
8
R2V
62
0
66
1
70
8
0
VERTEX
8
R2V
62
0
70
32
10
3.756098
20
2.487805
30
0
0
VERTEX
8
R2V
62
0
70
32
10
3.902439
20
2.487805
30
0
0
SEQEND
0
POLYLINE
8
R2V
62
0
66
1
70
8
0
VERTEX
8
R2V
62
0
70
32
10
3.756098
20
2.487805
30
0
0
VERTEX
8
R2V
62
0
70
32
10
3.756098
20
2.487805
30
0
0
VERTEX
8
R2V
62
0
70
32
10
3.292683
20
2.487805
30
0
0
VERTEX
8
R2V
62
0
70
32
10
3.268293
20
2.512195
30
0
0
VERTEX
8
R2V
62
0
70
32
10
3.268293
20
2.536585
30
0
0
VERTEX
8
R2V
62
0
70
32
10
3.292683
20
2.560976
30
0
0
VERTEX
8
R2V
62
0
70
32
10
3.292683
20
2.585366
30
0
0
VERTEX
8
R2V
62
0
70
32
10
3.317073
20
2.609756
30
0
0
VERTEX
8
R2V
62
0
70
32
10
3.317073
20
2.634146
30
0
0
VERTEX
8
R2V
62
0
70
32
10
3.341463
20
2.658537
30
0
0
VERTEX
8
R2V
62
0
70
32
10
3.341463
20
2.707317
30
0
0
VERTEX
8
R2V
62
0
70
32
10
3.390244
20
2.707317
30
0
0
VERTEX
8
R2V
62
0
70
32
10
3.414634
20
2.731707
30
0
0
VERTEX
8
R2V
62
0
70
32
10
3.414634
20
2.756098
30
0
0
VERTEX
8
R2V
62
0
70
32
10
3.439024
20
2.780488
30
0
0
VERTEX
8
R2V
62
0
70
32
10
3.439024
20
2.804878
30
0
0
VERTEX
8
R2V
62
0
70
32
10
3.463415
20
2.829268
30
0
0
VERTEX
8
R2V
62
0
70
32
10
3.463415
20
2.853659
30
0
0
VERTEX
8
R2V
62
0
70
32
10
3.487805
20
2.878049
30
0
0
VERTEX
8
R2V
62
0
70
32
10
3.512195
20
2.902439
30
0
0
VERTEX
8
R2V
62
0
70
32
10
3.512195
20
2.926829
30
0
0
VERTEX
8
R2V
62
0
70
32
10
3.560976
20
2.926829
30
0
0
VERTEX
8
R2V
62
0
70
32
10
3.585366
20
2.902439
30
0
0
VERTEX
8
R2V
62
0
70
32
10
3.585366
20
2.878049
30
0
0
VERTEX
8
R2V
62
0
70
32
10
3.609756
20
2.853659
30
0
0
VERTEX
8
R2V
62
0
70
32
10
3.634146
20
2.853659
30
0
0
VERTEX
8
R2V
62
0
70
32
10
3.658537
20
2.829268
30
0
0
VERTEX
8
R2V
62
0
70
32
10
3.658537
20
2.804878
30
0
0
VERTEX
8
R2V
62
0
70
32
10
3.682927
20
2.780488
30
0
0
VERTEX
8
R2V
62
0
70
32
10
3.682927
20
2.707317
30
0
0
VERTEX
8
R2V
62
0
70
32
10
3.439024
20
2.707317
30
0
0
VERTEX
8
R2V
62
0
70
32
10
3.414634
20
2.731707
30
0
0
SEQEND
0
POLYLINE
8
R2V
62
0
66
1
70
8
0
VERTEX
8
R2V
62
0
70
32
10
3.268293
20
2.512195
30
0
0
VERTEX
8
R2V
62
0
70
32
10
3.243902
20
2.487805
30
0
0
VERTEX
8
R2V
62
0
70
32
10
3.097561
20
2.487805
30
0
0
SEQEND
0
POLYLINE
8
R2V
62
0
66
1
70
8
0
VERTEX
8
R2V
62
0
70
32
10
2.902439
20
2.707317
30
0
0
VERTEX
8
R2V
62
0
70
32
10
3.341463
20
2.707317
30
0
0
SEQEND
0
POLYLINE
8
R2V
62
0
66
1
70
8
0
VERTEX
8
R2V
62
0
70
32
10
3.682927
20
2.707317
30
0
0
VERTEX
8
R2V
62
0
70
32
10
3.731707
20
2.707317
30
0
0
SEQEND
0
POLYLINE
8
R2V
62
0
66
1
70
8
0
VERTEX
8
R2V
62
0
70
32
10
6.048780
20
2.707317
30
0
0
VERTEX
8
R2V
62
0
70
32
10
6.048780
20
2.707317
30
0
0
VERTEX
8
R2V
62
0
70
32
10
6.024390
20
2.731707
30
0
0
VERTEX
8
R2V
62
0
70
32
10
6.024390
20
2.804878
30
0
0
VERTEX
8
R2V
62
0
70
32
10
6.048780
20
2.829268
30
0
0
VERTEX
8
R2V
62
0
70
32
10
6.024390
20
2.853659
30
0
0
VERTEX
8
R2V
62
0
70
32
10
6.024390
20
3.000000
30
0
0
VERTEX
8
R2V
62
0
70
32
10
6.048780
20
3.024390
30
0
0
VERTEX
8
R2V
62
0
70
32
10
6.048780
20
3.048780
30
0
0
VERTEX
8
R2V
62
0
70
32
10
6.024390
20
3.073171
30
0
0
VERTEX
8
R2V
62
0
70
32
10
6.024390
20
3.146341
30
0
0
VERTEX
8
R2V
62
0
70
32
10
6.048780
20
3.170732
30
0
0
VERTEX
8
R2V
62
0
70
32
10
6.048780
20
3.219512
30
0
0
VERTEX
8
R2V
62
0
70
32
10
6.024390
20
3.243902
30
0
0
VERTEX
8
R2V
62
0
70
32
10
6.024390
20
3.780488
30
0
0
VERTEX
8
R2V
62
0
70
32
10
6.048780
20
3.804878
30
0
0
VERTEX
8
R2V
62
0
70
32
10
6.024390
20
3.829268
30
0
0
VERTEX
8
R2V
62
0
70
32
10
6.024390
20
3.902439
30
0
0
VERTEX
8
R2V
62
0
70
32
10
6.048780
20
3.926829
30
0
0
VERTEX
8
R2V
62
0
70
32
10
6.024390
20
3.951220
30
0
0
VERTEX
8
R2V
62
0
70
32
10
6.024390
20
4.195122
30
0
0
VERTEX
8
R2V
62
0
70
32
10
6.048780
20
4.219512
30
0
0
VERTEX
8
R2V
62
0
70
32
10
6.024390
20
4.243902
30
0
0
VERTEX
8
R2V
62
0
70
32
10
6.024390
20
4.487805
30
0
0
VERTEX
8
R2V
62
0
70
32
10
6.048780
20
4.512195
30
0
0
VERTEX
8
R2V
62
0
70
32
10
6.048780
20
4.609756
30
0
0
VERTEX
8
R2V
62
0
70
32
10
6.024390
20
4.634146
30
0
0
VERTEX
8
R2V
62
0
70
32
10
6.024390
20
4.804878
30
0
0
VERTEX
8
R2V
62
0
70
32
10
6.048780
20
4.829268
30
0
0
VERTEX
8
R2V
62
0
70
32
10
6.048780
20
4.902439
30
0
0
VERTEX
8
R2V
62
0
70
32
10
6.024390
20
4.926829
30
0
0
VERTEX
8
R2V
62
0
70
32
10
6.024390
20
5.341463
30
0
0
VERTEX
8
R2V
62
0
70
32
10
6.048780
20
5.365854
30
0
0
VERTEX
8
R2V
62
0
70
32
10
6.292683
20
5.365854
30
0
0
VERTEX
8
R2V
62
0
70
32
10
6.317073
20
5.341463
30
0
0
VERTEX
8
R2V
62
0
70
32
10
6.463415
20
5.341463
30
0
0
VERTEX
8
R2V
62
0
70
32
10
6.487805
20
5.365854
30
0
0
VERTEX
8
R2V
62
0
70
32
10
6.682927
20
5.365854
30
0
0
VERTEX
8
R2V
62
0
70
32
10
6.707317
20
5.341463
30
0
0
VERTEX
8
R2V
62
0
70
32
10
6.780488
20
5.341463
30
0
0
VERTEX
8
R2V
62
0
70
32
10
6.804878
20
5.365854
30
0
0
VERTEX
8
R2V
62
0
70
32
10
6.829268
20
5.365854
30
0
0
VERTEX
8
R2V
62
0
70
32
10
6.853659
20
5.341463
30
0
0
VERTEX
8
R2V
62
0
70
32
10
7.512195
20
5.341463
30
0
0
VERTEX
8
R2V
62
0
70
32
10
7.536585
20
5.365854
30
0
0
VERTEX
8
R2V
62
0
70
32
10
7.682927
20
5.365854
30
0
0
VERTEX
8
R2V
62
0
70
32
10
7.707317
20
5.341463
30
0
0
VERTEX
8
R2V
62
0
70
32
10
8.634146
20
5.341463
30
0
0
VERTEX
8
R2V
62
0
70
32
10
8.658537
20
5.365854
30
0
0
VERTEX
8
R2V
62
0
70
32
10
8.682927
20
5.390244
30
0
0
VERTEX
8
R2V
62
0
70
32
10
8.682927
20
5.414634
30
0
0
VERTEX
8
R2V
62
0
70
32
10
8.707317
20
5.439024
30
0
0
VERTEX
8
R2V
62
0
70
32
10
8.707317
20
5.463415
30
0
0
VERTEX
8
R2V
62
0
70
32
10
8.731707
20
5.487805
30
0
0
VERTEX
8
R2V
62
0
70
32
10
8.731707
20
5.560976
30
0
0
VERTEX
8
R2V
62
0
70
32
10
8.756098
20
5.585366
30
0
0
VERTEX
8
R2V
62
0
70
32
10
8.756098
20
5.634146
30
0
0
VERTEX
8
R2V
62
0
70
32
10
8.780488
20
5.658537
30
0
0
VERTEX
8
R2V
62
0
70
32
10
8.780488
20
5.682927
30
0
0
VERTEX
8
R2V
62
0
70
32
10
8.804878
20
5.707317
30
0
0
VERTEX
8
R2V
62
0
70
32
10
8.804878
20
5.756098
30
0
0
VERTEX
8
R2V
62
0
70
32
10
8.780488
20
5.780488
30
0
0
VERTEX
8
R2V
62
0
70
32
10
8.780488
20
5.804878
30
0
0
VERTEX
8
R2V
62
0
70
32
10
8.756098
20
5.804878
30
0
0
VERTEX
8
R2V
62
0
70
32
10
8.731707
20
5.829268
30
0
0
VERTEX
8
R2V
62
0
70
32
10
6.048780
20
5.829268
30
0
0
VERTEX
8
R2V
62
0
70
32
10
6.024390
20
5.853659
30
0
0
VERTEX
8
R2V
62
0
70
32
10
6.024390
20
6.658537
30
0
0
VERTEX
8
R2V
62
0
70
32
10
6.048780
20
6.682927
30
0
0
VERTEX
8
R2V
62
0
70
32
10
6.048780
20
6.707317
30
0
0
VERTEX
8
R2V
62
0
70
32
10
6.024390
20
6.731707
30
0
0
VERTEX
8
R2V
62
0
70
32
10
6.024390
20
8.073171
30
0
0
VERTEX
8
R2V
62
0
70
32
10
6.048780
20
8.097561
30
0
0
VERTEX
8
R2V
62
0
70
32
10
6.024390
20
8.121951
30
0
0
VERTEX
8
R2V
62
0
70
32
10
6.024390
20
8.317073
30
0
0
VERTEX
8
R2V
62
0
70
32
10
6.000000
20
8.341463
30
0
0
VERTEX
8
R2V
62
0
70
32
10
5.975610
20
8.341463
30
0
0
VERTEX
8
R2V
62
0
70
32
10
5.951220
20
8.365854
30
0
0
VERTEX
8
R2V
62
0
70
32
10
5.926829
20
8.390244
30
0
0
VERTEX
8
R2V
62
0
70
32
10
5.902439
20
8.414634
30
0
0
VERTEX
8
R2V
62
0
70
32
10
5.829268
20
8.414634
30
0
0
VERTEX
8
R2V
62
0
70
32
10
5.804878
20
8.439024
30
0
0
VERTEX
8
R2V
62
0
70
32
10
5.756098
20
8.439024
30
0
0
VERTEX
8
R2V
62
0
70
32
10
5.731707
20
8.463415
30
0
0
VERTEX
8
R2V
62
0
70
32
10
5.585366
20
8.463415
30
0
0
VERTEX
8
R2V
62
0
70
32
10
5.560976
20
8.439024
30
0
0
VERTEX
8
R2V
62
0
70
32
10
5.560976
20
8.414634
30
0
0
VERTEX
8
R2V
62
0
70
32
10
5.536585
20
8.390244
30
0
0
VERTEX
8
R2V
62
0
70
32
10
5.536585
20
7.975610
30
0
0
VERTEX
8
R2V
62
0
70
32
10
5.560976
20
7.951220
30
0
0
VERTEX
8
R2V
62
0
70
32
10
5.560976
20
7.878049
30
0
0
VERTEX
8
R2V
62
0
70
32
10
5.536585
20
7.853659
30
0
0
VERTEX
8
R2V
62
0
70
32
10
5.536585
20
7.439024
30
0
0
VERTEX
8
R2V
62
0
70
32
10
5.560976
20
7.414634
30
0
0
VERTEX
8
R2V
62
0
70
32
10
5.536585
20
7.390244
30
0
0
VERTEX
8
R2V
62
0
70
32
10
5.536585
20
7.317073
30
0
0
VERTEX
8
R2V
62
0
70
32
10
5.560976
20
7.292683
30
0
0
VERTEX
8
R2V
62
0
70
32
10
5.560976
20
7.268293
30
0
0
VERTEX
8
R2V
62
0
70
32
10
5.536585
20
7.243902
30
0
0
VERTEX
8
R2V
62
0
70
32
10
5.536585
20
6.195122
30
0
0
VERTEX
8
R2V
62
0
70
32
10
5.560976
20
6.170732
30
0
0
VERTEX
8
R2V
62
0
70
32
10
5.560976
20
6.146341
30
0
0
VERTEX
8
R2V
62
0
70
32
10
5.536585
20
6.121951
30
0
0
VERTEX
8
R2V
62
0
70
32
10
5.536585
20
6.000000
30
0
0
VERTEX
8
R2V
62
0
70
32
10
5.560976
20
5.975610
30
0
0
VERTEX
8
R2V
62
0
70
32
10
5.560976
20
5.878049
30
0
0
VERTEX
8
R2V
62
0
70
32
10
5.536585
20
5.853659
30
0
0
VERTEX
8
R2V
62
0
70
32
10
5.536585
20
5.439024
30
0
0
VERTEX
8
R2V
62
0
70
32
10
5.512195
20
5.463415
30
0
0
VERTEX
8
R2V
62
0
70
32
10
5.487805
20
5.463415
30
0
0
VERTEX
8
R2V
62
0
70
32
10
5.463415
20
5.487805
30
0
0
VERTEX
8
R2V
62
0
70
32
10
5.439024
20
5.512195
30
0
0
VERTEX
8
R2V
62
0
70
32
10
5.414634
20
5.512195
30
0
0
VERTEX
8
R2V
62
0
70
32
10
5.390244
20
5.536585
30
0
0
VERTEX
8
R2V
62
0
70
32
10
5.390244
20
5.560976
30
0
0
VERTEX
8
R2V
62
0
70
32
10
5.365854
20
5.585366
30
0
0
VERTEX
8
R2V
62
0
70
32
10
5.317073
20
5.585366
30
0
0
VERTEX
8
R2V
62
0
70
32
10
5.292683
20
5.560976
30
0
0
VERTEX
8
R2V
62
0
70
32
10
5.292683
20
5.536585
30
0
0
VERTEX
8
R2V
62
0
70
32
10
5.268293
20
5.512195
30
0
0
VERTEX
8
R2V
62
0
70
32
10
5.268293
20
5.487805
30
0
0
VERTEX
8
R2V
62
0
70
32
10
5.243902
20
5.463415
30
0
0
VERTEX
8
R2V
62
0
70
32
10
5.219512
20
5.439024
30
0
0
VERTEX
8
R2V
62
0
70
32
10
5.219512
20
5.365854
30
0
0
VERTEX
8
R2V
62
0
70
32
10
2.902439
20
5.365854
30
0
0
SEQEND
0
POLYLINE
8
R2V
62
0
66
1
70
8
0
VERTEX
8
R2V
62
0
70
32
10
4.073171
20
2.853659
30
0
0
VERTEX
8
R2V
62
0
70
32
10
4.073171
20
2.951220
30
0
0
VERTEX
8
R2V
62
0
70
32
10
4.024390
20
2.951220
30
0
0
SEQEND
0
POLYLINE
8
R2V
62
0
66
1
70
8
0
VERTEX
8
R2V
62
0
70
32
10
4.073171
20
2.853659
30
0
0
VERTEX
8
R2V
62
0
70
32
10
4.097561
20
2.853659
30
0
0
VERTEX
8
R2V
62
0
70
32
10
4.097561
20
2.804878
30
0
0
VERTEX
8
R2V
62
0
70
32
10
4.048780
20
2.804878
30
0
0
VERTEX
8
R2V
62
0
70
32
10
4.048780
20
2.853659
30
0
0
VERTEX
8
R2V
62
0
70
32
10
4.073171
20
2.853659
30
0
0
SEQEND
0
POLYLINE
8
R2V
62
0
66
1
70
8
0
VERTEX
8
R2V
62
0
70
32
10
3.878049
20
2.926829
30
0
0
VERTEX
8
R2V
62
0
70
32
10
3.878049
20
2.926829
30
0
0
VERTEX
8
R2V
62
0
70
32
10
3.878049
20
3.048780
30
0
0
VERTEX
8
R2V
62
0
70
32
10
3.853659
20
3.073171
30
0
0
VERTEX
8
R2V
62
0
70
32
10
3.780488
20
3.073171
30
0
0
VERTEX
8
R2V
62
0
70
32
10
3.780488
20
3.048780
30
0
0
VERTEX
8
R2V
62
0
70
32
10
3.756098
20
3.024390
30
0
0
VERTEX
8
R2V
62
0
70
32
10
3.756098
20
2.951220
30
0
0
VERTEX
8
R2V
62
0
70
32
10
3.780488
20
2.926829
30
0
0
VERTEX
8
R2V
62
0
70
32
10
3.804878
20
2.902439
30
0
0
VERTEX
8
R2V
62
0
70
32
10
3.829268
20
2.902439
30
0
0
VERTEX
8
R2V
62
0
70
32
10
3.853659
20
2.926829
30
0
0
VERTEX
8
R2V
62
0
70
32
10
3.926829
20
2.926829
30
0
0
SEQEND
0
POLYLINE
8
R2V
62
0
66
1
70
8
0
VERTEX
8
R2V
62
0
70
32
10
9.756098
20
4.000000
30
0
0
VERTEX
8
R2V
62
0
70
32
10
9.756098
20
4.097561
30
0
0
VERTEX
8
R2V
62
0
70
32
10
9.707317
20
4.097561
30
0
0
SEQEND
0
POLYLINE
8
R2V
62
0
66
1
70
8
0
VERTEX
8
R2V
62
0
70
32
10
9.756098
20
4.000000
30
0
0
VERTEX
8
R2V
62
0
70
32
10
9.731707
20
4.000000
30
0
0
VERTEX
8
R2V
62
0
70
32
10
9.731707
20
3.951220
30
0
0
VERTEX
8
R2V
62
0
70
32
10
9.780488
20
3.951220
30
0
0
VERTEX
8
R2V
62
0
70
32
10
9.780488
20
3.975610
30
0
0
VERTEX
8
R2V
62
0
70
32
10
9.756098
20
4.000000
30
0
0
SEQEND
0
POLYLINE
8
R2V
62
0
66
1
70
8
0
VERTEX
8
R2V
62
0
70
32
10
9.560976
20
4.073171
30
0
0
VERTEX
8
R2V
62
0
70
32
10
9.560976
20
4.170732
30
0
0
VERTEX
8
R2V
62
0
70
32
10
9.609756
20
4.170732
30
0
0
VERTEX
8
R2V
62
0
70
32
10
9.609756
20
4.146341
30
0
0
VERTEX
8
R2V
62
0
70
32
10
9.585366
20
4.121951
30
0
0
VERTEX
8
R2V
62
0
70
32
10
9.560976
20
4.121951
30
0
0
SEQEND
0
POLYLINE
8
R2V
62
0
66
1
70
8
0
VERTEX
8
R2V
62
0
70
32
10
9.560976
20
4.073171
30
0
0
VERTEX
8
R2V
62
0
70
32
10
9.560976
20
4.024390
30
0
0
VERTEX
8
R2V
62
0
70
32
10
9.512195
20
4.024390
30
0
0
VERTEX
8
R2V
62
0
70
32
10
9.512195
20
4.073171
30
0
0
VERTEX
8
R2V
62
0
70
32
10
9.560976
20
4.073171
30
0
0
SEQEND
0
POLYLINE
8
R2V
62
0
66
1
70
8
0
VERTEX
8
R2V
62
0
70
32
10
6.731707
20
4.585366
30
0
0
VERTEX
8
R2V
62
0
70
32
10
6.731707
20
4.634146
30
0
0
SEQEND
0
POLYLINE
8
R2V
62
0
66
1
70
8
0
VERTEX
8
R2V
62
0
70
32
10
6.731707
20
4.585366
30
0
0
VERTEX
8
R2V
62
0
70
32
10
6.731707
20
4.536585
30
0
0
VERTEX
8
R2V
62
0
70
32
10
6.682927
20
4.536585
30
0
0
VERTEX
8
R2V
62
0
70
32
10
6.682927
20
4.560976
30
0
0
VERTEX
8
R2V
62
0
70
32
10
6.707317
20
4.585366
30
0
0
VERTEX
8
R2V
62
0
70
32
10
6.731707
20
4.585366
30
0
0
SEQEND
0
POLYLINE
8
R2V
62
0
66
1
70
8
0
VERTEX
8
R2V
62
0
70
32
10
6.585366
20
4.634146
30
0
0
VERTEX
8
R2V
62
0
70
32
10
6.585366
20
4.756098
30
0
0
VERTEX
8
R2V
62
0
70
32
10
6.560976
20
4.780488
30
0
0
VERTEX
8
R2V
62
0
70
32
10
6.512195
20
4.780488
30
0
0
VERTEX
8
R2V
62
0
70
32
10
6.487805
20
4.756098
30
0
0
VERTEX
8
R2V
62
0
70
32
10
6.487805
20
4.682927
30
0
0
VERTEX
8
R2V
62
0
70
32
10
6.585366
20
4.682927
30
0
0
SEQEND
0
POLYLINE
8
R2V
62
0
66
1
70
8
0
VERTEX
8
R2V
62
0
70
32
10
6.585366
20
4.634146
30
0
0
VERTEX
8
R2V
62
0
70
32
10
6.609756
20
4.609756
30
0
0
SEQEND
0
POLYLINE
8
R2V
62
0
66
1
70
8
0
VERTEX
8
R2V
62
0
70
32
10
6.585366
20
4.634146
30
0
0
VERTEX
8
R2V
62
0
70
32
10
6.560976
20
4.609756
30
0
0
SEQEND
0
POLYLINE
8
R2V
62
0
66
1
70
8
0
VERTEX
8
R2V
62
0
70
32
10
6.439024
20
4.707317
30
0
0
VERTEX
8
R2V
62
0
70
32
10
6.463415
20
4.707317
30
0
0
VERTEX
8
R2V
62
0
70
32
10
6.439024
20
4.682927
30
0
0
VERTEX
8
R2V
62
0
70
32
10
6.439024
20
4.634146
30
0
0
VERTEX
8
R2V
62
0
70
32
10
6.414634
20
4.609756
30
0
0
SEQEND
0
POLYLINE
8
R2V
62
0
66
1
70
8
0
VERTEX
8
R2V
62
0
70
32
10
6.439024
20
4.707317
30
0
0
VERTEX
8
R2V
62
0
70
32
10
6.439024
20
4.707317
30
0
0
VERTEX
8
R2V
62
0
70
32
10
6.195122
20
4.707317
30
0
0
VERTEX
8
R2V
62
0
70
32
10
6.170732
20
4.731707
30
0
0
VERTEX
8
R2V
62
0
70
32
10
6.146341
20
4.756098
30
0
0
VERTEX
8
R2V
62
0
70
32
10
6.121951
20
4.780488
30
0
0
VERTEX
8
R2V
62
0
70
32
10
6.097561
20
4.804878
30
0
0
VERTEX
8
R2V
62
0
70
32
10
6.073171
20
4.804878
30
0
0
VERTEX
8
R2V
62
0
70
32
10
6.048780
20
4.829268
30
0
0
SEQEND
0
POLYLINE
8
R2V
62
0
66
1
70
8
0
VERTEX
8
R2V
62
0
70
32
10
6.024390
20
4.926829
30
0
0
VERTEX
8
R2V
62
0
70
32
10
6.024390
20
4.926829
30
0
0
VERTEX
8
R2V
62
0
70
32
10
5.975610
20
4.926829
30
0
0
VERTEX
8
R2V
62
0
70
32
10
5.951220
20
4.951220
30
0
0
VERTEX
8
R2V
62
0
70
32
10
5.951220
20
4.975610
30
0
0
VERTEX
8
R2V
62
0
70
32
10
5.926829
20
5.000000
30
0
0
VERTEX
8
R2V
62
0
70
32
10
5.926829
20
5.024390
30
0
0
VERTEX
8
R2V
62
0
70
32
10
5.902439
20
5.024390
30
0
0
VERTEX
8
R2V
62
0
70
32
10
5.878049
20
5.048780
30
0
0
VERTEX
8
R2V
62
0
70
32
10
5.853659
20
5.073171
30
0
0
VERTEX
8
R2V
62
0
70
32
10
5.829268
20
5.073171
30
0
0
VERTEX
8
R2V
62
0
70
32
10
5.804878
20
5.097561
30
0
0
VERTEX
8
R2V
62
0
70
32
10
5.804878
20
5.146341
30
0
0
SEQEND
0
POLYLINE
8
R2V
62
0
66
1
70
8
0
VERTEX
8
R2V
62
0
70
32
10
2.414634
20
5.365854
30
0
0
VERTEX
8
R2V
62
0
70
32
10
2.414634
20
5.365854
30
0
0
VERTEX
8
R2V
62
0
70
32
10
1.317073
20
5.365854
30
0
0
VERTEX
8
R2V
62
0
70
32
10
1.292683
20
5.390244
30
0
0
VERTEX
8
R2V
62
0
70
32
10
1.292683
20
5.414634
30
0
0
VERTEX
8
R2V
62
0
70
32
10
1.268293
20
5.439024
30
0
0
VERTEX
8
R2V
62
0
70
32
10
1.268293
20
5.463415
30
0
0
VERTEX
8
R2V
62
0
70
32
10
1.243902
20
5.487805
30
0
0
VERTEX
8
R2V
62
0
70
32
10
1.219512
20
5.512195
30
0
0
VERTEX
8
R2V
62
0
70
32
10
1.219512
20
5.609756
30
0
0
VERTEX
8
R2V
62
0
70
32
10
1.195122
20
5.634146
30
0
0
VERTEX
8
R2V
62
0
70
32
10
1.195122
20
5.658537
30
0
0
VERTEX
8
R2V
62
0
70
32
10
1.170732
20
5.682927
30
0
0
VERTEX
8
R2V
62
0
70
32
10
1.170732
20
5.804878
30
0
0
VERTEX
8
R2V
62
0
70
32
10
1.195122
20
5.829268
30
0
0
VERTEX
8
R2V
62
0
70
32
10
2.414634
20
5.829268
30
0
0
SEQEND
0
POLYLINE
8
R2V
62
0
66
1
70
8
0
VERTEX
8
R2V
62
0
70
32
10
5.121951
20
5.365854
30
0
0
VERTEX
8
R2V
62
0
70
32
10
5.121951
20
5.292683
30
0
0
SEQEND
0
POLYLINE
8
R2V
62
0
66
1
70
8
0
VERTEX
8
R2V
62
0
70
32
10
5.219512
20
5.365854
30
0
0
VERTEX
8
R2V
62
0
70
32
10
5.536585
20
5.365854
30
0
0
SEQEND
0
POLYLINE
8
R2V
62
0
66
1
70
8
0
VERTEX
8
R2V
62
0
70
32
10
6.048780
20
5.365854
30
0
0
VERTEX
8
R2V
62
0
70
32
10
6.024390
20
5.390244
30
0
0
VERTEX
8
R2V
62
0
70
32
10
6.024390
20
5.804878
30
0
0
VERTEX
8
R2V
62
0
70
32
10
6.048780
20
5.829268
30
0
0
SEQEND
0
POLYLINE
8
R2V
62
0
66
1
70
8
0
VERTEX
8
R2V
62
0
70
32
10
7.682927
20
5.365854
30
0
0
VERTEX
8
R2V
62
0
70
32
10
7.682927
20
5.439024
30
0
0
SEQEND
0
POLYLINE
8
R2V
62
0
66
1
70
8
0
VERTEX
8
R2V
62
0
70
32
10
5.780488
20
5.390244
30
0
0
VERTEX
8
R2V
62
0
70
32
10
5.780488
20
6.292683
30
0
0
VERTEX
8
R2V
62
0
70
32
10
5.804878
20
6.317073
30
0
0
VERTEX
8
R2V
62
0
70
32
10
5.804878
20
6.341463
30
0
0
VERTEX
8
R2V
62
0
70
32
10
5.780488
20
6.365854
30
0
0
VERTEX
8
R2V
62
0
70
32
10
5.780488
20
6.439024
30
0
0
SEQEND
0
POLYLINE
8
R2V
62
0
66
1
70
8
0
VERTEX
8
R2V
62
0
70
32
10
5.341463
20
5.585366
30
0
0
VERTEX
8
R2V
62
0
70
32
10
5.341463
20
5.585366
30
0
0
VERTEX
8
R2V
62
0
70
32
10
5.341463
20
5.634146
30
0
0
VERTEX
8
R2V
62
0
70
32
10
5.365854
20
5.658537
30
0
0
VERTEX
8
R2V
62
0
70
32
10
5.390244
20
5.682927
30
0
0
VERTEX
8
R2V
62
0
70
32
10
5.390244
20
5.707317
30
0
0
VERTEX
8
R2V
62
0
70
32
10
5.414634
20
5.731707
30
0
0
VERTEX
8
R2V
62
0
70
32
10
5.439024
20
5.731707
30
0
0
VERTEX
8
R2V
62
0
70
32
10
5.439024
20
5.780488
30
0
0
SEQEND
0
POLYLINE
8
R2V
62
0
66
1
70
8
0
VERTEX
8
R2V
62
0
70
32
10
5.341463
20
5.585366
30
0
0
VERTEX
8
R2V
62
0
70
32
10
5.317073
20
5.560976
30
0
0
SEQEND
0
POLYLINE
8
R2V
62
0
66
1
70
8
0
VERTEX
8
R2V
62
0
70
32
10
9.414634
20
5.585366
30
0
0
VERTEX
8
R2V
62
0
70
32
10
8.951220
20
5.585366
30
0
0
SEQEND
0
POLYLINE
8
R2V
62
0
66
1
70
8
0
VERTEX
8
R2V
62
0
70
32
10
2.902439
20
5.829268
30
0
0
VERTEX
8
R2V
62
0
70
32
10
5.536585
20
5.829268
30
0
0
SEQEND
0
POLYLINE
8
R2V
62
0
66
1
70
8
0
VERTEX
8
R2V
62
0
70
32
10
5.560976
20
6.000000
30
0
0
VERTEX
8
R2V
62
0
70
32
10
5.560976
20
6.000000
30
0
0
VERTEX
8
R2V
62
0
70
32
10
5.609756
20
6.000000
30
0
0
VERTEX
8
R2V
62
0
70
32
10
5.609756
20
6.024390
30
0
0
VERTEX
8
R2V
62
0
70
32
10
5.634146
20
6.048780
30
0
0
VERTEX
8
R2V
62
0
70
32
10
5.658537
20
6.073171
30
0
0
VERTEX
8
R2V
62
0
70
32
10
5.658537
20
6.097561
30
0
0
VERTEX
8
R2V
62
0
70
32
10
5.682927
20
6.121951
30
0
0
VERTEX
8
R2V
62
0
70
32
10
5.682927
20
6.146341
30
0
0
VERTEX
8
R2V
62
0
70
32
10
5.707317
20
6.170732
30
0
0
VERTEX
8
R2V
62
0
70
32
10
5.731707
20
6.195122
30
0
0
VERTEX
8
R2V
62
0
70
32
10
5.780488
20
6.195122
30
0
0
SEQEND
0
POLYLINE
8
R2V
62
0
66
1
70
8
0
VERTEX
8
R2V
62
0
70
32
10
4.390244
20
6.146341
30
0
0
VERTEX
8
R2V
62
0
70
32
10
4.390244
20
6.268293
30
0
0
SEQEND
0
POLYLINE
8
R2V
62
0
66
1
70
8
0
VERTEX
8
R2V
62
0
70
32
10
4.390244
20
6.146341
30
0
0
VERTEX
8
R2V
62
0
70
32
10
4.390244
20
6.146341
30
0
0
VERTEX
8
R2V
62
0
70
32
10
4.585366
20
6.146341
30
0
0
VERTEX
8
R2V
62
0
70
32
10
4.609756
20
6.170732
30
0
0
VERTEX
8
R2V
62
0
70
32
10
4.609756
20
6.219512
30
0
0
VERTEX
8
R2V
62
0
70
32
10
4.585366
20
6.243902
30
0
0
VERTEX
8
R2V
62
0
70
32
10
4.585366
20
6.292683
30
0
0
VERTEX
8
R2V
62
0
70
32
10
4.487805
20
6.292683
30
0
0
VERTEX
8
R2V
62
0
70
32
10
4.487805
20
6.146341
30
0
0
SEQEND
0
POLYLINE
8
R2V
62
0
66
1
70
8
0
VERTEX
8
R2V
62
0
70
32
10
4.390244
20
6.146341
30
0
0
VERTEX
8
R2V
62
0
70
32
10
4.390244
20
6.146341
30
0
0
VERTEX
8
R2V
62
0
70
32
10
4.292683
20
6.146341
30
0
0
VERTEX
8
R2V
62
0
70
32
10
4.292683
20
6.170732
30
0
0
VERTEX
8
R2V
62
0
70
32
10
4.268293
20
6.195122
30
0
0
VERTEX
8
R2V
62
0
70
32
10
4.268293
20
6.317073
30
0
0
VERTEX
8
R2V
62
0
70
32
10
4.243902
20
6.317073
30
0
0
VERTEX
8
R2V
62
0
70
32
10
4.219512
20
6.292683
30
0
0
VERTEX
8
R2V
62
0
70
32
10
4.195122
20
6.268293
30
0
0
VERTEX
8
R2V
62
0
70
32
10
4.195122
20
6.170732
30
0
0
VERTEX
8
R2V
62
0
70
32
10
4.170732
20
6.146341
30
0
0
VERTEX
8
R2V
62
0
70
32
10
4.097561
20
6.146341
30
0
0
VERTEX
8
R2V
62
0
70
32
10
4.073171
20
6.170732
30
0
0
VERTEX
8
R2V
62
0
70
32
10
4.073171
20
6.195122
30
0
0
VERTEX
8
R2V
62
0
70
32
10
4.048780
20
6.219512
30
0
0
VERTEX
8
R2V
62
0
70
32
10
4.048780
20
6.243902
30
0
0
VERTEX
8
R2V
62
0
70
32
10
4.073171
20
6.268293
30
0
0
VERTEX
8
R2V
62
0
70
32
10
4.073171
20
6.292683
30
0
0
VERTEX
8
R2V
62
0
70
32
10
4.097561
20
6.317073
30
0
0
VERTEX
8
R2V
62
0
70
32
10
4.170732
20
6.317073
30
0
0
VERTEX
8
R2V
62
0
70
32
10
4.170732
20
6.292683
30
0
0
VERTEX
8
R2V
62
0
70
32
10
4.195122
20
6.268293
30
0
0
SEQEND
0
POLYLINE
8
R2V
62
0
66
1
70
8
0
VERTEX
8
R2V
62
0
70
32
10
4.804878
20
6.146341
30
0
0
VERTEX
8
R2V
62
0
70
32
10
4.804878
20
6.365854
30
0
0
SEQEND
0
POLYLINE
8
R2V
62
0
66
1
70
8
0
VERTEX
8
R2V
62
0
70
32
10
4.804878
20
6.146341
30
0
0
VERTEX
8
R2V
62
0
70
32
10
5.073171
20
6.146341
30
0
0
VERTEX
8
R2V
62
0
70
32
10
5.073171
20
6.292683
30
0
0
VERTEX
8
R2V
62
0
70
32
10
5.219512
20
6.292683
30
0
0
VERTEX
8
R2V
62
0
70
32
10
5.243902
20
6.317073
30
0
0
SEQEND
0
POLYLINE
8
R2V
62
0
66
1
70
8
0
VERTEX
8
R2V
62
0
70
32
10
4.804878
20
6.146341
30
0
0
VERTEX
8
R2V
62
0
70
32
10
4.707317
20
6.146341
30
0
0
VERTEX
8
R2V
62
0
70
32
10
4.682927
20
6.170732
30
0
0
VERTEX
8
R2V
62
0
70
32
10
4.682927
20
6.268293
30
0
0
VERTEX
8
R2V
62
0
70
32
10
4.707317
20
6.292683
30
0
0
VERTEX
8
R2V
62
0
70
32
10
4.707317
20
6.317073
30
0
0
VERTEX
8
R2V
62
0
70
32
10
4.804878
20
6.317073
30
0
0
SEQEND
0
POLYLINE
8
R2V
62
0
66
1
70
8
0
VERTEX
8
R2V
62
0
70
32
10
4.878049
20
6.146341
30
0
0
VERTEX
8
R2V
62
0
70
32
10
4.878049
20
6.195122
30
0
0
VERTEX
8
R2V
62
0
70
32
10
4.902439
20
6.219512
30
0
0
VERTEX
8
R2V
62
0
70
32
10
4.926829
20
6.219512
30
0
0
VERTEX
8
R2V
62
0
70
32
10
4.951220
20
6.243902
30
0
0
VERTEX
8
R2V
62
0
70
32
10
4.975610
20
6.243902
30
0
0
VERTEX
8
R2V
62
0
70
32
10
4.975610
20
6.146341
30
0
0
SEQEND
0
POLYLINE
8
R2V
62
0
66
1
70
8
0
VERTEX
8
R2V
62
0
70
32
10
2.902439
20
6.195122
30
0
0
VERTEX
8
R2V
62
0
70
32
10
2.926829
20
6.195122
30
0
0
VERTEX
8
R2V
62
0
70
32
10
2.951220
20
6.219512
30
0
0
VERTEX
8
R2V
62
0
70
32
10
2.975610
20
6.219512
30
0
0
VERTEX
8
R2V
62
0
70
32
10
3.000000
20
6.243902
30
0
0
VERTEX
8
R2V
62
0
70
32
10
3.000000
20
6.268293
30
0
0
VERTEX
8
R2V
62
0
70
32
10
3.024390
20
6.292683
30
0
0
SEQEND
0
POLYLINE
8
R2V
62
0
66
1
70
8
0
VERTEX
8
R2V
62
0
70
32
10
4.609756
20
6.195122
30
0
0
VERTEX
8
R2V
62
0
70
32
10
4.682927
20
6.195122
30
0
0
SEQEND
0
POLYLINE
8
R2V
62
0
66
1
70
8
0
VERTEX
8
R2V
62
0
70
32
10
4.609756
20
6.195122
30
0
0
VERTEX
8
R2V
62
0
70
32
10
4.585366
20
6.219512
30
0
0
SEQEND
0
POLYLINE
8
R2V
62
0
66
1
70
8
0
VERTEX
8
R2V
62
0
70
32
10
5.292683
20
6.219512
30
0
0
VERTEX
8
R2V
62
0
70
32
10
5.317073
20
6.219512
30
0
0
VERTEX
8
R2V
62
0
70
32
10
5.317073
20
6.292683
30
0
0
SEQEND
0
POLYLINE
8
R2V
62
0
66
1
70
8
0
VERTEX
8
R2V
62
0
70
32
10
5.292683
20
6.219512
30
0
0
VERTEX
8
R2V
62
0
70
32
10
5.292683
20
6.195122
30
0
0
VERTEX
8
R2V
62
0
70
32
10
5.268293
20
6.170732
30
0
0
VERTEX
8
R2V
62
0
70
32
10
5.268293
20
6.097561
30
0
0
VERTEX
8
R2V
62
0
70
32
10
5.243902
20
6.073171
30
0
0
VERTEX
8
R2V
62
0
70
32
10
5.219512
20
6.048780
30
0
0
SEQEND
0
POLYLINE
8
R2V
62
0
66
1
70
8
0
VERTEX
8
R2V
62
0
70
32
10
5.292683
20
6.219512
30
0
0
VERTEX
8
R2V
62
0
70
32
10
5.243902
20
6.219512
30
0
0
VERTEX
8
R2V
62
0
70
32
10
5.243902
20
6.243902
30
0
0
VERTEX
8
R2V
62
0
70
32
10
5.219512
20
6.268293
30
0
0
VERTEX
8
R2V
62
0
70
32
10
5.219512
20
6.292683
30
0
0
SEQEND
0
POLYLINE
8
R2V
62
0
66
1
70
8
0
VERTEX
8
R2V
62
0
70
32
10
9.097561
20
6.219512
30
0
0
VERTEX
8
R2V
62
0
70
32
10
9.219512
20
6.219512
30
0
0
VERTEX
8
R2V
62
0
70
32
10
9.219512
20
6.097561
30
0
0
VERTEX
8
R2V
62
0
70
32
10
9.243902
20
6.073171
30
0
0
VERTEX
8
R2V
62
0
70
32
10
9.268293
20
6.048780
30
0
0
VERTEX
8
R2V
62
0
70
32
10
9.317073
20
6.048780
30
0
0
VERTEX
8
R2V
62
0
70
32
10
9.317073
20
6.219512
30
0
0
SEQEND
0
POLYLINE
8
R2V
62
0
66
1
70
8
0
VERTEX
8
R2V
62
0
70
32
10
9.097561
20
6.219512
30
0
0
VERTEX
8
R2V
62
0
70
32
10
9.097561
20
6.073171
30
0
0
VERTEX
8
R2V
62
0
70
32
10
9.073171
20
6.048780
30
0
0
VERTEX
8
R2V
62
0
70
32
10
9.000000
20
6.048780
30
0
0
VERTEX
8
R2V
62
0
70
32
10
8.975610
20
6.073171
30
0
0
VERTEX
8
R2V
62
0
70
32
10
8.975610
20
6.219512
30
0
0
VERTEX
8
R2V
62
0
70
32
10
9.097561
20
6.219512
30
0
0
SEQEND
0
POLYLINE
8
R2V
62
0
66
1
70
8
0
VERTEX
8
R2V
62
0
70
32
10
4.000000
20
6.243902
30
0
0
VERTEX
8
R2V
62
0
70
32
10
4.048780
20
6.243902
30
0
0
SEQEND
0
POLYLINE
8
R2V
62
0
66
1
70
8
0
VERTEX
8
R2V
62
0
70
32
10
4.000000
20
6.243902
30
0
0
VERTEX
8
R2V
62
0
70
32
10
4.000000
20
6.243902
30
0
0
VERTEX
8
R2V
62
0
70
32
10
3.975610
20
6.219512
30
0
0
VERTEX
8
R2V
62
0
70
32
10
3.975610
20
6.146341
30
0
0
VERTEX
8
R2V
62
0
70
32
10
3.902439
20
6.146341
30
0
0
VERTEX
8
R2V
62
0
70
32
10
3.878049
20
6.170732
30
0
0
VERTEX
8
R2V
62
0
70
32
10
3.878049
20
6.292683
30
0
0
VERTEX
8
R2V
62
0
70
32
10
3.853659
20
6.317073
30
0
0
VERTEX
8
R2V
62
0
70
32
10
3.853659
20
6.365854
30
0
0
VERTEX
8
R2V
62
0
70
32
10
3.878049
20
6.390244
30
0
0
SEQEND
0
POLYLINE
8
R2V
62
0
66
1
70
8
0
VERTEX
8
R2V
62
0
70
32
10
4.000000
20
6.243902
30
0
0
VERTEX
8
R2V
62
0
70
32
10
3.975610
20
6.268293
30
0
0
VERTEX
8
R2V
62
0
70
32
10
3.975610
20
6.292683
30
0
0
VERTEX
8
R2V
62
0
70
32
10
3.878049
20
6.292683
30
0
0
SEQEND
0
POLYLINE
8
R2V
62
0
66
1
70
8
0
VERTEX
8
R2V
62
0
70
32
10
4.926829
20
6.243902
30
0
0
VERTEX
8
R2V
62
0
70
32
10
4.926829
20
6.292683
30
0
0
VERTEX
8
R2V
62
0
70
32
10
4.975610
20
6.292683
30
0
0
VERTEX
8
R2V
62
0
70
32
10
4.975610
20
6.243902
30
0
0
SEQEND
0
POLYLINE
8
R2V
62
0
66
1
70
8
0
VERTEX
8
R2V
62
0
70
32
10
8.317073
20
6.317073
30
0
0
VERTEX
8
R2V
62
0
70
32
10
8.317073
20
6.365854
30
0
0
VERTEX
8
R2V
62
0
70
32
10
8.341463
20
6.390244
30
0
0
VERTEX
8
R2V
62
0
70
32
10
8.365854
20
6.390244
30
0
0
VERTEX
8
R2V
62
0
70
32
10
8.365854
20
6.414634
30
0
0
VERTEX
8
R2V
62
0
70
32
10
8.390244
20
6.439024
30
0
0
VERTEX
8
R2V
62
0
70
32
10
8.390244
20
6.487805
30
0
0
SEQEND
0
POLYLINE
8
R2V
62
0
66
1
70
8
0
VERTEX
8
R2V
62
0
70
32
10
8.317073
20
6.317073
30
0
0
VERTEX
8
R2V
62
0
70
32
10
8.317073
20
6.317073
30
0
0
VERTEX
8
R2V
62
0
70
32
10
8.341463
20
6.317073
30
0
0
VERTEX
8
R2V
62
0
70
32
10
8.365854
20
6.292683
30
0
0
VERTEX
8
R2V
62
0
70
32
10
8.365854
20
6.268293
30
0
0
VERTEX
8
R2V
62
0
70
32
10
8.390244
20
6.243902
30
0
0
VERTEX
8
R2V
62
0
70
32
10
8.414634
20
6.243902
30
0
0
VERTEX
8
R2V
62
0
70
32
10
8.439024
20
6.219512
30
0
0
VERTEX
8
R2V
62
0
70
32
10
8.439024
20
6.195122
30
0
0
VERTEX
8
R2V
62
0
70
32
10
8.463415
20
6.195122
30
0
0
VERTEX
8
R2V
62
0
70
32
10
8.487805
20
6.170732
30
0
0
VERTEX
8
R2V
62
0
70
32
10
8.658537
20
6.170732
30
0
0
SEQEND
0
POLYLINE
8
R2V
62
0
66
1
70
8
0
VERTEX
8
R2V
62
0
70
32
10
8.317073
20
6.317073
30
0
0
VERTEX
8
R2V
62
0
70
32
10
8.341463
20
6.292683
30
0
0
SEQEND
0
POLYLINE
8
R2V
62
0
66
1
70
8
0
VERTEX
8
R2V
62
0
70
32
10
8.317073
20
6.317073
30
0
0
VERTEX
8
R2V
62
0
70
32
10
8.292683
20
6.292683
30
0
0
VERTEX
8
R2V
62
0
70
32
10
8.268293
20
6.268293
30
0
0
VERTEX
8
R2V
62
0
70
32
10
8.243902
20
6.243902
30
0
0
VERTEX
8
R2V
62
0
70
32
10
8.219512
20
6.219512
30
0
0
VERTEX
8
R2V
62
0
70
32
10
8.219512
20
6.195122
30
0
0
SEQEND
0
POLYLINE
8
R2V
62
0
66
1
70
8
0
VERTEX
8
R2V
62
0
70
32
10
8.317073
20
6.365854
30
0
0
VERTEX
8
R2V
62
0
70
32
10
8.341463
20
6.365854
30
0
0
SEQEND
0
POLYLINE
8
R2V
62
0
66
1
70
8
0
VERTEX
8
R2V
62
0
70
32
10
8.317073
20
6.365854
30
0
0
VERTEX
8
R2V
62
0
70
32
10
8.317073
20
6.365854
30
0
0
VERTEX
8
R2V
62
0
70
32
10
8.292683
20
6.365854
30
0
0
VERTEX
8
R2V
62
0
70
32
10
8.268293
20
6.390244
30
0
0
VERTEX
8
R2V
62
0
70
32
10
8.268293
20
6.414634
30
0
0
VERTEX
8
R2V
62
0
70
32
10
8.243902
20
6.439024
30
0
0
VERTEX
8
R2V
62
0
70
32
10
8.219512
20
6.439024
30
0
0
VERTEX
8
R2V
62
0
70
32
10
8.195122
20
6.463415
30
0
0
VERTEX
8
R2V
62
0
70
32
10
8.195122
20
6.487805
30
0
0
VERTEX
8
R2V
62
0
70
32
10
8.170732
20
6.487805
30
0
0
VERTEX
8
R2V
62
0
70
32
10
8.146341
20
6.512195
30
0
0
VERTEX
8
R2V
62
0
70
32
10
8.146341
20
6.536585
30
0
0
VERTEX
8
R2V
62
0
70
32
10
8.121951
20
6.536585
30
0
0
VERTEX
8
R2V
62
0
70
32
10
8.097561
20
6.560976
30
0
0
VERTEX
8
R2V
62
0
70
32
10
8.097561
20
6.585366
30
0
0
VERTEX
8
R2V
62
0
70
32
10
8.073171
20
6.609756
30
0
0
VERTEX
8
R2V
62
0
70
32
10
8.048780
20
6.609756
30
0
0
SEQEND
0
POLYLINE
8
R2V
62
0
66
1
70
8
0
VERTEX
8
R2V
62
0
70
32
10
4.219512
20
6.609756
30
0
0
VERTEX
8
R2V
62
0
70
32
10
4.219512
20
6.609756
30
0
0
VERTEX
8
R2V
62
0
70
32
10
4.268293
20
6.609756
30
0
0
VERTEX
8
R2V
62
0
70
32
10
4.292683
20
6.634146
30
0
0
VERTEX
8
R2V
62
0
70
32
10
4.341463
20
6.634146
30
0
0
VERTEX
8
R2V
62
0
70
32
10
4.341463
20
6.512195
30
0
0
VERTEX
8
R2V
62
0
70
32
10
4.365854
20
6.487805
30
0
0
VERTEX
8
R2V
62
0
70
32
10
4.390244
20
6.463415
30
0
0
VERTEX
8
R2V
62
0
70
32
10
4.439024
20
6.463415
30
0
0
VERTEX
8
R2V
62
0
70
32
10
4.463415
20
6.487805
30
0
0
VERTEX
8
R2V
62
0
70
32
10
4.463415
20
6.609756
30
0
0
VERTEX
8
R2V
62
0
70
32
10
4.487805
20
6.634146
30
0
0
VERTEX
8
R2V
62
0
70
32
10
4.560976
20
6.634146
30
0
0
VERTEX
8
R2V
62
0
70
32
10
4.560976
20
6.609756
30
0
0
VERTEX
8
R2V
62
0
70
32
10
4.536585
20
6.585366
30
0
0
VERTEX
8
R2V
62
0
70
32
10
4.536585
20
6.512195
30
0
0
SEQEND
0
POLYLINE
8
R2V
62
0
66
1
70
8
0
VERTEX
8
R2V
62
0
70
32
10
4.219512
20
6.609756
30
0
0
VERTEX
8
R2V
62
0
70
32
10
4.219512
20
6.609756
30
0
0
VERTEX
8
R2V
62
0
70
32
10
4.219512
20
6.463415
30
0
0
VERTEX
8
R2V
62
0
70
32
10
4.121951
20
6.463415
30
0
0
VERTEX
8
R2V
62
0
70
32
10
4.097561
20
6.487805
30
0
0
VERTEX
8
R2V
62
0
70
32
10
4.097561
20
6.634146
30
0
0
VERTEX
8
R2V
62
0
70
32
10
4.195122
20
6.634146
30
0
0
VERTEX
8
R2V
62
0
70
32
10
4.219512
20
6.609756
30
0
0
VERTEX
8
R2V
62
0
70
32
10
4.195122
20
6.609756
30
0
0
SEQEND
0
POLYLINE
8
R2V
62
0
66
1
70
8
0
VERTEX
8
R2V
62
0
70
32
10
6.048780
20
6.707317
30
0
0
VERTEX
8
R2V
62
0
70
32
10
6.048780
20
6.707317
30
0
0
VERTEX
8
R2V
62
0
70
32
10
6.097561
20
6.707317
30
0
0
VERTEX
8
R2V
62
0
70
32
10
6.097561
20
6.731707
30
0
0
VERTEX
8
R2V
62
0
70
32
10
6.121951
20
6.756098
30
0
0
VERTEX
8
R2V
62
0
70
32
10
6.121951
20
6.780488
30
0
0
VERTEX
8
R2V
62
0
70
32
10
6.146341
20
6.804878
30
0
0
VERTEX
8
R2V
62
0
70
32
10
6.170732
20
6.829268
30
0
0
VERTEX
8
R2V
62
0
70
32
10
6.170732
20
6.853659
30
0
0
VERTEX
8
R2V
62
0
70
32
10
6.195122
20
6.878049
30
0
0
VERTEX
8
R2V
62
0
70
32
10
6.219512
20
6.902439
30
0
0
SEQEND
0
POLYLINE
8
R2V
62
0
66
1
70
8
0
VERTEX
8
R2V
62
0
70
32
10
6.048780
20
6.707317
30
0
0
VERTEX
8
R2V
62
0
70
32
10
6.024390
20
6.707317
30
0
0
SEQEND
0
POLYLINE
8
R2V
62
0
66
1
70
8
0
VERTEX
8
R2V
62
0
70
32
10
7.512195
20
7.390244
30
0
0
VERTEX
8
R2V
62
0
70
32
10
7.512195
20
7.390244
30
0
0
VERTEX
8
R2V
62
0
70
32
10
7.512195
20
7.414634
30
0
0
VERTEX
8
R2V
62
0
70
32
10
7.536585
20
7.439024
30
0
0
VERTEX
8
R2V
62
0
70
32
10
7.560976
20
7.439024
30
0
0
VERTEX
8
R2V
62
0
70
32
10
7.560976
20
7.414634
30
0
0
VERTEX
8
R2V
62
0
70
32
10
7.536585
20
7.390244
30
0
0
VERTEX
8
R2V
62
0
70
32
10
7.512195
20
7.390244
30
0
0
VERTEX
8
R2V
62
0
70
32
10
7.487805
20
7.414634
30
0
0
VERTEX
8
R2V
62
0
70
32
10
7.487805
20
7.463415
30
0
0
VERTEX
8
R2V
62
0
70
32
10
7.536585
20
7.463415
30
0
0
VERTEX
8
R2V
62
0
70
32
10
7.536585
20
7.439024
30
0
0
SEQEND
0
POLYLINE
8
R2V
62
0
66
1
70
8
0
VERTEX
8
R2V
62
0
70
32
10
7.512195
20
7.390244
30
0
0
VERTEX
8
R2V
62
0
70
32
10
7.512195
20
7.390244
30
0
0
VERTEX
8
R2V
62
0
70
32
10
7.536585
20
7.365854
30
0
0
VERTEX
8
R2V
62
0
70
32
10
7.560976
20
7.341463
30
0
0
VERTEX
8
R2V
62
0
70
32
10
7.560976
20
7.292683
30
0
0
VERTEX
8
R2V
62
0
70
32
10
7.487805
20
7.292683
30
0
0
VERTEX
8
R2V
62
0
70
32
10
7.463415
20
7.317073
30
0
0
VERTEX
8
R2V
62
0
70
32
10
7.463415
20
7.341463
30
0
0
VERTEX
8
R2V
62
0
70
32
10
7.487805
20
7.365854
30
0
0
VERTEX
8
R2V
62
0
70
32
10
7.512195
20
7.390244
30
0
0
SEQEND
0
POLYLINE
8
R2V
62
0
66
1
70
8
0
VERTEX
8
R2V
62
0
70
32
10
7.756098
20
7.439024
30
0
0
VERTEX
8
R2V
62
0
70
32
10
7.878049
20
7.439024
30
0
0
VERTEX
8
R2V
62
0
70
32
10
7.878049
20
7.317073
30
0
0
VERTEX
8
R2V
62
0
70
32
10
7.902439
20
7.292683
30
0
0
VERTEX
8
R2V
62
0
70
32
10
7.975610
20
7.292683
30
0
0
VERTEX
8
R2V
62
0
70
32
10
8.000000
20
7.317073
30
0
0
VERTEX
8
R2V
62
0
70
32
10
8.000000
20
7.414634
30
0
0
SEQEND
0
POLYLINE
8
R2V
62
0
66
1
70
8
0
VERTEX
8
R2V
62
0
70
32
10
7.756098
20
7.439024
30
0
0
VERTEX
8
R2V
62
0
70
32
10
7.756098
20
7.292683
30
0
0
VERTEX
8
R2V
62
0
70
32
10
7.658537
20
7.292683
30
0
0
VERTEX
8
R2V
62
0
70
32
10
7.634146
20
7.317073
30
0
0
VERTEX
8
R2V
62
0
70
32
10
7.634146
20
7.439024
30
0
0
VERTEX
8
R2V
62
0
70
32
10
7.756098
20
7.439024
30
0
0
SEQEND
0
POLYLINE
8
R2V
62
0
66
1
70
8
0
VERTEX
8
R2V
62
0
70
32
10
7.829268
20
7.682927
30
0
0
VERTEX
8
R2V
62
0
70
32
10
7.829268
20
7.756098
30
0
0
VERTEX
8
R2V
62
0
70
32
10
7.853659
20
7.756098
30
0
0
VERTEX
8
R2V
62
0
70
32
10
7.878049
20
7.780488
30
0
0
SEQEND
0
POLYLINE
8
R2V
62
0
66
1
70
8
0
VERTEX
8
R2V
62
0
70
32
10
7.829268
20
7.682927
30
0
0
VERTEX
8
R2V
62
0
70
32
10
7.853659
20
7.682927
30
0
0
VERTEX
8
R2V
62
0
70
32
10
7.853659
20
7.634146
30
0
0
VERTEX
8
R2V
62
0
70
32
10
7.878049
20
7.609756
30
0
0
VERTEX
8
R2V
62
0
70
32
10
7.975610
20
7.609756
30
0
0
VERTEX
8
R2V
62
0
70
32
10
8.000000
20
7.634146
30
0
0
VERTEX
8
R2V
62
0
70
32
10
8.000000
20
7.731707
30
0
0
SEQEND
0
POLYLINE
8
R2V
62
0
66
1
70
8
0
VERTEX
8
R2V
62
0
70
32
10
7.829268
20
7.682927
30
0
0
VERTEX
8
R2V
62
0
70
32
10
7.829268
20
7.682927
30
0
0
VERTEX
8
R2V
62
0
70
32
10
7.804878
20
7.682927
30
0
0
VERTEX
8
R2V
62
0
70
32
10
7.804878
20
7.658537
30
0
0
VERTEX
8
R2V
62
0
70
32
10
7.780488
20
7.634146
30
0
0
VERTEX
8
R2V
62
0
70
32
10
7.756098
20
7.609756
30
0
0
VERTEX
8
R2V
62
0
70
32
10
7.682927
20
7.609756
30
0
0
VERTEX
8
R2V
62
0
70
32
10
7.658537
20
7.634146
30
0
0
VERTEX
8
R2V
62
0
70
32
10
7.658537
20
7.682927
30
0
0
VERTEX
8
R2V
62
0
70
32
10
7.634146
20
7.707317
30
0
0
VERTEX
8
R2V
62
0
70
32
10
7.512195
20
7.707317
30
0
0
VERTEX
8
R2V
62
0
70
32
10
7.487805
20
7.682927
30
0
0
VERTEX
8
R2V
62
0
70
32
10
7.487805
20
7.609756
30
0
0
SEQEND
0
POLYLINE
8
R2V
62
0
66
1
70
8
0
VERTEX
8
R2V
62
0
70
32
10
7.536585
20
7.707317
30
0
0
VERTEX
8
R2V
62
0
70
32
10
7.536585
20
7.780488
30
0
0
VERTEX
8
R2V
62
0
70
32
10
7.609756
20
7.780488
30
0
0
VERTEX
8
R2V
62
0
70
32
10
7.609756
20
7.707317
30
0
0
SEQEND
0
POLYLINE
8
R2V
62
0
66
1
70
8
0
VERTEX
8
R2V
62
0
70
32
10
7.609756
20
7.707317
30
0
0
VERTEX
8
R2V
62
0
70
32
10
7.634146
20
7.682927
30
0
0
SEQEND
0
POLYLINE
8
R2V
62
0
66
1
70
8
0
VERTEX
8
R2V
62
0
70
32
10
7.829268
20
7.756098
30
0
0
VERTEX
8
R2V
62
0
70
32
10
7.780488
20
7.756098
30
0
0
SEQEND
0
POLYLINE
8
R2V
62
0
66
1
70
8
0
VERTEX
8
R2V
62
0
70
32
10
8.487805
20
7.756098
30
0
0
VERTEX
8
R2V
62
0
70
32
10
8.512195
20
7.756098
30
0
0
VERTEX
8
R2V
62
0
70
32
10
8.536585
20
7.780488
30
0
0
VERTEX
8
R2V
62
0
70
32
10
8.658537
20
7.780488
30
0
0
SEQEND
0
POLYLINE
8
R2V
62
0
66
1
70
8
0
VERTEX
8
R2V
62
0
70
32
10
8.487805
20
7.756098
30
0
0
VERTEX
8
R2V
62
0
70
32
10
8.487805
20
7.756098
30
0
0
VERTEX
8
R2V
62
0
70
32
10
8.487805
20
7.658537
30
0
0
VERTEX
8
R2V
62
0
70
32
10
8.463415
20
7.634146
30
0
0
VERTEX
8
R2V
62
0
70
32
10
8.463415
20
7.609756
30
0
0
VERTEX
8
R2V
62
0
70
32
10
8.390244
20
7.609756
30
0
0
VERTEX
8
R2V
62
0
70
32
10
8.365854
20
7.634146
30
0
0
VERTEX
8
R2V
62
0
70
32
10
8.365854
20
7.658537
30
0
0
VERTEX
8
R2V
62
0
70
32
10
8.341463
20
7.682927
30
0
0
VERTEX
8
R2V
62
0
70
32
10
8.341463
20
7.731707
30
0
0
VERTEX
8
R2V
62
0
70
32
10
8.365854
20
7.756098
30
0
0
VERTEX
8
R2V
62
0
70
32
10
8.390244
20
7.780488
30
0
0
VERTEX
8
R2V
62
0
70
32
10
8.439024
20
7.780488
30
0
0
VERTEX
8
R2V
62
0
70
32
10
8.463415
20
7.756098
30
0
0
VERTEX
8
R2V
62
0
70
32
10
8.487805
20
7.756098
30
0
0
SEQEND
0
POLYLINE
8
R2V
62
0
66
1
70
8
0
VERTEX
8
R2V
62
0
70
32
10
7.585366
20
7.780488
30
0
0
VERTEX
8
R2V
62
0
70
32
10
7.585366
20
7.829268
30
0
0
SEQEND
0
POLYLINE
8
R2V
62
0
66
1
70
8
0
VERTEX
8
R2V
62
0
70
32
10
8.585366
20
7.780488
30
0
0
VERTEX
8
R2V
62
0
70
32
10
8.585366
20
7.829268
30
0
0
VERTEX
8
R2V
62
0
70
32
10
8.609756
20
7.853659
30
0
0
VERTEX
8
R2V
62
0
70
32
10
8.609756
20
7.878049
30
0
0
VERTEX
8
R2V
62
0
70
32
10
8.658537
20
7.878049
30
0
0
SEQEND
0
POLYLINE
8
R2V
62
0
66
1
70
8
0
VERTEX
8
R2V
62
0
70
32
10
8.585366
20
7.780488
30
0
0
VERTEX
8
R2V
62
0
70
32
10
8.585366
20
7.609756
30
0
0
SEQEND
0
POLYLINE
8
R2V
62
0
66
1
70
8
0
VERTEX
8
R2V
62
0
70
32
10
6.975610
20
7.975610
30
0
0
VERTEX
8
R2V
62
0
70
32
10
6.975610
20
8.024390
30
0
0
VERTEX
8
R2V
62
0
70
32
10
7.000000
20
8.048780
30
0
0
VERTEX
8
R2V
62
0
70
32
10
7.000000
20
8.073171
30
0
0
SEQEND
0
POLYLINE
8
R2V
62
0
66
1
70
8
0
VERTEX
8
R2V
62
0
70
32
10
6.975610
20
7.975610
30
0
0
VERTEX
8
R2V
62
0
70
32
10
6.975610
20
7.975610
30
0
0
VERTEX
8
R2V
62
0
70
32
10
7.000000
20
7.975610
30
0
0
VERTEX
8
R2V
62
0
70
32
10
7.024390
20
7.951220
30
0
0
VERTEX
8
R2V
62
0
70
32
10
7.024390
20
7.926829
30
0
0
VERTEX
8
R2V
62
0
70
32
10
7.048780
20
7.902439
30
0
0
VERTEX
8
R2V
62
0
70
32
10
7.073171
20
7.902439
30
0
0
VERTEX
8
R2V
62
0
70
32
10
7.097561
20
7.878049
30
0
0
VERTEX
8
R2V
62
0
70
32
10
7.097561
20
7.853659
30
0
0
VERTEX
8
R2V
62
0
70
32
10
7.121951
20
7.829268
30
0
0
VERTEX
8
R2V
62
0
70
32
10
7.146341
20
7.804878
30
0
0
VERTEX
8
R2V
62
0
70
32
10
7.170732
20
7.780488
30
0
0
VERTEX
8
R2V
62
0
70
32
10
7.195122
20
7.780488
30
0
0
VERTEX
8
R2V
62
0
70
32
10
7.219512
20
7.756098
30
0
0
VERTEX
8
R2V
62
0
70
32
10
7.219512
20
7.731707
30
0
0
VERTEX
8
R2V
62
0
70
32
10
7.439024
20
7.731707
30
0
0
SEQEND
0
POLYLINE
8
R2V
62
0
66
1
70
8
0
VERTEX
8
R2V
62
0
70
32
10
6.975610
20
7.975610
30
0
0
VERTEX
8
R2V
62
0
70
32
10
6.975610
20
7.975610
30
0
0
VERTEX
8
R2V
62
0
70
32
10
6.926829
20
7.975610
30
0
0
VERTEX
8
R2V
62
0
70
32
10
6.926829
20
7.951220
30
0
0
VERTEX
8
R2V
62
0
70
32
10
6.902439
20
7.926829
30
0
0
VERTEX
8
R2V
62
0
70
32
10
6.902439
20
7.902439
30
0
0
VERTEX
8
R2V
62
0
70
32
10
6.878049
20
7.878049
30
0
0
VERTEX
8
R2V
62
0
70
32
10
6.853659
20
7.853659
30
0
0
VERTEX
8
R2V
62
0
70
32
10
6.853659
20
7.829268
30
0
0
VERTEX
8
R2V
62
0
70
32
10
6.829268
20
7.804878
30
0
0
VERTEX
8
R2V
62
0
70
32
10
6.829268
20
7.780488
30
0
0
VERTEX
8
R2V
62
0
70
32
10
6.804878
20
7.756098
30
0
0
VERTEX
8
R2V
62
0
70
32
10
6.804878
20
7.731707
30
0
0
SEQEND
0
POLYLINE
8
R2V
62
0
66
1
70
8
0
VERTEX
8
R2V
62
0
70
32
10
4.317073
20
0.390244
30
0
0
VERTEX
8
R2V
62
0
70
32
10
4.317073
20
0.512195
30
0
0
SEQEND
0
POLYLINE
8
R2V
62
0
66
1
70
8
0
VERTEX
8
R2V
62
0
70
32
10
2.097561
20
0.780488
30
0
0
VERTEX
8
R2V
62
0
70
32
10
2.097561
20
0.780488
30
0
0
VERTEX
8
R2V
62
0
70
32
10
2.097561
20
0.804878
30
0
0
VERTEX
8
R2V
62
0
70
32
10
2.121951
20
0.829268
30
0
0
VERTEX
8
R2V
62
0
70
32
10
2.121951
20
0.853659
30
0
0
VERTEX
8
R2V
62
0
70
32
10
2.146341
20
0.878049
30
0
0
VERTEX
8
R2V
62
0
70
32
10
2.170732
20
0.902439
30
0
0
VERTEX
8
R2V
62
0
70
32
10
2.170732
20
0.926829
30
0
0
VERTEX
8
R2V
62
0
70
32
10
2.195122
20
0.951220
30
0
0
VERTEX
8
R2V
62
0
70
32
10
2.219512
20
0.975610
30
0
0
VERTEX
8
R2V
62
0
70
32
10
2.219512
20
1.000000
30
0
0
VERTEX
8
R2V
62
0
70
32
10
2.243902
20
1.024390
30
0
0
VERTEX
8
R2V
62
0
70
32
10
2.243902
20
1.048780
30
0
0
VERTEX
8
R2V
62
0
70
32
10
2.268293
20
1.073171
30
0
0
VERTEX
8
R2V
62
0
70
32
10
2.292683
20
1.073171
30
0
0
VERTEX
8
R2V
62
0
70
32
10
2.292683
20
1.097561
30
0
0
VERTEX
8
R2V
62
0
70
32
10
2.317073
20
1.121951
30
0
0
VERTEX
8
R2V
62
0
70
32
10
2.317073
20
1.146341
30
0
0
SEQEND
0
POLYLINE
8
R2V
62
0
66
1
70
8
0
VERTEX
8
R2V
62
0
70
32
10
4.609756
20
0.878049
30
0
0
VERTEX
8
R2V
62
0
70
32
10
4.609756
20
0.902439
30
0
0
VERTEX
8
R2V
62
0
70
32
10
4.634146
20
0.926829
30
0
0
VERTEX
8
R2V
62
0
70
32
10
4.634146
20
0.951220
30
0
0
SEQEND
0
POLYLINE
8
R2V
62
0
66
1
70
8
0
VERTEX
8
R2V
62
0
70
32
10
4.756098
20
1.097561
30
0
0
VERTEX
8
R2V
62
0
70
32
10
4.756098
20
1.121951
30
0
0
VERTEX
8
R2V
62
0
70
32
10
4.780488
20
1.146341
30
0
0
VERTEX
8
R2V
62
0
70
32
10
4.804878
20
1.170732
30
0
0
VERTEX
8
R2V
62
0
70
32
10
4.804878
20
1.195122
30
0
0
SEQEND
0
POLYLINE
8
R2V
62
0
66
1
70
8
0
VERTEX
8
R2V
62
0
70
32
10
4.902439
20
1.317073
30
0
0
VERTEX
8
R2V
62
0
70
32
10
4.902439
20
1.341463
30
0
0
VERTEX
8
R2V
62
0
70
32
10
4.926829
20
1.365854
30
0
0
VERTEX
8
R2V
62
0
70
32
10
4.926829
20
1.390244
30
0
0
SEQEND
0
POLYLINE
8
R2V
62
0
66
1
70
8
0
VERTEX
8
R2V
62
0
70
32
10
2.682927
20
1.390244
30
0
0
VERTEX
8
R2V
62
0
70
32
10
2.682927
20
1.414634
30
0
0
SEQEND
0
POLYLINE
8
R2V
62
0
66
1
70
8
0
VERTEX
8
R2V
62
0
70
32
10
5.024390
20
1.487805
30
0
0
VERTEX
8
R2V
62
0
70
32
10
5.024390
20
1.536585
30
0
0
VERTEX
8
R2V
62
0
70
32
10
5.048780
20
1.560976
30
0
0
VERTEX
8
R2V
62
0
70
32
10
5.073171
20
1.585366
30
0
0
VERTEX
8
R2V
62
0
70
32
10
5.097561
20
1.609756
30
0
0
SEQEND
0
POLYLINE
8
R2V
62
0
66
1
70
8
0
VERTEX
8
R2V
62
0
70
32
10
7.560976
20
1.512195
30
0
0
VERTEX
8
R2V
62
0
70
32
10
7.682927
20
1.512195
30
0
0
VERTEX
8
R2V
62
0
70
32
10
7.707317
20
1.536585
30
0
0
VERTEX
8
R2V
62
0
70
32
10
7.707317
20
1.609756
30
0
0
VERTEX
8
R2V
62
0
70
32
10
7.682927
20
1.634146
30
0
0
SEQEND
0
POLYLINE
8
R2V
62
0
66
1
70
8
0
VERTEX
8
R2V
62
0
70
32
10
7.560976
20
1.512195
30
0
0
VERTEX
8
R2V
62
0
70
32
10
7.536585
20
1.536585
30
0
0
VERTEX
8
R2V
62
0
70
32
10
7.536585
20
1.560976
30
0
0
SEQEND
0
POLYLINE
8
R2V
62
0
66
1
70
8
0
VERTEX
8
R2V
62
0
70
32
10
7.219512
20
1.560976
30
0
0
VERTEX
8
R2V
62
0
70
32
10
7.219512
20
1.585366
30
0
0
VERTEX
8
R2V
62
0
70
32
10
7.243902
20
1.609756
30
0
0
VERTEX
8
R2V
62
0
70
32
10
7.243902
20
1.634146
30
0
0
VERTEX
8
R2V
62
0
70
32
10
7.268293
20
1.634146
30
0
0
SEQEND
0
POLYLINE
8
R2V
62
0
66
1
70
8
0
VERTEX
8
R2V
62
0
70
32
10
5.170732
20
1.707317
30
0
0
VERTEX
8
R2V
62
0
70
32
10
5.170732
20
1.731707
30
0
0
VERTEX
8
R2V
62
0
70
32
10
5.195122
20
1.756098
30
0
0
VERTEX
8
R2V
62
0
70
32
10
5.195122
20
1.780488
30
0
0
VERTEX
8
R2V
62
0
70
32
10
5.219512
20
1.804878
30
0
0
VERTEX
8
R2V
62
0
70
32
10
5.243902
20
1.829268
30
0
0
SEQEND
0
POLYLINE
8
R2V
62
0
66
1
70
8
0
VERTEX
8
R2V
62
0
70
32
10
5.292683
20
1.902439
30
0
0
VERTEX
8
R2V
62
0
70
32
10
5.317073
20
1.926829
30
0
0
VERTEX
8
R2V
62
0
70
32
10
5.317073
20
1.951220
30
0
0
VERTEX
8
R2V
62
0
70
32
10
5.341463
20
1.975610
30
0
0
VERTEX
8
R2V
62
0
70
32
10
5.341463
20
2.000000
30
0
0
SEQEND
0
POLYLINE
8
R2V
62
0
66
1
70
8
0
VERTEX
8
R2V
62
0
70
32
10
5.756098
20
2.560976
30
0
0
VERTEX
8
R2V
62
0
70
32
10
5.756098
20
2.585366
30
0
0
VERTEX
8
R2V
62
0
70
32
10
5.780488
20
2.609756
30
0
0
VERTEX
8
R2V
62
0
70
32
10
5.780488
20
2.634146
30
0
0
SEQEND
0
POLYLINE
8
R2V
62
0
66
1
70
8
0
VERTEX
8
R2V
62
0
70
32
10
5.853659
20
2.707317
30
0
0
VERTEX
8
R2V
62
0
70
32
10
5.853659
20
2.731707
30
0
0
VERTEX
8
R2V
62
0
70
32
10
5.878049
20
2.756098
30
0
0
VERTEX
8
R2V
62
0
70
32
10
5.878049
20
2.780488
30
0
0
VERTEX
8
R2V
62
0
70
32
10
5.902439
20
2.780488
30
0
0
SEQEND
0
POLYLINE
8
R2V
62
0
66
1
70
8
0
VERTEX
8
R2V
62
0
70
32
10
3.658537
20
3.097561
30
0
0
VERTEX
8
R2V
62
0
70
32
10
3.658537
20
3.097561
30
0
0
VERTEX
8
R2V
62
0
70
32
10
3.658537
20
3.121951
30
0
0
VERTEX
8
R2V
62
0
70
32
10
3.682927
20
3.146341
30
0
0
VERTEX
8
R2V
62
0
70
32
10
3.682927
20
3.170732
30
0
0
VERTEX
8
R2V
62
0
70
32
10
3.707317
20
3.195122
30
0
0
VERTEX
8
R2V
62
0
70
32
10
3.731707
20
3.219512
30
0
0
VERTEX
8
R2V
62
0
70
32
10
3.731707
20
3.243902
30
0
0
VERTEX
8
R2V
62
0
70
32
10
3.756098
20
3.268293
30
0
0
VERTEX
8
R2V
62
0
70
32
10
3.756098
20
3.292683
30
0
0
VERTEX
8
R2V
62
0
70
32
10
3.780488
20
3.317073
30
0
0
VERTEX
8
R2V
62
0
70
32
10
3.804878
20
3.317073
30
0
0
VERTEX
8
R2V
62
0
70
32
10
3.804878
20
3.341463
30
0
0
VERTEX
8
R2V
62
0
70
32
10
3.829268
20
3.365854
30
0
0
VERTEX
8
R2V
62
0
70
32
10
3.853659
20
3.390244
30
0
0
VERTEX
8
R2V
62
0
70
32
10
3.853659
20
3.414634
30
0
0
VERTEX
8
R2V
62
0
70
32
10
3.878049
20
3.439024
30
0
0
SEQEND
0
POLYLINE
8
R2V
62
0
66
1
70
8
0
VERTEX
8
R2V
62
0
70
32
10
6.170732
20
3.170732
30
0
0
VERTEX
8
R2V
62
0
70
32
10
6.170732
20
3.195122
30
0
0
VERTEX
8
R2V
62
0
70
32
10
6.195122
20
3.219512
30
0
0
SEQEND
0
POLYLINE
8
R2V
62
0
66
1
70
8
0
VERTEX
8
R2V
62
0
70
32
10
1.024390
20
3.341463
30
0
0
VERTEX
8
R2V
62
0
70
32
10
1.024390
20
3.365854
30
0
0
VERTEX
8
R2V
62
0
70
32
10
1.048780
20
3.390244
30
0
0
VERTEX
8
R2V
62
0
70
32
10
1.073171
20
3.414634
30
0
0
VERTEX
8
R2V
62
0
70
32
10
1.073171
20
3.439024
30
0
0
VERTEX
8
R2V
62
0
70
32
10
1.097561
20
3.463415
30
0
0
SEQEND
0
POLYLINE
8
R2V
62
0
66
1
70
8
0
VERTEX
8
R2V
62
0
70
32
10
6.268293
20
3.341463
30
0
0
VERTEX
8
R2V
62
0
70
32
10
6.292683
20
3.365854
30
0
0
VERTEX
8
R2V
62
0
70
32
10
6.292683
20
3.390244
30
0
0
VERTEX
8
R2V
62
0
70
32
10
6.317073
20
3.390244
30
0
0
SEQEND
0
POLYLINE
8
R2V
62
0
66
1
70
8
0
VERTEX
8
R2V
62
0
70
32
10
6.414634
20
3.536585
30
0
0
VERTEX
8
R2V
62
0
70
32
10
6.414634
20
3.560976
30
0
0
VERTEX
8
R2V
62
0
70
32
10
6.439024
20
3.585366
30
0
0
VERTEX
8
R2V
62
0
70
32
10
6.439024
20
3.609756
30
0
0
SEQEND
0
POLYLINE
8
R2V
62
0
66
1
70
8
0
VERTEX
8
R2V
62
0
70
32
10
1.170732
20
3.560976
30
0
0
VERTEX
8
R2V
62
0
70
32
10
1.170732
20
3.585366
30
0
0
VERTEX
8
R2V
62
0
70
32
10
1.195122
20
3.609756
30
0
0
VERTEX
8
R2V
62
0
70
32
10
1.219512
20
3.634146
30
0
0
VERTEX
8
R2V
62
0
70
32
10
1.219512
20
3.658537
30
0
0
SEQEND
0
POLYLINE
8
R2V
62
0
66
1
70
8
0
VERTEX
8
R2V
62
0
70
32
10
4.048780
20
3.682927
30
0
0
VERTEX
8
R2V
62
0
70
32
10
4.048780
20
3.682927
30
0
0
VERTEX
8
R2V
62
0
70
32
10
4.048780
20
3.707317
30
0
0
VERTEX
8
R2V
62
0
70
32
10
4.073171
20
3.731707
30
0
0
VERTEX
8
R2V
62
0
70
32
10
4.073171
20
3.756098
30
0
0
VERTEX
8
R2V
62
0
70
32
10
4.097561
20
3.780488
30
0
0
VERTEX
8
R2V
62
0
70
32
10
4.121951
20
3.804878
30
0
0
VERTEX
8
R2V
62
0
70
32
10
4.146341
20
3.829268
30
0
0
VERTEX
8
R2V
62
0
70
32
10
4.146341
20
3.853659
30
0
0
VERTEX
8
R2V
62
0
70
32
10
4.170732
20
3.878049
30
0
0
VERTEX
8
R2V
62
0
70
32
10
4.170732
20
3.902439
30
0
0
VERTEX
8
R2V
62
0
70
32
10
4.195122
20
3.926829
30
0
0
VERTEX
8
R2V
62
0
70
32
10
4.219512
20
3.926829
30
0
0
VERTEX
8
R2V
62
0
70
32
10
4.219512
20
3.975610
30
0
0
VERTEX
8
R2V
62
0
70
32
10
4.243902
20
4.000000
30
0
0
VERTEX
8
R2V
62
0
70
32
10
4.268293
20
4.024390
30
0
0
VERTEX
8
R2V
62
0
70
32
10
4.268293
20
4.048780
30
0
0
SEQEND
0
POLYLINE
8
R2V
62
0
66
1
70
8
0
VERTEX
8
R2V
62
0
70
32
10
1.317073
20
3.780488
30
0
0
VERTEX
8
R2V
62
0
70
32
10
1.317073
20
3.804878
30
0
0
VERTEX
8
R2V
62
0
70
32
10
1.341463
20
3.829268
30
0
0
VERTEX
8
R2V
62
0
70
32
10
1.365854
20
3.853659
30
0
0
SEQEND
0
POLYLINE
8
R2V
62
0
66
1
70
8
0
VERTEX
8
R2V
62
0
70
32
10
6.585366
20
3.780488
30
0
0
VERTEX
8
R2V
62
0
70
32
10
6.585366
20
3.829268
30
0
0
VERTEX
8
R2V
62
0
70
32
10
6.609756
20
3.829268
30
0
0
VERTEX
8
R2V
62
0
70
32
10
6.634146
20
3.853659
30
0
0
SEQEND
0
POLYLINE
8
R2V
62
0
66
1
70
8
0
VERTEX
8
R2V
62
0
70
32
10
1.439024
20
3.951220
30
0
0
VERTEX
8
R2V
62
0
70
32
10
1.439024
20
4.000000
30
0
0
VERTEX
8
R2V
62
0
70
32
10
1.463415
20
4.024390
30
0
0
VERTEX
8
R2V
62
0
70
32
10
1.487805
20
4.048780
30
0
0
VERTEX
8
R2V
62
0
70
32
10
1.487805
20
4.073171
30
0
0
SEQEND
0
POLYLINE
8
R2V
62
0
66
1
70
8
0
VERTEX
8
R2V
62
0
70
32
10
6.707317
20
3.951220
30
0
0
VERTEX
8
R2V
62
0
70
32
10
6.707317
20
4.000000
30
0
0
VERTEX
8
R2V
62
0
70
32
10
6.731707
20
4.024390
30
0
0
VERTEX
8
R2V
62
0
70
32
10
6.756098
20
4.048780
30
0
0
SEQEND
0
POLYLINE
8
R2V
62
0
66
1
70
8
0
VERTEX
8
R2V
62
0
70
32
10
4.341463
20
4.146341
30
0
0
VERTEX
8
R2V
62
0
70
32
10
4.365854
20
4.146341
30
0
0
SEQEND
0
POLYLINE
8
R2V
62
0
66
1
70
8
0
VERTEX
8
R2V
62
0
70
32
10
6.829268
20
4.146341
30
0
0
VERTEX
8
R2V
62
0
70
32
10
6.829268
20
4.170732
30
0
0
VERTEX
8
R2V
62
0
70
32
10
6.853659
20
4.195122
30
0
0
VERTEX
8
R2V
62
0
70
32
10
6.853659
20
4.219512
30
0
0
SEQEND
0
POLYLINE
8
R2V
62
0
66
1
70
8
0
VERTEX
8
R2V
62
0
70
32
10
1.585366
20
4.170732
30
0
0
VERTEX
8
R2V
62
0
70
32
10
1.585366
20
4.219512
30
0
0
VERTEX
8
R2V
62
0
70
32
10
1.609756
20
4.243902
30
0
0
VERTEX
8
R2V
62
0
70
32
10
1.634146
20
4.243902
30
0
0
VERTEX
8
R2V
62
0
70
32
10
1.634146
20
4.268293
30
0
0
VERTEX
8
R2V
62
0
70
32
10
1.658537
20
4.292683
30
0
0
SEQEND
0
POLYLINE
8
R2V
62
0
66
1
70
8
0
VERTEX
8
R2V
62
0
70
32
10
4.439024
20
4.268293
30
0
0
VERTEX
8
R2V
62
0
70
32
10
4.439024
20
4.268293
30
0
0
VERTEX
8
R2V
62
0
70
32
10
4.439024
20
4.317073
30
0
0
VERTEX
8
R2V
62
0
70
32
10
4.463415
20
4.317073
30
0
0
VERTEX
8
R2V
62
0
70
32
10
4.487805
20
4.341463
30
0
0
VERTEX
8
R2V
62
0
70
32
10
4.487805
20
4.365854
30
0
0
VERTEX
8
R2V
62
0
70
32
10
4.512195
20
4.390244
30
0
0
VERTEX
8
R2V
62
0
70
32
10
4.512195
20
4.414634
30
0
0
VERTEX
8
R2V
62
0
70
32
10
4.536585
20
4.439024
30
0
0
VERTEX
8
R2V
62
0
70
32
10
4.560976
20
4.463415
30
0
0
VERTEX
8
R2V
62
0
70
32
10
4.585366
20
4.487805
30
0
0
VERTEX
8
R2V
62
0
70
32
10
4.585366
20
4.512195
30
0
0
VERTEX
8
R2V
62
0
70
32
10
4.609756
20
4.536585
30
0
0
VERTEX
8
R2V
62
0
70
32
10
4.634146
20
4.560976
30
0
0
VERTEX
8
R2V
62
0
70
32
10
4.634146
20
4.585366
30
0
0
SEQEND
0
POLYLINE
8
R2V
62
0
66
1
70
8
0
VERTEX
8
R2V
62
0
70
32
10
7.000000
20
4.390244
30
0
0
VERTEX
8
R2V
62
0
70
32
10
7.000000
20
4.439024
30
0
0
SEQEND
0
POLYLINE
8
R2V
62
0
66
1
70
8
0
VERTEX
8
R2V
62
0
70
32
10
1.756098
20
4.414634
30
0
0
VERTEX
8
R2V
62
0
70
32
10
1.756098
20
4.439024
30
0
0
VERTEX
8
R2V
62
0
70
32
10
1.780488
20
4.463415
30
0
0
VERTEX
8
R2V
62
0
70
32
10
1.780488
20
4.487805
30
0
0
SEQEND
0
POLYLINE
8
R2V
62
0
66
1
70
8
0
VERTEX
8
R2V
62
0
70
32
10
7.097561
20
4.560976
30
0
0
VERTEX
8
R2V
62
0
70
32
10
7.121951
20
4.585366
30
0
0
VERTEX
8
R2V
62
0
70
32
10
7.121951
20
4.609756
30
0
0
VERTEX
8
R2V
62
0
70
32
10
7.146341
20
4.634146
30
0
0
VERTEX
8
R2V
62
0
70
32
10
7.146341
20
4.658537
30
0
0
SEQEND
0
POLYLINE
8
R2V
62
0
66
1
70
8
0
VERTEX
8
R2V
62
0
70
32
10
1.853659
20
4.585366
30
0
0
VERTEX
8
R2V
62
0
70
32
10
1.878049
20
4.609756
30
0
0
VERTEX
8
R2V
62
0
70
32
10
1.878049
20
4.634146
30
0
0
VERTEX
8
R2V
62
0
70
32
10
1.902439
20
4.658537
30
0
0
VERTEX
8
R2V
62
0
70
32
10
1.926829
20
4.658537
30
0
0
SEQEND
0
POLYLINE
8
R2V
62
0
66
1
70
8
0
VERTEX
8
R2V
62
0
70
32
10
7.243902
20
4.756098
30
0
0
VERTEX
8
R2V
62
0
70
32
10
7.243902
20
4.780488
30
0
0
VERTEX
8
R2V
62
0
70
32
10
7.268293
20
4.804878
30
0
0
VERTEX
8
R2V
62
0
70
32
10
7.268293
20
4.829268
30
0
0
SEQEND
0
POLYLINE
8
R2V
62
0
66
1
70
8
0
VERTEX
8
R2V
62
0
70
32
10
2.000000
20
4.780488
30
0
0
VERTEX
8
R2V
62
0
70
32
10
2.000000
20
4.804878
30
0
0
VERTEX
8
R2V
62
0
70
32
10
2.024390
20
4.829268
30
0
0
VERTEX
8
R2V
62
0
70
32
10
2.048780
20
4.853659
30
0
0
VERTEX
8
R2V
62
0
70
32
10
2.048780
20
4.878049
30
0
0
SEQEND
0
POLYLINE
8
R2V
62
0
66
1
70
8
0
VERTEX
8
R2V
62
0
70
32
10
4.804878
20
4.829268
30
0
0
VERTEX
8
R2V
62
0
70
32
10
4.804878
20
4.829268
30
0
0
VERTEX
8
R2V
62
0
70
32
10
4.829268
20
4.853659
30
0
0
VERTEX
8
R2V
62
0
70
32
10
4.829268
20
4.878049
30
0
0
VERTEX
8
R2V
62
0
70
32
10
4.853659
20
4.902439
30
0
0
VERTEX
8
R2V
62
0
70
32
10
4.878049
20
4.926829
30
0
0
VERTEX
8
R2V
62
0
70
32
10
4.878049
20
4.951220
30
0
0
VERTEX
8
R2V
62
0
70
32
10
4.902439
20
4.975610
30
0
0
VERTEX
8
R2V
62
0
70
32
10
4.926829
20
5.000000
30
0
0
VERTEX
8
R2V
62
0
70
32
10
4.926829
20
5.024390
30
0
0
VERTEX
8
R2V
62
0
70
32
10
4.951220
20
5.048780
30
0
0
VERTEX
8
R2V
62
0
70
32
10
4.975610
20
5.073171
30
0
0
VERTEX
8
R2V
62
0
70
32
10
4.975610
20
5.097561
30
0
0
VERTEX
8
R2V
62
0
70
32
10
5.000000
20
5.121951
30
0
0
VERTEX
8
R2V
62
0
70
32
10
5.024390
20
5.146341
30
0
0
VERTEX
8
R2V
62
0
70
32
10
5.048780
20
5.170732
30
0
0
VERTEX
8
R2V
62
0
70
32
10
5.048780
20
5.195122
30
0
0
SEQEND
0
POLYLINE
8
R2V
62
0
66
1
70
8
0
VERTEX
8
R2V
62
0
70
32
10
7.365854
20
4.951220
30
0
0
VERTEX
8
R2V
62
0
70
32
10
7.390244
20
4.975610
30
0
0
VERTEX
8
R2V
62
0
70
32
10
7.390244
20
5.000000
30
0
0
VERTEX
8
R2V
62
0
70
32
10
7.414634
20
5.024390
30
0
0
VERTEX
8
R2V
62
0
70
32
10
7.439024
20
5.048780
30
0
0
VERTEX
8
R2V
62
0
70
32
10
7.439024
20
5.073171
30
0
0
SEQEND
0
POLYLINE
8
R2V
62
0
66
1
70
8
0
VERTEX
8
R2V
62
0
70
32
10
2.121951
20
4.975610
30
0
0
VERTEX
8
R2V
62
0
70
32
10
2.146341
20
5.000000
30
0
0
VERTEX
8
R2V
62
0
70
32
10
2.146341
20
5.024390
30
0
0
VERTEX
8
R2V
62
0
70
32
10
2.170732
20
5.048780
30
0
0
VERTEX
8
R2V
62
0
70
32
10
2.195122
20
5.073171
30
0
0
VERTEX
8
R2V
62
0
70
32
10
2.195122
20
5.097561
30
0
0
SEQEND
0
POLYLINE
8
R2V
62
0
66
1
70
8
0
VERTEX
8
R2V
62
0
70
32
10
5.439024
20
4.975610
30
0
0
VERTEX
8
R2V
62
0
70
32
10
5.439024
20
5.073171
30
0
0
VERTEX
8
R2V
62
0
70
32
10
5.463415
20
5.097561
30
0
0
VERTEX
8
R2V
62
0
70
32
10
5.463415
20
5.146341
30
0
0
SEQEND
0
POLYLINE
8
R2V
62
0
66
1
70
8
0
VERTEX
8
R2V
62
0
70
32
10
5.195122
20
5.097561
30
0
0
VERTEX
8
R2V
62
0
70
32
10
5.195122
20
5.097561
30
0
0
VERTEX
8
R2V
62
0
70
32
10
5.195122
20
5.121951
30
0
0
VERTEX
8
R2V
62
0
70
32
10
5.170732
20
5.146341
30
0
0
VERTEX
8
R2V
62
0
70
32
10
5.170732
20
5.219512
30
0
0
VERTEX
8
R2V
62
0
70
32
10
5.195122
20
5.243902
30
0
0
VERTEX
8
R2V
62
0
70
32
10
5.292683
20
5.243902
30
0
0
VERTEX
8
R2V
62
0
70
32
10
5.292683
20
5.097561
30
0
0
VERTEX
8
R2V
62
0
70
32
10
5.195122
20
5.097561
30
0
0
SEQEND
0
POLYLINE
8
R2V
62
0
66
1
70
8
0
VERTEX
8
R2V
62
0
70
32
10
2.268293
20
5.170732
30
0
0
VERTEX
8
R2V
62
0
70
32
10
2.268293
20
5.195122
30
0
0
VERTEX
8
R2V
62
0
70
32
10
2.292683
20
5.219512
30
0
0
VERTEX
8
R2V
62
0
70
32
10
2.292683
20
5.243902
30
0
0
VERTEX
8
R2V
62
0
70
32
10
2.317073
20
5.268293
30
0
0
VERTEX
8
R2V
62
0
70
32
10
2.341463
20
5.292683
30
0
0
SEQEND
0
POLYLINE
8
R2V
62
0
66
1
70
8
0
VERTEX
8
R2V
62
0
70
32
10
7.512195
20
5.170732
30
0
0
VERTEX
8
R2V
62
0
70
32
10
7.536585
20
5.195122
30
0
0
VERTEX
8
R2V
62
0
70
32
10
7.536585
20
5.219512
30
0
0
VERTEX
8
R2V
62
0
70
32
10
7.560976
20
5.243902
30
0
0
VERTEX
8
R2V
62
0
70
32
10
7.585366
20
5.268293
30
0
0
SEQEND
0
POLYLINE
8
R2V
62
0
66
1
70
8
0
VERTEX
8
R2V
62
0
70
32
10
2.560976
20
5.609756
30
0
0
VERTEX
8
R2V
62
0
70
32
10
2.560976
20
5.634146
30
0
0
VERTEX
8
R2V
62
0
70
32
10
2.585366
20
5.658537
30
0
0
VERTEX
8
R2V
62
0
70
32
10
2.609756
20
5.682927
30
0
0
SEQEND
0
POLYLINE
8
R2V
62
0
66
1
70
8
0
VERTEX
8
R2V
62
0
70
32
10
7.829268
20
5.609756
30
0
0
VERTEX
8
R2V
62
0
70
32
10
7.829268
20
5.658537
30
0
0
SEQEND
0
POLYLINE
8
R2V
62
0
66
1
70
8
0
VERTEX
8
R2V
62
0
70
32
10
2.707317
20
5.804878
30
0
0
VERTEX
8
R2V
62
0
70
32
10
2.707317
20
5.853659
30
0
0
SEQEND
0
POLYLINE
8
R2V
62
0
66
1
70
8
0
VERTEX
8
R2V
62
0
70
32
10
8.073171
20
5.975610
30
0
0
VERTEX
8
R2V
62
0
70
32
10
8.073171
20
6.000000
30
0
0
VERTEX
8
R2V
62
0
70
32
10
8.097561
20
6.024390
30
0
0
VERTEX
8
R2V
62
0
70
32
10
8.097561
20
6.048780
30
0
0
SEQEND
0
POLYLINE
8
R2V
62
0
66
1
70
8
0
VERTEX
8
R2V
62
0
70
32
10
8.756098
20
6.048780
30
0
0
VERTEX
8
R2V
62
0
70
32
10
8.756098
20
6.048780
30
0
0
VERTEX
8
R2V
62
0
70
32
10
8.829268
20
6.048780
30
0
0
VERTEX
8
R2V
62
0
70
32
10
8.853659
20
6.073171
30
0
0
VERTEX
8
R2V
62
0
70
32
10
8.853659
20
6.097561
30
0
0
VERTEX
8
R2V
62
0
70
32
10
8.878049
20
6.121951
30
0
0
VERTEX
8
R2V
62
0
70
32
10
8.853659
20
6.146341
30
0
0
VERTEX
8
R2V
62
0
70
32
10
8.853659
20
6.170732
30
0
0
VERTEX
8
R2V
62
0
70
32
10
8.829268
20
6.195122
30
0
0
VERTEX
8
R2V
62
0
70
32
10
8.780488
20
6.195122
30
0
0
VERTEX
8
R2V
62
0
70
32
10
8.756098
20
6.219512
30
0
0
VERTEX
8
R2V
62
0
70
32
10
8.756098
20
6.292683
30
0
0
VERTEX
8
R2V
62
0
70
32
10
8.780488
20
6.317073
30
0
0
VERTEX
8
R2V
62
0
70
32
10
8.878049
20
6.317073
30
0
0
VERTEX
8
R2V
62
0
70
32
10
8.878049
20
6.268293
30
0
0
SEQEND
0
POLYLINE
8
R2V
62
0
66
1
70
8
0
VERTEX
8
R2V
62
0
70
32
10
9.439024
20
6.073171
30
0
0
VERTEX
8
R2V
62
0
70
32
10
9.439024
20
6.243902
30
0
0
SEQEND
0
POLYLINE
8
R2V
62
0
66
1
70
8
0
VERTEX
8
R2V
62
0
70
32
10
3.121951
20
6.414634
30
0
0
VERTEX
8
R2V
62
0
70
32
10
3.121951
20
6.463415
30
0
0
SEQEND
0
POLYLINE
8
R2V
62
0
66
1
70
8
0
VERTEX
8
R2V
62
0
70
32
10
3.878049
20
6.463415
30
0
0
VERTEX
8
R2V
62
0
70
32
10
3.878049
20
6.463415
30
0
0
VERTEX
8
R2V
62
0
70
32
10
3.975610
20
6.463415
30
0
0
VERTEX
8
R2V
62
0
70
32
10
3.975610
20
6.487805
30
0
0
VERTEX
8
R2V
62
0
70
32
10
4.000000
20
6.512195
30
0
0
VERTEX
8
R2V
62
0
70
32
10
4.000000
20
6.536585
30
0
0
VERTEX
8
R2V
62
0
70
32
10
3.975610
20
6.560976
30
0
0
VERTEX
8
R2V
62
0
70
32
10
3.975610
20
6.585366
30
0
0
VERTEX
8
R2V
62
0
70
32
10
3.951220
20
6.609756
30
0
0
VERTEX
8
R2V
62
0
70
32
10
3.926829
20
6.609756
30
0
0
VERTEX
8
R2V
62
0
70
32
10
3.902439
20
6.634146
30
0
0
VERTEX
8
R2V
62
0
70
32
10
3.878049
20
6.658537
30
0
0
VERTEX
8
R2V
62
0
70
32
10
3.878049
20
6.682927
30
0
0
VERTEX
8
R2V
62
0
70
32
10
3.902439
20
6.707317
30
0
0
VERTEX
8
R2V
62
0
70
32
10
3.902439
20
6.731707
30
0
0
VERTEX
8
R2V
62
0
70
32
10
3.975610
20
6.731707
30
0
0
VERTEX
8
R2V
62
0
70
32
10
4.000000
20
6.707317
30
0
0
VERTEX
8
R2V
62
0
70
32
10
4.000000
20
6.682927
30
0
0
SEQEND
0
POLYLINE
8
R2V
62
0
66
1
70
8
0
VERTEX
8
R2V
62
0
70
32
10
3.707317
20
6.585366
30
0
0
VERTEX
8
R2V
62
0
70
32
10
3.780488
20
6.585366
30
0
0
SEQEND
0
POLYLINE
8
R2V
62
0
66
1
70
8
0
VERTEX
8
R2V
62
0
70
32
10
3.707317
20
6.585366
30
0
0
VERTEX
8
R2V
62
0
70
32
10
3.707317
20
6.585366
30
0
0
VERTEX
8
R2V
62
0
70
32
10
3.682927
20
6.609756
30
0
0
VERTEX
8
R2V
62
0
70
32
10
3.658537
20
6.634146
30
0
0
VERTEX
8
R2V
62
0
70
32
10
3.634146
20
6.658537
30
0
0
VERTEX
8
R2V
62
0
70
32
10
3.609756
20
6.682927
30
0
0
VERTEX
8
R2V
62
0
70
32
10
3.609756
20
6.707317
30
0
0
VERTEX
8
R2V
62
0
70
32
10
3.585366
20
6.731707
30
0
0
VERTEX
8
R2V
62
0
70
32
10
3.560976
20
6.731707
30
0
0
VERTEX
8
R2V
62
0
70
32
10
3.536585
20
6.756098
30
0
0
VERTEX
8
R2V
62
0
70
32
10
3.512195
20
6.780488
30
0
0
VERTEX
8
R2V
62
0
70
32
10
3.487805
20
6.780488
30
0
0
VERTEX
8
R2V
62
0
70
32
10
3.487805
20
6.804878
30
0
0
VERTEX
8
R2V
62
0
70
32
10
3.463415
20
6.829268
30
0
0
VERTEX
8
R2V
62
0
70
32
10
3.463415
20
6.853659
30
0
0
VERTEX
8
R2V
62
0
70
32
10
3.390244
20
6.853659
30
0
0
VERTEX
8
R2V
62
0
70
32
10
3.390244
20
6.829268
30
0
0
VERTEX
8
R2V
62
0
70
32
10
3.365854
20
6.804878
30
0
0
VERTEX
8
R2V
62
0
70
32
10
3.365854
20
6.780488
30
0
0
SEQEND
0
POLYLINE
8
R2V
62
0
66
1
70
8
0
VERTEX
8
R2V
62
0
70
32
10
8.512195
20
6.609756
30
0
0
VERTEX
8
R2V
62
0
70
32
10
8.512195
20
6.634146
30
0
0
VERTEX
8
R2V
62
0
70
32
10
8.536585
20
6.658537
30
0
0
VERTEX
8
R2V
62
0
70
32
10
8.536585
20
6.682927
30
0
0
SEQEND
0
POLYLINE
8
R2V
62
0
66
1
70
8
0
VERTEX
8
R2V
62
0
70
32
10
3.268293
20
6.634146
30
0
0
VERTEX
8
R2V
62
0
70
32
10
3.268293
20
6.682927
30
0
0
SEQEND
0
POLYLINE
8
R2V
62
0
66
1
70
8
0
VERTEX
8
R2V
62
0
70
32
10
8.634146
20
6.804878
30
0
0
VERTEX
8
R2V
62
0
70
32
10
8.658537
20
6.829268
30
0
0
VERTEX
8
R2V
62
0
70
32
10
8.658537
20
6.878049
30
0
0
SEQEND
0
POLYLINE
8
R2V
62
0
66
1
70
8
0
VERTEX
8
R2V
62
0
70
32
10
8.756098
20
6.975610
30
0
0
VERTEX
8
R2V
62
0
70
32
10
8.780488
20
6.975610
30
0
0
SEQEND
0
POLYLINE
8
R2V
62
0
66
1
70
8
0
VERTEX
8
R2V
62
0
70
32
10
3.536585
20
7.024390
30
0
0
VERTEX
8
R2V
62
0
70
32
10
3.536585
20
7.073171
30
0
0
SEQEND
0
POLYLINE
8
R2V
62
0
66
1
70
8
0
VERTEX
8
R2V
62
0
70
32
10
6.365854
20
7.121951
30
0
0
VERTEX
8
R2V
62
0
70
32
10
6.365854
20
7.121951
30
0
0
VERTEX
8
R2V
62
0
70
32
10
6.390244
20
7.146341
30
0
0
VERTEX
8
R2V
62
0
70
32
10
6.390244
20
7.170732
30
0
0
VERTEX
8
R2V
62
0
70
32
10
6.414634
20
7.195122
30
0
0
VERTEX
8
R2V
62
0
70
32
10
6.439024
20
7.219512
30
0
0
VERTEX
8
R2V
62
0
70
32
10
6.463415
20
7.243902
30
0
0
VERTEX
8
R2V
62
0
70
32
10
6.463415
20
7.268293
30
0
0
VERTEX
8
R2V
62
0
70
32
10
6.487805
20
7.292683
30
0
0
VERTEX
8
R2V
62
0
70
32
10
6.512195
20
7.317073
30
0
0
VERTEX
8
R2V
62
0
70
32
10
6.512195
20
7.341463
30
0
0
VERTEX
8
R2V
62
0
70
32
10
6.536585
20
7.365854
30
0
0
VERTEX
8
R2V
62
0
70
32
10
6.560976
20
7.390244
30
0
0
VERTEX
8
R2V
62
0
70
32
10
6.560976
20
7.414634
30
0
0
VERTEX
8
R2V
62
0
70
32
10
6.585366
20
7.439024
30
0
0
VERTEX
8
R2V
62
0
70
32
10
6.609756
20
7.463415
30
0
0
VERTEX
8
R2V
62
0
70
32
10
6.609756
20
7.487805
30
0
0
SEQEND
0
POLYLINE
8
R2V
62
0
66
1
70
8
0
VERTEX
8
R2V
62
0
70
32
10
3.682927
20
7.243902
30
0
0
VERTEX
8
R2V
62
0
70
32
10
3.682927
20
7.268293
30
0
0
VERTEX
8
R2V
62
0
70
32
10
3.707317
20
7.292683
30
0
0
VERTEX
8
R2V
62
0
70
32
10
3.707317
20
7.317073
30
0
0
SEQEND
0
POLYLINE
8
R2V
62
0
66
1
70
8
0
VERTEX
8
R2V
62
0
70
32
10
8.097561
20
7.317073
30
0
0
VERTEX
8
R2V
62
0
70
32
10
8.097561
20
7.463415
30
0
0
SEQEND
0
POLYLINE
8
R2V
62
0
66
1
70
8
0
VERTEX
8
R2V
62
0
70
32
10
3.780488
20
7.414634
30
0
0
VERTEX
8
R2V
62
0
70
32
10
3.804878
20
7.439024
30
0
0
VERTEX
8
R2V
62
0
70
32
10
3.804878
20
7.463415
30
0
0
SEQEND
0
POLYLINE
8
R2V
62
0
66
1
70
8
0
VERTEX
8
R2V
62
0
70
32
10
3.926829
20
7.609756
30
0
0
VERTEX
8
R2V
62
0
70
32
10
3.926829
20
7.634146
30
0
0
VERTEX
8
R2V
62
0
70
32
10
3.951220
20
7.658537
30
0
0
VERTEX
8
R2V
62
0
70
32
10
3.975610
20
7.682927
30
0
0
VERTEX
8
R2V
62
0
70
32
10
3.975610
20
7.707317
30
0
0
SEQEND
0
POLYLINE
8
R2V
62
0
66
1
70
8
0
VERTEX
8
R2V
62
0
70
32
10
8.097561
20
7.609756
30
0
0
VERTEX
8
R2V
62
0
70
32
10
8.097561
20
7.609756
30
0
0
VERTEX
8
R2V
62
0
70
32
10
8.170732
20
7.609756
30
0
0
VERTEX
8
R2V
62
0
70
32
10
8.170732
20
7.682927
30
0
0
VERTEX
8
R2V
62
0
70
32
10
8.146341
20
7.682927
30
0
0
VERTEX
8
R2V
62
0
70
32
10
8.121951
20
7.707317
30
0
0
VERTEX
8
R2V
62
0
70
32
10
8.097561
20
7.731707
30
0
0
VERTEX
8
R2V
62
0
70
32
10
8.097561
20
7.756098
30
0
0
VERTEX
8
R2V
62
0
70
32
10
8.121951
20
7.780488
30
0
0
VERTEX
8
R2V
62
0
70
32
10
8.170732
20
7.780488
30
0
0
SEQEND
0
POLYLINE
8
R2V
62
0
66
1
70
8
0
VERTEX
8
R2V
62
0
70
32
10
8.097561
20
7.609756
30
0
0
VERTEX
8
R2V
62
0
70
32
10
8.073171
20
7.634146
30
0
0
SEQEND
0
POLYLINE
8
R2V
62
0
66
1
70
8
0
VERTEX
8
R2V
62
0
70
32
10
4.073171
20
7.829268
30
0
0
VERTEX
8
R2V
62
0
70
32
10
4.097561
20
7.853659
30
0
0
VERTEX
8
R2V
62
0
70
32
10
4.097561
20
7.902439
30
0
0
SEQEND
0
POLYLINE
8
R2V
62
0
66
1
70
8
0
VERTEX
8
R2V
62
0
70
32
10
4.195122
20
8.024390
30
0
0
VERTEX
8
R2V
62
0
70
32
10
4.195122
20
8.048780
30
0
0
VERTEX
8
R2V
62
0
70
32
10
4.219512
20
8.073171
30
0
0
VERTEX
8
R2V
62
0
70
32
10
4.243902
20
8.097561
30
0
0
VERTEX
8
R2V
62
0
70
32
10
4.243902
20
8.121951
30
0
0
SEQEND
0
POLYLINE
8
R2V
62
0
66
1
70
8
0
VERTEX
8
R2V
62
0
70
32
10
7.073171
20
8.195122
30
0
0
VERTEX
8
R2V
62
0
70
32
10
7.097561
20
8.195122
30
0
0
SEQEND
0
POLYLINE
8
R2V
62
0
66
1
70
8
0
VERTEX
8
R2V
62
0
70
32
10
4.341463
20
8.243902
30
0
0
VERTEX
8
R2V
62
0
70
32
10
4.341463
20
8.268293
30
0
0
VERTEX
8
R2V
62
0
70
32
10
4.365854
20
8.292683
30
0
0
VERTEX
8
R2V
62
0
70
32
10
4.390244
20
8.317073
30
0
0
VERTEX
8
R2V
62
0
70
32
10
4.390244
20
8.365854
30
0
0
SEQEND
0
POLYLINE
8
R2V
62
0
66
1
70
8
0
VERTEX
8
R2V
62
0
70
32
10
7.170732
20
8.317073
30
0
0
VERTEX
8
R2V
62
0
70
32
10
7.170732
20
8.317073
30
0
0
VERTEX
8
R2V
62
0
70
32
10
7.170732
20
8.341463
30
0
0
VERTEX
8
R2V
62
0
70
32
10
7.195122
20
8.365854
30
0
0
VERTEX
8
R2V
62
0
70
32
10
7.195122
20
8.390244
30
0
0
VERTEX
8
R2V
62
0
70
32
10
7.219512
20
8.414634
30
0
0
VERTEX
8
R2V
62
0
70
32
10
7.219512
20
8.439024
30
0
0
VERTEX
8
R2V
62
0
70
32
10
7.243902
20
8.463415
30
0
0
VERTEX
8
R2V
62
0
70
32
10
7.268293
20
8.487805
30
0
0
VERTEX
8
R2V
62
0
70
32
10
7.292683
20
8.512195
30
0
0
VERTEX
8
R2V
62
0
70
32
10
7.292683
20
8.536585
30
0
0
VERTEX
8
R2V
62
0
70
32
10
7.317073
20
8.560976
30
0
0
VERTEX
8
R2V
62
0
70
32
10
7.317073
20
8.585366
30
0
0
VERTEX
8
R2V
62
0
70
32
10
7.341463
20
8.585366
30
0
0
SEQEND
0
POLYLINE
8
R2V
62
0
66
1
70
8
0
VERTEX
8
R2V
62
0
70
32
10
4.487805
20
8.463415
30
0
0
VERTEX
8
R2V
62
0
70
32
10
4.487805
20
8.487805
30
0
0
VERTEX
8
R2V
62
0
70
32
10
4.512195
20
8.512195
30
0
0
VERTEX
8
R2V
62
0
70
32
10
4.512195
20
8.536585
30
0
0
SEQEND
0
ENDSEC
0
EOF
